<?xml version="1.0"?>
<svg xmlns="http://www.w3.org/2000/svg" xmlns:xlink="http://www.w3.org/1999/xlink" xmlns:svgjs="http://svgjs.com/svgjs" version="1.1" width="512" height="512" x="0" y="0" viewBox="0 0 512 512" style="enable-background:new 0 0 512 512" xml:space="preserve" class=""><g><g xmlns="http://www.w3.org/2000/svg" id="XMLID_1353_"><g id="XMLID_152_"><path id="XMLID_174_" d="m415.76 252.267c3.628-32.303-2.447-64.508-17.569-93.132-2.579-4.882-8.629-6.752-13.513-4.17-4.884 2.58-6.751 8.63-4.171 13.513 27.168 51.425 19.537 115.29-18.989 158.919l-46.451 52.603h-48.94v-76.122c3.13.387 6.267.584 9.396.584 20.114 0 39.813-7.905 54.35-22.441 19.296-19.296 26.904-47.678 19.856-74.071-.923-3.458-3.624-6.158-7.081-7.082-26.394-7.048-54.774.562-74.07 19.857-4.932 4.932-9.095 10.46-12.45 16.394-3.355-5.934-7.519-11.462-12.45-16.394-19.296-19.296-47.679-26.903-74.07-19.857-3.457.923-6.158 3.624-7.081 7.082-7.048 26.393.561 54.775 19.856 74.071 14.538 14.538 34.233 22.441 54.35 22.441 3.128 0 6.265-.198 9.396-.584v76.122h-49.194l-46.45-52.604c-49.103-55.606-46.476-140.256 5.98-192.712 43.958-43.958 110.381-53.994 165.285-24.977 4.884 2.581 10.933.713 13.514-4.169 2.581-4.883.715-10.933-4.168-13.514-29.731-15.712-64.531-21.73-97.985-16.941-34.607 4.953-66.002 20.672-90.788 45.458-29.041 29.042-45.736 67.643-47.011 108.693-1.273 41.051 12.996 80.613 40.181 111.399l46.507 52.673v44.694c0 11.02 6.895 20.454 16.594 24.232 4.011 28.095 28.22 49.768 57.406 49.768s53.395-21.673 57.406-49.768c9.699-3.778 16.594-13.212 16.594-24.232v-44.694l46.51-52.671c21.979-24.891 35.552-55.448 39.25-88.368zm-133.04-17.399c12.849-12.849 31.145-18.69 48.92-15.91 2.777 17.771-3.062 36.072-15.91 48.92-12.85 12.848-31.149 18.687-48.92 15.91-2.778-17.77 3.061-36.072 15.91-48.92zm-37.276 48.921c-17.773 2.775-36.072-3.063-48.92-15.911-12.849-12.849-18.688-31.15-15.91-48.921 17.774-2.774 36.072 3.063 48.92 15.911 12.849 12.848 18.688 31.15 15.91 48.921zm64.556 116.211v38c0 3.309-2.691 6-6 6h-96c-3.309 0-6-2.691-6-6v-38zm-54 92c-17.492 0-32.253-11.884-36.655-28h73.311c-4.403 16.116-19.164 28-36.656 28z" fill="#262e42" data-original="#000000" style="" class=""/><path id="XMLID_1016_" d="m256 49.455c5.522 0 10-4.477 10-10v-29.455c0-5.523-4.478-10-10-10s-10 4.477-10 10v29.455c0 5.523 4.478 10 10 10z" fill="#262e42" data-original="#000000" style="" class=""/><path id="XMLID_1017_" d="m502 223.968h-51.232c-5.522 0-10 4.477-10 10s4.478 10 10 10h51.232c5.522 0 10-4.477 10-10s-4.478-10-10-10z" fill="#262e42" data-original="#000000" style="" class=""/><path id="XMLID_1018_" d="m61.232 223.968h-51.232c-5.522 0-10 4.477-10 10s4.478 10 10 10h51.232c5.522 0 10-4.477 10-10s-4.477-10-10-10z" fill="#262e42" data-original="#000000" style="" class=""/><path id="XMLID_1019_" d="m400.792 364.618c-3.906-3.905-10.236-3.905-14.143 0-3.905 3.905-3.905 10.237 0 14.142l36.228 36.227c1.953 1.953 4.512 2.929 7.071 2.929s5.118-.977 7.071-2.929c3.905-3.905 3.905-10.237 0-14.142z" fill="#262e42" data-original="#000000" style="" class=""/><path id="XMLID_1020_" d="m111.208 103.318c1.953 1.953 4.512 2.929 7.071 2.929s5.118-.977 7.071-2.929c3.905-3.905 3.905-10.237 0-14.142l-36.227-36.227c-3.906-3.905-10.236-3.905-14.143 0-3.905 3.905-3.905 10.237 0 14.142z" fill="#262e42" data-original="#000000" style="" class=""/><path id="XMLID_1022_" d="m111.208 364.618-36.228 36.227c-3.905 3.905-3.905 10.237 0 14.142 1.953 1.953 4.512 2.929 7.071 2.929s5.118-.977 7.071-2.929l36.228-36.227c3.905-3.905 3.905-10.237 0-14.142-3.904-3.905-10.234-3.904-14.142 0z" fill="#262e42" data-original="#000000" style="" class=""/><path id="XMLID_1147_" d="m422.877 52.949-35.648 35.648c-3.905 3.905-3.905 10.237 0 14.142 1.953 1.953 4.512 2.929 7.071 2.929s5.118-.977 7.071-2.929l35.648-35.648c3.905-3.905 3.905-10.237 0-14.142s-10.235-3.905-14.142 0z" fill="#262e42" data-original="#000000" style="" class=""/><path id="XMLID_1335_" d="m362.609 137.61c2.631 0 5.21-1.06 7.07-2.93 1.86-1.86 2.93-4.44 2.93-7.07s-1.069-5.21-2.93-7.07c-1.86-1.86-4.439-2.93-7.07-2.93-2.63 0-5.21 1.07-7.069 2.93-1.86 1.86-2.931 4.44-2.931 7.07 0 2.64 1.07 5.21 2.931 7.07 1.859 1.87 4.439 2.93 7.069 2.93z" fill="#262e42" data-original="#000000" style="" class=""/></g></g></g></svg>
