<?xml version="1.0"?>
<svg xmlns="http://www.w3.org/2000/svg" xmlns:xlink="http://www.w3.org/1999/xlink" xmlns:svgjs="http://svgjs.com/svgjs" version="1.1" width="512" height="512" x="0" y="0" viewBox="0 0 496 496" style="enable-background:new 0 0 512 512" xml:space="preserve" class=""><g><path xmlns="http://www.w3.org/2000/svg" d="m480 80h-48v-40c0-22.054688-17.945312-40-40-40s-40 17.945312-40 40v40h-336c-8.824219 0-16 7.175781-16 16v16c0 8.824219 7.175781 16 16 16v256h200v50.046875l-80 24v37.953125h224v-37.953125l-80-24v-50.046875h200v-256c8.824219 0 16-7.175781 16-16v-16c0-8.824219-7.175781-16-16-16zm-68.945312 144-19.054688 38.113281-19.054688-38.113281zm-19.054688-208c13.230469 0 24 10.769531 24 24v24h-48v-24c0-13.230469 10.769531-24 24-24zm-376 80h352v-16h16v96h16v-96h16v128h-16v-16h-16v16h-16v-96h-352zm328 373.953125v10.046875h-192v-10.046875l64-19.199219v13.246094h64v-13.246094zm-80-21.953125h-32v-64h32zm200-80h-432v-240h320v89.886719l40 80 40-80v-89.886719h32zm16-256h-48v-16h48zm0 0" fill="#262e42" data-original="#000000" style="" class=""/><path xmlns="http://www.w3.org/2000/svg" d="m264.945312 248-28-56h-64l-24-48h-73.890624l-28 56 24 48-24 48 28 56h73.890624l24-48h64zm-180-88h54.109376l20 40-20 40h-54.109376l-20-40zm54.109376 176h-54.109376l-20-40 20-40h54.109376l20 40zm33.890624-48-20-40 20-40h54.109376l20 40-20 40zm0 0" fill="#262e42" data-original="#000000" style="" class=""/><path xmlns="http://www.w3.org/2000/svg" d="m432 304h-16v32h-16v-16h-16v16h-16v-40h-16v40h-16v-56h-16v56h-19.71875l-29.625-44.441406-13.3125 8.882812 34.375 51.558594h156.28125v-16h-16zm0 0" fill="#262e42" data-original="#000000" style="" class=""/><path xmlns="http://www.w3.org/2000/svg" d="m234.664062 160h101.335938v-16h-106.664062l-34.136719 25.601562 9.601562 12.796876zm0 0" fill="#262e42" data-original="#000000" style="" class=""/><path xmlns="http://www.w3.org/2000/svg" d="m96 176h32v16h-32zm0 0" fill="#262e42" data-original="#000000" style="" class=""/><path xmlns="http://www.w3.org/2000/svg" d="m168.835938 252.421875 16-31.996094 14.308593 7.15625-16 31.996094zm0 0" fill="#262e42" data-original="#000000" style="" class=""/><path xmlns="http://www.w3.org/2000/svg" d="m112.835938 316.421875 15.996093-32 14.3125 7.15625-16 31.996094zm0 0" fill="#262e42" data-original="#000000" style="" class=""/></g></svg>
