<svg xmlns="http://www.w3.org/2000/svg" width="412.33" height="396.7" viewBox="0 0 412.33 396.7">
  <g id="Group_11809" data-name="Group 11809" transform="translate(-333.073 9.977)" style="isolation: isolate">
    <path id="Path_35374" data-name="Path 35374" d="M425.647,79.762a91.191,91.191,0,0,1,17.865,25.13,86.751,86.751,0,0,1,3.072,69.127c-17.855,46.834-71.958,70.96-120.618,53.789L173.48,173.978a91.775,91.775,0,0,1-52.81-46.944A86.687,86.687,0,0,1,117.6,57.907c8.614-22.592,25.934-40.648,48.78-50.832a96.621,96.621,0,0,1,71.823-2.939l152.486,53.83A93.528,93.528,0,0,1,425.647,79.762Zm-283.331,68.9a88.477,88.477,0,0,0,32.969,20.584l152.486,53.83c45.943,16.2,97.025-6.577,113.866-50.79a81.818,81.818,0,0,0-2.9-65.262A86.976,86.976,0,0,0,388.883,62.7L236.4,8.872a91.3,91.3,0,0,0-67.813,2.782c-21.574,9.631-37.922,26.669-46.038,47.99a81.821,81.821,0,0,0,2.876,65.281A85.943,85.943,0,0,0,142.315,148.659Z" transform="translate(392.995 -79.276) rotate(39)" fill="#262e42"/>
  </g>
</svg>
