<svg xmlns="http://www.w3.org/2000/svg" width="296.152" height="220.532" viewBox="0 0 296.152 220.532">
  <g id="Group_11808" data-name="Group 11808" style="isolation: isolate">
    <path id="Path_35373" data-name="Path 35373" d="M110.67,350.224a87.048,87.048,0,0,1-27.632-4.546c-21.062-7.066-37.974-21.551-47.608-40.74-19.961-39.81-2.56-87.822,38.793-107.048l129.61-60.223a85.414,85.414,0,0,1,63.6-3.413c21.062,7.07,37.974,21.533,47.6,40.74a76.845,76.845,0,0,1,3.546,61.218,80.638,80.638,0,0,1-42.339,45.811L146.639,342.251A85.161,85.161,0,0,1,110.67,350.224ZM239.787,134.185a80.615,80.615,0,0,0-33.94,7.5L76.242,201.916C37.2,220.068,20.776,265.41,39.631,302.981c9.083,18.138,25.053,31.781,44.942,38.465a80.933,80.933,0,0,0,60.046-3.22L274.23,278A76.234,76.234,0,0,0,314.2,234.748a72.555,72.555,0,0,0-3.355-57.8c-9.088-18.138-25.043-31.8-44.942-38.478A81.886,81.886,0,0,0,239.787,134.185Z" transform="translate(-27.155 -129.693)" fill="#262e42"/>
  </g>
</svg>
