<?xml version="1.0"?>
<svg xmlns="http://www.w3.org/2000/svg" xmlns:xlink="http://www.w3.org/1999/xlink" xmlns:svgjs="http://svgjs.com/svgjs" version="1.1" width="512" height="512" x="0" y="0" viewBox="0 0 512.003 512.003" style="enable-background:new 0 0 512 512" xml:space="preserve" class=""><g>
<g xmlns="http://www.w3.org/2000/svg">
	<g>
		<path d="M315,327.001c-5.52,0-10,4.48-10,10c0,5.52,4.48,10,10,10c5.52,0,10-4.48,10-10C325,331.481,320.52,327.001,315,327.001z" fill="#262e42" data-original="#000000" style="" class=""/>
	</g>
</g>
<g xmlns="http://www.w3.org/2000/svg">
	<g>
		<path d="M195,327.001c-5.52,0-10,4.48-10,10c0,5.52,4.48,10,10,10s10-4.48,10-10C205,331.481,200.52,327.001,195,327.001z" fill="#262e42" data-original="#000000" style="" class=""/>
	</g>
</g>
<g xmlns="http://www.w3.org/2000/svg">
	<g>
		<path d="M504.145,216.233l-43.076-9.457c-5.104-21.685-13.593-42.233-25.303-61.241l19.729-32.879    c2.36-3.935,1.74-8.972-1.504-12.216l-42.43-42.43c-3.245-3.245-8.282-3.864-12.217-1.503l-32.879,19.729    c-19.008-11.71-39.557-20.2-61.241-25.303l-9.457-43.076c-1.006-4.587-5.071-7.856-9.767-7.856h-60    c-4.696,0-8.761,3.269-9.768,7.855l-9.457,43.076c-21.685,5.103-42.233,13.592-61.241,25.303l-32.879-19.729    c-3.938-2.362-8.973-1.742-12.217,1.503l-42.43,42.43c-3.244,3.245-3.864,8.281-1.504,12.216l19.729,32.879    c-11.71,19.008-20.199,39.557-25.303,61.241l-43.076,9.457C3.269,217.241,0,221.304,0,226.001v60c0,4.695,3.267,8.758,7.853,9.767    l43.51,9.567c5.224,21.514,13.708,41.792,25.288,60.436l-20.146,33.576c-2.36,3.935-1.74,8.971,1.504,12.216l42.43,42.43    c3.245,3.244,8.281,3.865,12.216,1.504l34.11-20.464c18.601,11.289,38.605,19.509,59.634,24.504l9.836,44.617    c1.011,4.584,5.072,7.848,9.766,7.848h60c4.693,0,8.755-3.264,9.766-7.848l9.836-44.617c21.028-4.996,41.033-13.216,59.634-24.504    l34.11,20.464c3.934,2.36,8.971,1.741,12.216-1.504l42.43-42.43c3.244-3.245,3.864-8.281,1.504-12.216l-20.146-33.577    c11.583-18.659,20.068-38.937,25.289-60.435l43.51-9.567c4.586-1.008,7.853-5.071,7.853-9.767v-60    C512,221.304,508.731,217.241,504.145,216.233z M492,277.961l-41.857,9.204c-3.839,0.844-6.827,3.858-7.638,7.704    c-4.946,23.468-14.116,45.401-27.256,65.191c-2.134,3.213-2.229,7.368-0.244,10.676l19.323,32.205l-31.389,31.388l-32.675-19.604    c-3.272-1.963-7.378-1.894-10.583,0.183c-19.831,12.851-41.523,21.749-64.477,26.445c-3.869,0.792-6.91,3.787-7.761,7.644    l-9.478,43.004h-43.93l-9.479-43.003c-0.851-3.857-3.892-6.853-7.761-7.644c-22.953-4.697-44.646-13.594-64.477-26.445    c-3.203-2.077-7.31-2.146-10.583-0.183L109.06,434.33l-31.388-31.389l19.323-32.205c1.985-3.309,1.89-7.465-0.246-10.679    c-13.134-19.767-22.304-41.699-27.254-65.188c-0.811-3.846-3.799-6.86-7.638-7.704L20,277.961v-43.917l41.475-9.105    c3.867-0.849,6.87-3.901,7.656-7.782c4.782-23.603,13.938-45.797,27.213-65.968c2.112-3.21,2.198-7.347,0.222-10.643    l-18.894-31.485l31.388-31.387l31.485,18.893c3.295,1.977,7.431,1.892,10.644-0.222c20.17-13.275,42.364-22.431,65.967-27.212    c3.881-0.786,6.933-3.789,7.782-7.656l9.105-41.476h43.914l9.105,41.475c0.85,3.868,3.901,6.87,7.782,7.656    c23.603,4.781,45.797,13.937,65.967,27.212c3.212,2.113,7.348,2.199,10.644,0.222l31.485-18.893l31.388,31.387l-18.894,31.485    c-1.977,3.296-1.891,7.433,0.222,10.643c13.275,20.17,22.431,42.365,27.213,65.968c0.786,3.881,3.789,6.933,7.656,7.782    L492,234.043V277.961z" fill="#262e42" data-original="#000000" style="" class=""/>
	</g>
</g>
<g xmlns="http://www.w3.org/2000/svg">
	<g>
		<path d="M384.927,182.005c-0.002-0.005-0.004-0.01-0.007-0.014c-0.002-0.003-0.004-0.005-0.005-0.008    c-13.161-22.755-32.144-41.738-54.896-54.896c-22.707-13.141-48.648-20.086-75.019-20.086c-26.371,0-52.312,6.945-75.017,20.083    c-22.755,13.16-41.738,32.144-54.898,54.898c0,0.001-0.001,0.001-0.001,0.002c-0.001,0.002-0.003,0.004-0.004,0.006    c-0.002,0.004-0.004,0.008-0.006,0.012C111.942,204.706,105,230.638,105,257.001c0,0.765,0.01,1.521,0.021,2.314    c0.012,0.995,0.033,1.979,0.075,2.963c0.021,0.731,0.05,1.461,0.087,2.183c0.003,0.086,0.006,0.173,0.011,0.259    c0.042,0.82,0.095,1.628,0.15,2.455c0.063,0.906,0.125,1.813,0.204,2.8c0.064,0.737,0.139,1.473,0.212,2.191    c0.084,0.84,0.178,1.681,0.273,2.531c0.067,0.588,0.143,1.182,0.224,1.81c0.009,0.068,0.016,0.136,0.025,0.205    c0.001,0.006,0.002,0.012,0.003,0.019c0.002,0.015,0.004,0.028,0.005,0.043c0.222,1.637,0.464,3.264,0.724,4.861    c0.1,0.63,0.21,1.271,0.33,1.902c0.057,0.334,0.119,0.668,0.184,1.002c0.115,0.645,0.239,1.291,0.364,1.935    c0.008,0.04,0.016,0.08,0.024,0.119c0.177,0.857,0.357,1.719,0.56,2.657c0.001,0.005,0.001,0.01,0.002,0.016    c0.004,0.019,0.009,0.038,0.013,0.056c0.006,0.028,0.011,0.053,0.017,0.081l0.134,0.592c0.108,0.487,0.218,0.972,0.336,1.462    c0.004,0.018,0.009,0.037,0.014,0.056c0.002,0.01,0.004,0.02,0.007,0.03c0.001,0.003,0.002,0.006,0.003,0.01    c0.397,1.7,0.837,3.426,1.332,5.213c0.199,0.736,0.399,1.472,0.604,2.143c0.222,0.765,0.443,1.528,0.683,2.283    c0.201,0.659,0.405,1.315,0.625,2l0.009,0.03c0,0.001,0.001,0.002,0.001,0.003c0.018,0.057,0.035,0.111,0.053,0.169    c0.193,0.589,0.387,1.168,0.59,1.748c0.099,0.298,0.205,0.594,0.308,0.893c0.077,0.222,0.151,0.443,0.229,0.665l0.047,0.134    c0.001,0.004,0.003,0.008,0.005,0.011c0.139,0.409,0.284,0.812,0.441,1.235c0.253,0.7,0.508,1.402,0.792,2.159    c0.003,0.009,0.006,0.018,0.01,0.026c0,0.001,0,0.001,0.001,0.002c0.008,0.021,0.015,0.04,0.023,0.061    c0.566,1.475,1.17,2.979,1.838,4.584c0.42,1.013,0.876,2.064,1.403,3.236c0.175,0.391,0.347,0.772,0.516,1.137    c0.001,0.002,0.002,0.004,0.004,0.006c0.264,0.594,0.539,1.182,0.819,1.774l0.145,0.306c0.015,0.031,0.03,0.061,0.045,0.093    c0.003,0.005,0.004,0.011,0.007,0.016l0.28,0.58c0.233,0.484,0.465,0.964,0.701,1.444c0.018,0.036,0.035,0.072,0.054,0.107    c0.014,0.029,0.028,0.057,0.042,0.086c0.001,0.001,0.001,0.002,0.002,0.004c0.003,0.005,0.005,0.011,0.008,0.016    c0.003,0.006,0.006,0.012,0.009,0.017c0.341,0.68,0.682,1.36,1.009,1.986c0.002,0.004,0.004,0.007,0.006,0.011    c0.007,0.013,0.013,0.026,0.02,0.039l0.183,0.349c0.291,0.557,0.581,1.107,0.879,1.653c0.012,0.022,0.023,0.045,0.036,0.067    c0.002,0.004,0.004,0.008,0.007,0.012c0.007,0.012,0.013,0.025,0.02,0.037c0.206,0.386,0.422,0.783,0.645,1.188    c0.297,0.545,0.613,1.111,0.941,1.689c0.222,0.393,0.453,0.799,0.698,1.227c0.001,0.002,0.003,0.004,0.004,0.006    c0.004,0.008,0.008,0.014,0.012,0.022c26.748,46.249,76.528,74.981,129.912,74.981c53.384,0,103.164-28.732,129.904-74.963    c0.009-0.015,0.015-0.027,0.024-0.042c0.001-0.002,0.003-0.005,0.005-0.007c0.25-0.436,0.484-0.848,0.71-1.248    c0.32-0.564,0.627-1.115,0.916-1.645c0.227-0.413,0.447-0.818,0.658-1.211c0.007-0.012,0.013-0.025,0.02-0.037    c0.002-0.004,0.004-0.008,0.006-0.012c0.336-0.616,0.659-1.227,0.965-1.815l0.133-0.254c0.02-0.038,0.039-0.077,0.059-0.115    l0.344-0.674c0.217-0.425,0.435-0.853,0.648-1.28c0.02-0.038,0.038-0.076,0.056-0.113c0.015-0.028,0.028-0.056,0.042-0.083    c0.236-0.48,0.468-0.96,0.701-1.444l0.28-0.58c0.003-0.006,0.005-0.013,0.008-0.019c0.012-0.026,0.026-0.052,0.038-0.078    l0.15-0.318c0.279-0.592,0.555-1.181,0.819-1.774c0.001-0.002,0.003-0.004,0.004-0.006c0.168-0.365,0.341-0.746,0.516-1.137    c0.513-1.141,0.957-2.163,1.363-3.14c0.005-0.012,0.009-0.022,0.014-0.033c0-0.001,0.001-0.002,0.001-0.003    c0.006-0.014,0.012-0.029,0.018-0.044c0.675-1.62,1.278-3.125,1.868-4.663c0.274-0.729,0.538-1.457,0.813-2.212    c0.146-0.4,0.292-0.801,0.431-1.209c0.001-0.003,0.003-0.007,0.004-0.01l0.047-0.134c0.078-0.222,0.152-0.443,0.229-0.665    c0.104-0.299,0.209-0.595,0.308-0.893c0.203-0.579,0.397-1.16,0.605-1.795c0.013-0.04,0.025-0.081,0.038-0.121    c0-0.001,0.001-0.002,0.001-0.004l0.26-0.829c0.066-0.208,0.129-0.417,0.195-0.625c0.059-0.192,0.121-0.381,0.179-0.574    c0.233-0.735,0.45-1.48,0.688-2.307c0.211-0.695,0.403-1.398,0.575-2.041c0.007-0.026,0.015-0.052,0.022-0.079    c0.002-0.007,0.003-0.014,0.005-0.022c0.506-1.83,0.944-3.544,1.337-5.23c0-0.001,0.001-0.003,0.001-0.004    c0.001-0.004,0.002-0.008,0.003-0.011c0.003-0.014,0.007-0.028,0.01-0.041c0.118-0.49,0.228-0.975,0.336-1.462l0.145-0.639    c0.004-0.02,0.008-0.04,0.013-0.06c0.002-0.01,0.005-0.02,0.007-0.03c0.001-0.004,0.001-0.008,0.002-0.011    c0.199-0.896,0.39-1.8,0.564-2.684c0.136-0.678,0.262-1.355,0.387-2.033c0.075-0.382,0.143-0.765,0.208-1.147    c0.073-0.386,0.138-0.767,0.202-1.149l0.092-0.536c0.25-1.504,0.485-3.091,0.72-4.854c0.096-0.727,0.191-1.463,0.28-2.215    c0.095-0.821,0.179-1.632,0.266-2.475c0.001-0.011,0.002-0.023,0.003-0.035c0-0.005,0.001-0.01,0.002-0.015    c0.073-0.733,0.146-1.477,0.209-2.22c0-0.003,0-0.006,0-0.009c0.001-0.01,0.002-0.018,0.003-0.028l0.009-0.111    c0.073-0.891,0.145-1.782,0.191-2.595c0.036-0.533,0.067-1.065,0.098-1.598c0.015-0.274,0.036-0.548,0.051-0.822    c0-0.002,0-0.005,0-0.007c0.004-0.069,0.007-0.15,0.009-0.233c0.038-0.74,0.067-1.488,0.089-2.236    c0.042-0.98,0.063-1.96,0.075-2.934c0.008-0.767,0.018-1.543,0.018-2.318C405,230.639,398.059,204.706,384.927,182.005z     M384.6,247.001h-40.17c-1.007-8.99-3.364-17.778-6.985-26.05l34.812-20.101C379.175,215.296,383.366,230.963,384.6,247.001z     M362.245,183.536l-34.82,20.105c-5.367-7.266-11.799-13.699-19.066-19.066l20.105-34.82    C341.697,158.836,353.164,170.303,362.245,183.536z M265,127.401c16.039,1.234,31.705,5.424,46.151,12.343l-20.101,34.812    c-8.272-3.622-17.061-5.978-26.05-6.985V127.401z M245,127.401v40.17c-8.989,1.007-17.778,3.364-26.05,6.985l-20.101-34.812    C213.294,132.825,228.961,128.635,245,127.401z M181.535,149.756l20.105,34.82c-7.267,5.367-13.699,11.799-19.066,19.066    l-34.82-20.105C156.836,170.304,168.302,158.837,181.535,149.756z M137.743,200.85l34.813,20.101    c-3.622,8.272-5.979,17.061-6.986,26.05H125.4C126.634,230.963,130.825,215.296,137.743,200.85z M137.542,312.786l-0.123-0.26    c-0.231-0.491-0.462-0.976-0.679-1.468c-0.02-0.044-0.039-0.088-0.06-0.132c-0.003-0.006-0.005-0.012-0.008-0.018    c-0.001-0.003-0.002-0.006-0.004-0.009c-0.045-0.097-0.092-0.202-0.137-0.302c-0.091-0.199-0.182-0.399-0.267-0.589    c-0.366-0.816-0.761-1.726-1.214-2.797c-0.56-1.345-1.102-2.69-1.602-3.991c-0.245-0.652-0.481-1.304-0.718-1.956    c-0.005-0.015-0.037-0.102-0.042-0.117c-0.096-0.259-0.192-0.519-0.281-0.785c-0.015-0.045-0.031-0.09-0.047-0.135    c-0.002-0.006-0.003-0.011-0.005-0.017l-0.048-0.136c-0.156-0.443-0.313-0.887-0.46-1.331c-0.019-0.056-0.038-0.112-0.058-0.168    c-0.165-0.469-0.321-0.938-0.463-1.369l-0.257-0.824c-0.112-0.356-0.225-0.713-0.337-1.08c-0.195-0.64-0.39-1.29-0.58-1.945    c-0.009-0.032-0.018-0.06-0.027-0.093c-0.004-0.015-0.009-0.029-0.013-0.044c-0.159-0.549-0.318-1.107-0.468-1.664    c-0.001-0.005-0.003-0.01-0.005-0.015c-0.005-0.018-0.009-0.033-0.014-0.051c-0.45-1.626-0.835-3.131-1.176-4.6    c-0.008-0.033-0.016-0.067-0.023-0.1c-0.013-0.053-0.024-0.106-0.037-0.159c-0.109-0.447-0.212-0.9-0.309-1.352l-0.051-0.226    c-0.176-0.808-0.345-1.616-0.511-2.424c-0.107-0.551-0.215-1.104-0.312-1.656c-0.01-0.06-0.021-0.12-0.033-0.18    c-0.039-0.2-0.079-0.4-0.111-0.6c-0.017-0.105-0.035-0.21-0.056-0.315c-0.089-0.461-0.169-0.931-0.247-1.421    c-0.236-1.454-0.453-2.907-0.643-4.308c-0.074-0.569-0.147-1.137-0.212-1.706v-0.002c-0.084-0.755-0.17-1.511-0.248-2.285    c-0.064-0.629-0.127-1.258-0.182-1.886c-0.034-0.426-0.062-0.846-0.092-1.27h40.181c1.009,8.992,3.36,17.784,6.983,26.057    l-34.822,20.106L137.542,312.786z M255,387.001c-42.909,0-83.123-21.431-107.242-56.537l42.973-24.813    c2.3-1.328,3.977-3.515,4.661-6.08c0.686-2.565,0.322-5.297-1.009-7.594C188.244,281.384,185,269.29,185,257.001    s3.244-24.383,9.383-34.976c6.154-10.62,15.021-19.487,25.641-25.642c10.593-6.137,22.688-9.382,34.976-9.382    c12.288,0,24.383,3.245,34.976,9.382c10.621,6.155,19.487,15.022,25.642,25.642c4.462,7.699,7.386,16.193,8.655,24.977H283.28    c-4.128-11.639-15.243-20-28.28-20c-16.542,0-30,13.458-30,30s13.458,30,30,30c13.036,0,24.152-8.361,28.28-20h40.992    c-1.269,8.784-4.193,17.277-8.655,24.977c-1.331,2.297-1.694,5.029-1.009,7.594s2.361,4.752,4.661,6.08l42.974,24.814    C338.135,365.564,297.916,387.001,255,387.001z M265,257.001c0,5.514-4.486,10-10,10c-5.514,0-10-4.486-10-10    c0-5.514,4.486-10,10-10C260.514,247.001,265,251.487,265,257.001z M384.532,268.116l-0.006,0.076    c-0.057,0.66-0.121,1.32-0.187,1.971c-0.001,0.016-0.003,0.032-0.005,0.048c-0.074,0.714-0.147,1.421-0.227,2.111    c-0.074,0.633-0.158,1.276-0.242,1.91c0,0.002,0,0.004,0,0.006c-0.204,1.532-0.406,2.9-0.606,4.104l-0.074,0.434    c-0.018,0.113-0.039,0.224-0.058,0.336c-0.034,0.2-0.066,0.4-0.106,0.602c-0.014,0.074-0.027,0.147-0.04,0.222    c-0.045,0.261-0.089,0.523-0.141,0.785c-0.008,0.042-0.017,0.083-0.023,0.125c-0.111,0.603-0.223,1.205-0.348,1.83    c-0.154,0.781-0.318,1.561-0.479,2.285l-0.068,0.301c-0.111,0.512-0.226,1.019-0.35,1.532c-0.008,0.033-0.016,0.067-0.023,0.1    c-0.341,1.469-0.726,2.973-1.194,4.665c-0.153,0.57-0.316,1.14-0.481,1.708c-0.196,0.682-0.402,1.365-0.609,2.045    c-0.11,0.36-0.223,0.717-0.335,1.073l-0.252,0.807c-0.154,0.467-0.306,0.927-0.468,1.385c-0.02,0.056-0.039,0.112-0.058,0.168    c-0.147,0.444-0.304,0.887-0.46,1.331l-0.048,0.136c-0.002,0.006-0.003,0.011-0.005,0.017c-0.016,0.045-0.032,0.09-0.047,0.135    c-0.089,0.267-0.186,0.526-0.281,0.785c-0.005,0.015-0.037,0.102-0.042,0.117c-0.23,0.634-0.46,1.268-0.698,1.902    c-0.524,1.366-1.067,2.714-1.635,4.076c-0.447,1.057-0.838,1.957-1.2,2.765c-0.086,0.191-0.177,0.392-0.269,0.593    c-0.045,0.099-0.092,0.203-0.136,0.299c-0.001,0.003-0.002,0.006-0.004,0.009c-0.003,0.006-0.005,0.012-0.008,0.018    c-0.021,0.043-0.04,0.087-0.06,0.132c-0.217,0.492-0.447,0.978-0.679,1.468l-0.135,0.285l-0.17,0.352l-34.822-20.106    c3.624-8.275,5.975-17.067,6.982-26.058h40.18C384.587,267.372,384.563,267.746,384.532,268.116z" fill="#262e42" data-original="#000000" style="" class=""/>
	</g>
</g>
<g xmlns="http://www.w3.org/2000/svg">
	<g>
		<path d="M285,327.001h-60c-5.522,0-10,4.477-10,10s4.478,10,10,10h60c5.522,0,10-4.477,10-10S290.522,327.001,285,327.001z" fill="#262e42" data-original="#000000" style="" class=""/>
	</g>
</g>
<g xmlns="http://www.w3.org/2000/svg">
</g>
<g xmlns="http://www.w3.org/2000/svg">
</g>
<g xmlns="http://www.w3.org/2000/svg">
</g>
<g xmlns="http://www.w3.org/2000/svg">
</g>
<g xmlns="http://www.w3.org/2000/svg">
</g>
<g xmlns="http://www.w3.org/2000/svg">
</g>
<g xmlns="http://www.w3.org/2000/svg">
</g>
<g xmlns="http://www.w3.org/2000/svg">
</g>
<g xmlns="http://www.w3.org/2000/svg">
</g>
<g xmlns="http://www.w3.org/2000/svg">
</g>
<g xmlns="http://www.w3.org/2000/svg">
</g>
<g xmlns="http://www.w3.org/2000/svg">
</g>
<g xmlns="http://www.w3.org/2000/svg">
</g>
<g xmlns="http://www.w3.org/2000/svg">
</g>
<g xmlns="http://www.w3.org/2000/svg">
</g>
</g></svg>
