<?xml version="1.0"?>
<svg xmlns="http://www.w3.org/2000/svg" xmlns:xlink="http://www.w3.org/1999/xlink" xmlns:svgjs="http://svgjs.com/svgjs" version="1.1" width="512" height="512" x="0" y="0" viewBox="0 0 60 60" style="enable-background:new 0 0 512 512" xml:space="preserve" class=""><g><g xmlns="http://www.w3.org/2000/svg" id="Page-1" fill="none" fill-rule="evenodd"><g id="067---Analytics" fill="rgb(0,0,0)" fill-rule="nonzero"><path id="Shape" d="m3 60h5c.84849384-.0026614 1.6557601-.3662948 2.22-1h25.08c1.4670194.0000185 2.9057987-.4033517 4.159-1.166l18.741-11.41c.9004457-.5487528 1.5278204-1.4516932 1.728-2.487.1993301-1.0027273-.0274545-2.0431829-.626-2.872-.018-.029-.037-.057-.058-.086-.9654954-1.2886241-2.6486109-1.8127079-4.175-1.3l-18.51 6.169c-.3063366.1020382-.6271163.1540382-.95.154h-.574c.4752043-1.3013917.3385502-2.7476481-.372-3.937l-.09-.15c-1.087824-1.8019595-3.0361604-2.9066863-5.141-2.915h-5.232c-1.8447514-.0023798-3.6341803-.630231-5.076-1.781-.9333528-.7438934-1.9909971-1.3167277-3.124-1.692v-2.527c0-.5522847.4477153-1 1-1h4c.5522847 0 1 .4477153 1 1v3c0 .5522847.4477153 1 1 1s1-.4477153 1-1v-13c0-.5522847.4477153-1 1-1h4c.5522847 0 1 .4477153 1 1s.4477153 1 1 1 1-.4477153 1-1c0-1.6568542-1.3431458-3-3-3h-4c-1.6568542 0-3 1.3431458-3 3v7.171c-.3212084-.1133573-.6593761-.171184-1-.171h-4c-1.6568542 0-3 1.3431458-3 3v2.081c-.3980182-.0509943-.7987393-.078043-1.2-.081h-1.984c-.4222546-1.1943509-1.54921457-1.9947486-2.816-2h-5c-1.65685425 0-3 1.3431458-3 3v4c0 .5522847.44771525 1 1 1s1-.4477153 1-1v-4c0-.5522847.44771525-1 1-1h5c.55228475 0 1 .4477153 1 1v21c0 .5522847-.44771525 1-1 1h-5c-.55228475 0-1-.4477153-1-1v-12c0-.5522847-.44771525-1-1-1s-1 .4477153-1 1v12c0 1.6568542 1.34314575 3 3 3zm14.875-21.219c1.7966489 1.4337995 4.0263657 2.2160512 6.325 2.219h5.231c1.4034567.0040752 2.7031853.7397921 3.429 1.941l.09.15c.5452339.9101913.4859597 2.0597159-.15 2.909h-6.075c-1.9746028-.0018907-3.9052624.5828413-5.547 1.68l-.733.488c-.4595009.306518-.583518.9274991-.277 1.387s.9274991.583518 1.387.277l.732-.488c1.3136645-.8774618 2.8582367-1.3452187 4.438-1.344h8.888c.5377518.0003266 1.0720053-.0864643 1.582-.257l18.511-6.17c.6777273-.2328004 1.428818-.0231475 1.888.527.017.029.037.057.057.085.294741.3922757.4100479.8908109.3174859 1.3726665s-.3843779.9021845-.8034859 1.1573335l-18.745 11.41c-.9402536.5718661-2.0194967.8745385-3.12.875h-24.3v-20h1.8c1.8444083.0026059 3.6334485.6304444 5.075 1.781z" fill="#262e42" data-original="#000000" style="" class=""/><path id="Shape" d="m55 37c.5522847 0 1-.4477153 1-1v-28c0-1.65685425-1.3431458-3-3-3h-4c-1.6568542 0-3 1.34314575-3 3v7.184c-.320257-.1184378-.6585603-.1806856-1-.184h-4c-1.6568542 0-3 1.3431458-3 3v7.184c-.320257-.1184378-.6585603-.1806856-1-.184h-4c-1.6568542 0-3 1.3431458-3 3v5c0 .5522847.4477153 1 1 1s1-.4477153 1-1v-5c0-.5522847.4477153-1 1-1h4c.5522847 0 1 .4477153 1 1v14c0 .5522847.4477153 1 1 1s1-.4477153 1-1v-24c0-.5522847.4477153-1 1-1h4c.5522847 0 1 .4477153 1 1v20c0 .5522847.4477153 1 1 1s1-.4477153 1-1v-30c0-.55228475.4477153-1 1-1h4c.5522847 0 1 .44771525 1 1v28c0 .5522847.4477153 1 1 1z" fill="#262e42" data-original="#000000" style="" class=""/><path id="Shape" d="m3.622 25.493c.65584201.9419864 1.7301929 1.5045461 2.878 1.507.7100647.0038394 1.4039992-.2116401 1.987-.617l20.96-14.454 3.144 4.191c.4638469.6164139 1.2408582.9111003 1.9968124.7573034.7559541-.1537968 1.3560592-.7286537 1.5421876-1.4773034l3.23-12.92c.1475239-.59671667.0124608-1.22812695-.3662676-1.71227455s-.9590505-.76725041-1.5737324-.76772545h-12.931c-.7593491-.00142944-1.4540095.42729057-1.7931773 1.10668608s-.2643327 1.49226303.1931773 2.09831392l2.351 3.114-20.728 14.299c-1.58454006 1.1052071-1.98179641 3.2811899-.89 4.875zm2.026-3.229 21.59-14.891c.2246339-.15469998.376331-.39444229.4199457-.66368236.0436146-.26924008-.0246383-.54461246-.1889457-.76231764l-2.98-3.947h12.932l-3.231 12.92-3.719-4.96c-.322095-.43171057-.9282525-.53074725-1.371-.224l-21.756 15c-.2476252.172425-.54225791.264585-.844.264-.65759719.0013678-1.2394106-.4257428-1.43513769-1.053538s.04027501-1.3098754.58213769-1.682462z" fill="#262e42" data-original="#000000" style="" class=""/></g></g></g></svg>
