<svg xmlns="http://www.w3.org/2000/svg" width="132" height="132" viewBox="0 0 132 132">
  <g id="Group_12119" data-name="Group 12119" transform="translate(-175 -274)">
    <g id="Ellipse_588" data-name="Ellipse 588" transform="translate(175 274)" fill="#c9ffc9" stroke="#262e42" stroke-width="2" style="mix-blend-mode: multiply;isolation: isolate">
      <circle cx="66" cy="66" r="66" stroke="none"/>
      <circle cx="66" cy="66" r="65" fill="none"/>
    </g>
    <g id="noun_management_3155793" transform="translate(911.698 1265.698)">
      <g id="Group_11886" data-name="Group 11886" transform="translate(-705 -960)">
        <path id="Path_35502" data-name="Path 35502" d="M56.065,46.983V30.32A3.324,3.324,0,0,0,52.746,27H50.476c.021.368.056.733.056,1.107s-.035.738-.056,1.107h2.269a1.108,1.108,0,0,1,1.107,1.107V46.983a9.959,9.959,0,1,0,2.213,0ZM52.746,61.76l-3-3L51.315,57.2l1.431,1.431L58.6,52.774l1.565,1.565Z" transform="translate(3.687 1.77)" fill="#262e42"/>
        <path id="Path_35503" data-name="Path 35503" d="M9.852,20.852v7.811a3.324,3.324,0,0,0,3.32,3.32h2.269c-.021-.368-.056-.733-.056-1.107s.035-.738.056-1.107H13.172a1.108,1.108,0,0,1-1.107-1.107V20.852a9.959,9.959,0,1,0-2.213,0ZM7.315,11.283l1.431,1.431L14.6,6.857l1.565,1.565L8.746,15.843l-3-3Z" transform="translate(-1 -1)" fill="#262e42"/>
        <path id="Path_35504" data-name="Path 35504" d="M36.959,53H28.107a1.107,1.107,0,1,0,0,2.213h8.852a1.107,1.107,0,1,0,0-2.213Z" transform="translate(1.77 4.539)" fill="#262e42"/>
        <path id="Path_35505" data-name="Path 35505" d="M39.385,49H26.107a1.107,1.107,0,1,0,0,2.213H39.385a1.107,1.107,0,0,0,0-2.213Z" transform="translate(1.557 4.113)" fill="#262e42"/>
        <path id="Path_35506" data-name="Path 35506" d="M29,58.107a3.32,3.32,0,0,0,6.639,0V57H29Z" transform="translate(1.983 4.965)" fill="#262e42"/>
        <path id="Path_35507" data-name="Path 35507" d="M42.034,45.324a17.709,17.709,0,1,0-16.66,0l.584.312v2.879H24.852a1.107,1.107,0,1,0,0,2.213h17.7a1.107,1.107,0,1,0,0-2.213H41.45V45.636Zm-1.059-2.548-1.935-.925c-.173.076-.346.149-.521.217l-.711,2.022H29.6l-.713-2.021q-.261-.1-.521-.217l-1.935.925-5.8-5.8.925-1.935c-.076-.174-.149-.347-.217-.521l-2.021-.713V25.6l2.021-.714q.1-.261.217-.521l-.925-1.934,5.8-5.8,1.935.925c.172-.076.346-.148.521-.217L29.6,15.32h8.206l.713,2.021q.262.1.521.217l1.935-.925,5.8,5.8-.925,1.934c.076.174.149.347.217.521l2.021.711v8.2l-2.021.714q-.1.261-.217.521l.925,1.935Z" transform="translate(0.598 0.172)" fill="#262e42"/>
        <path id="Path_35508" data-name="Path 35508" d="M45.344,26.636,43.8,26.092l-.173-.507a10.888,10.888,0,0,0-.528-1.268l-.237-.481.707-1.476-3.587-3.587-1.477.706-.482-.237a10.78,10.78,0,0,0-1.268-.528l-.507-.174L35.708,17H30.636l-.543,1.54-.507.174a10.78,10.78,0,0,0-1.268.528l-.482.237-1.477-.706L22.77,22.36l.707,1.476-.237.481a10.887,10.887,0,0,0-.528,1.268l-.173.507L21,26.636v5.073l1.541.543.173.507a10.888,10.888,0,0,0,.528,1.268l.237.481-.707,1.476,3.587,3.587,1.477-.707.482.237a10.67,10.67,0,0,0,1.267.528l.508.173.542,1.541h5.072l.543-1.541.508-.173a10.67,10.67,0,0,0,1.267-.528l.482-.237,1.477.707,3.587-3.587-.707-1.476.237-.481a10.888,10.888,0,0,0,.528-1.268l.173-.507,1.54-.544ZM33.172,36.917a7.746,7.746,0,1,1,7.746-7.746A7.746,7.746,0,0,1,33.172,36.917Z" transform="translate(1.13 0.704)" fill="#262e42"/>
        <ellipse id="Ellipse_589" data-name="Ellipse 589" cx="3" cy="3.5" rx="3" ry="3.5" transform="translate(31 26.604)" fill="#262e42"/>
        <path id="Path_35509" data-name="Path 35509" d="M19.811,50.491V48.539a2.474,2.474,0,0,0-4.687-1.107l-1.529,3.058H10.959V38.32a1.107,1.107,0,0,1,1.107-1.107h6.006A19.869,19.869,0,0,1,16.947,35H12.065a3.324,3.324,0,0,0-3.32,3.32V50.491H4.32A3.324,3.324,0,0,0,1,53.811v8.852a3.324,3.324,0,0,0,3.32,3.32H19.811a3.324,3.324,0,0,0,3.32-3.32V53.811A3.324,3.324,0,0,0,19.811,50.491ZM14.278,61.557H5.426V59.344h8.852Zm4.426,0H16.491V59.344H18.7Zm0-4.426H5.426V54.917H18.7Z" transform="translate(-1 2.622)" fill="#262e42"/>
        <path id="Path_35510" data-name="Path 35510" d="M50.889,16.385h12.82V2H59.283V4.213H54.857V6.426H50.431v7.746h-.458l-4.021,4.021a19.7,19.7,0,0,1,1.308,1.821Z" transform="translate(3.788 -0.893)" fill="#262e42"/>
      </g>
    </g>
  </g>
</svg>
