<svg xmlns="http://www.w3.org/2000/svg" width="132" height="132" viewBox="0 0 132 132">
  <g id="Group_12122" data-name="Group 12122" transform="translate(-175 -642)">
    <g id="Group_12121" data-name="Group 12121">
      <g id="Ellipse_496" data-name="Ellipse 496" transform="translate(175 642)" fill="#e3abff" stroke="#262e42" stroke-width="2" style="mix-blend-mode: multiply;isolation: isolate">
        <circle cx="66" cy="66" r="66" stroke="none"/>
        <circle cx="66" cy="66" r="65" fill="none"/>
      </g>
    </g>
    <g id="effective_result_" data-name="effective result " transform="translate(38.54 380)">
      <g id="Group_11887" data-name="Group 11887" transform="translate(166.303 291)">
        <path id="Path_35511" data-name="Path 35511" d="M56.31,28.456a23,23,0,0,0-23.076,21.9,22.73,22.73,0,0,0,6.084,16.512,21.3,21.3,0,0,1,5.871,14.468v.14c0,.013-.007.025-.007.038a10.889,10.889,0,1,0,21.769.023v-.2A20.6,20.6,0,0,1,72.63,67.065a22.856,22.856,0,0,0-16.323-38.61ZM71.557,66.041a22.076,22.076,0,0,0-6.082,14.924,31.415,31.415,0,0,1-8.661,1.467v-9.6a.743.743,0,1,0-1.485,0v9.6a31.22,31.22,0,0,1-8.661-1.466,22.815,22.815,0,0,0-6.263-15.114,21.255,21.255,0,0,1-5.688-15.44A21.527,21.527,0,0,1,56.083,29.94h.211a21.371,21.371,0,0,1,15.263,36.1Z" transform="translate(-19.914 -17.722)" fill="#262e42"/>
        <path id="Path_35512" data-name="Path 35512" d="M63.56,80.4a1.249,1.249,0,1,0,1.248,1.249A1.249,1.249,0,0,0,63.56,80.4Z" transform="translate(-27.407 -31.098)" fill="#262e42"/>
        <path id="Path_35513" data-name="Path 35513" d="M70.463,53.842a2.58,2.58,0,0,1-1.708-2.406A2.639,2.639,0,0,1,69,50.323a2.46,2.46,0,0,0,.261-1.136,2.567,2.567,0,0,0-3.668-2.272,2.7,2.7,0,0,1-1.085.252,2.567,2.567,0,0,1-2.435-1.708,2.559,2.559,0,0,0-4.826.007,2.546,2.546,0,0,1-2.383,1.7,2.45,2.45,0,0,1-1.129-.252,2.512,2.512,0,0,0-1.128-.252,2.574,2.574,0,0,0-2.287,3.675,2.459,2.459,0,0,1,.252,1.069,2.553,2.553,0,0,1-1.7,2.443,2.512,2.512,0,0,0-1.708,2.435,2.546,2.546,0,0,0,1.708,2.4,2.552,2.552,0,0,1,1.708,2.383,2.633,2.633,0,0,1-.252,1.121,2.662,2.662,0,0,0-.261,1.136A2.579,2.579,0,0,0,53.75,65.6a2.594,2.594,0,0,1,1.069-.252,2.56,2.56,0,0,1,2.435,1.715,2.571,2.571,0,0,0,4.834,0,2.55,2.55,0,0,1,2.392-1.708A2.415,2.415,0,0,1,65.6,65.6a2.648,2.648,0,0,0,1.128.26,2.576,2.576,0,0,0,2.288-3.675,2.435,2.435,0,0,1-.253-1.077,2.572,2.572,0,0,1,1.7-2.443,2.558,2.558,0,0,0,0-4.819ZM59.711,61.564a5.305,5.305,0,1,1,5.257-5.353,5.305,5.305,0,0,1-5.257,5.353Z" transform="translate(-23.507 -21.662)" fill="#262e42"/>
        <circle id="Ellipse_590" data-name="Ellipse 590" cx="2.617" cy="2.617" r="2.617" transform="translate(52.532 3.656)" fill="#262e42"/>
        <circle id="Ellipse_591" data-name="Ellipse 591" cx="2.617" cy="2.617" r="2.617" transform="translate(57.767 48.426)" fill="#262e42"/>
        <circle id="Ellipse_592" data-name="Ellipse 592" cx="4.255" cy="4.255" r="4.255" transform="translate(63.806 25.261)" fill="#262e42"/>
        <circle id="Ellipse_593" data-name="Ellipse 593" cx="2.617" cy="2.617" r="2.617" transform="translate(25.299 0)" fill="#262e42"/>
        <circle id="Ellipse_594" data-name="Ellipse 594" cx="2.617" cy="2.617" r="2.617" transform="translate(4.255 47.635)" fill="#262e42"/>
        <circle id="Ellipse_595" data-name="Ellipse 595" cx="4.255" cy="4.255" r="4.255" transform="translate(0 18.228)" fill="#262e42"/>
      </g>
    </g>
  </g>
</svg>
