<?xml version="1.0"?>
<svg xmlns="http://www.w3.org/2000/svg" xmlns:xlink="http://www.w3.org/1999/xlink" xmlns:svgjs="http://svgjs.com/svgjs" version="1.1" width="512" height="512" x="0" y="0" viewBox="0 0 511.996 511.996" style="enable-background:new 0 0 512 512" xml:space="preserve" class=""><g><g xmlns="http://www.w3.org/2000/svg"><g><path d="m201.02 234.228v-71.356c0-4.142-3.358-7.5-7.5-7.5s-7.5 3.358-7.5 7.5v71.356c-9.027 3.119-15.53 11.696-15.53 21.77 0 12.699 10.332 23.03 23.03 23.03s23.03-10.332 23.03-23.03c0-10.073-6.504-18.651-15.53-21.77zm-7.5 29.8c-4.428 0-8.03-3.603-8.03-8.03s3.603-8.03 8.03-8.03 8.03 3.603 8.03 8.03-3.602 8.03-8.03 8.03z" fill="#262e42" data-original="#000000" style=""/><path d="m7.202 247.13c.222.02.442.029.661.029 3.847 0 7.122-2.944 7.463-6.849 7.981-91.504 86.256-163.182 178.198-163.182 18.235 0 36.229 2.748 53.483 8.166 3.955 1.244 8.163-.957 9.402-4.908 1.242-3.952-.956-8.162-4.908-9.402-16.34-5.132-33.287-8.053-50.481-8.711v-16.231h23.562c4.142 0 7.5-3.358 7.5-7.5v-31.042c0-4.142-3.358-7.5-7.5-7.5h-62.125c-4.142 0-7.5 3.358-7.5 7.5v31.042c0 4.142 3.358 7.5 7.5 7.5h23.563v16.243c-40.987 1.577-80.138 16.042-112.28 41.373l-17.712-17.713c-2.929-2.929-7.678-2.929-10.606 0l-21.98 21.98c-2.929 2.929-2.929 7.678 0 10.606l17.703 17.703c-23.229 29.469-37.472 65.047-40.762 102.772-.36 4.127 2.693 7.764 6.819 8.124zm162.756-216.088v-16.042h47.125v16.042zm-130.607 82.186 11.374-11.374 11.557 11.557c-.013.012-.026.023-.039.035-3.95 3.64-7.721 7.43-11.329 11.345z" fill="#262e42" data-original="#000000" style=""/><path d="m506.016 356.305-23.886-6.164c-2.134-7.264-5.032-14.263-8.655-20.9l12.529-21.247c1.737-2.946 1.262-6.694-1.156-9.113l-23.589-23.589c-2.42-2.418-6.168-2.896-9.113-1.157l-21.246 12.53c-6.638-3.623-13.637-6.522-20.901-8.656l-6.164-23.885c-.854-3.312-3.842-5.626-7.262-5.626h-9.327c-1.59-41.581-16.366-80.668-41.297-112.318l17.649-17.649c2.928-3.535 2.928-7.071 0-10.606l-21.98-21.98c-3.536-2.929-7.073-2.929-10.608.001l-17.686 17.694c-9.396-7.375-19.543-13.975-30.4-19.641-3.672-1.916-8.203-.492-10.119 3.18s-.492 8.203 3.18 10.119c56.181 29.315 93.597 87.549 96.238 151.201h-9.008c-3.065 0-5.769 1.866-6.915 4.635-1.519-87.537-75.179-159.935-162.754-159.945-88.529 0-162.84 74.236-162.84 162.81 0 114.761 121.579 195.521 227.643 149.372l19.309 4.983c.291.991.599 1.976.919 2.957-110.793 60.107-252.31-16.22-263.249-141.624-.36-4.125-3.981-7.173-8.124-6.82-4.126.36-7.18 3.997-6.82 8.124 11.819 135.489 163.48 218.248 283.871 154.276.66 1.342 1.341 2.674 2.058 3.988l-12.531 21.245c-1.737 2.946-1.262 6.694 1.156 9.113l23.588 23.589c2.417 2.417 6.166 2.894 9.113 1.157l21.247-12.53c6.638 3.623 13.637 6.522 20.901 8.656l6.164 23.885c.854 3.312 3.842 5.626 7.262 5.626h33.359c3.42 0 6.407-2.314 7.262-5.626l6.164-23.885c7.265-2.134 14.264-5.033 20.901-8.656l21.246 12.53c2.947 1.737 6.695 1.261 9.113-1.157l23.589-23.589c2.418-2.418 2.894-6.167 1.156-9.113l-12.529-21.247c3.623-6.637 6.521-13.636 8.655-20.9l23.886-6.164c3.312-.855 5.626-3.842 5.626-7.262v-33.359c.001-3.421-2.313-6.408-5.625-7.263zm-181.208-242.937 11.507-11.512 11.373 11.372-11.512 11.511c-3.625-3.931-7.407-7.733-11.368-11.371zm-71.038 242.937c-3.312.855-5.626 3.842-5.626 7.262v29.812c-15.046 6.001-30.841 9.434-47.125 10.24v-7.841c0-4.142-3.358-7.5-7.5-7.5s-7.5 3.358-7.5 7.5v7.841c-21.45-1.078-41.709-6.749-59.812-16.047l3.912-6.775c2.071-3.587.842-8.174-2.745-10.245-3.588-2.073-8.174-.843-10.245 2.745l-3.896 6.748c-17.481-11.352-32.422-26.293-43.773-43.774l6.747-3.895c3.587-2.071 4.816-6.658 2.745-10.245-2.072-3.588-6.659-4.817-10.245-2.745l-6.774 3.911c-9.297-18.103-14.966-38.362-16.041-59.811h7.836c4.142 0 7.5-3.358 7.5-7.5s-3.358-7.5-7.5-7.5h-7.821c1.08-21.446 6.738-41.705 16.036-59.805l6.763 3.905c3.793 1.966 7.208 1.051 10.245-2.745 2.071-3.587.842-8.174-2.745-10.245l-6.735-3.888c11.352-17.476 26.292-32.414 43.771-43.762l3.885 6.729c3.037 3.796 6.452 4.711 10.245 2.745 3.587-2.071 4.816-6.658 2.745-10.245l-3.9-6.755c18.099-9.294 38.356-14.949 59.8-16.027v7.804c0 4.142 3.358 7.5 7.5 7.5s7.5-3.358 7.5-7.5v-7.818c21.445 1.076 41.701 6.744 59.801 16.039l-3.9 6.755c-2.071 3.587-.842 8.174 2.745 10.245 3.793 1.966 7.208 1.051 10.245-2.745l3.885-6.729c17.479 11.349 32.42 26.287 43.771 43.764l-6.733 3.888c-3.587 2.071-4.816 6.658-2.745 10.245 3.037 3.796 6.452 4.711 10.245 2.745l6.762-3.904c9.299 18.101 14.971 38.358 16.05 59.805h-7.833c-4.143 0-7.5 3.358-7.5 7.5s3.357 7.5 7.5 7.5h7.827c-.309 6.159-.99 12.28-2.049 18.298-3.483 1.443-6.889 3.072-10.204 4.881l-21.247-12.53c-2.947-1.738-6.696-1.261-9.113 1.157l-23.588 23.589c-2.418 2.418-2.894 6.167-1.156 9.113l12.529 21.247c-3.623 6.637-6.521 13.636-8.655 20.9zm242.872 34.812-22.482 5.802c-2.667.688-4.742 2.783-5.405 5.456-2.194 8.842-5.686 17.273-10.379 25.061-1.422 2.359-1.436 5.308-.036 7.681l11.793 20-15.371 15.372-19.999-11.794c-2.372-1.4-5.32-1.386-7.681.036-7.788 4.693-16.22 8.185-25.062 10.379-2.673.663-4.768 2.738-5.455 5.405l-5.803 22.482h-21.738l-5.803-22.482c-.688-2.667-2.782-4.742-5.455-5.405-8.842-2.194-17.273-5.686-25.062-10.379-2.358-1.421-5.307-1.436-7.681-.037l-19.999 11.794-15.372-15.372 11.794-20c1.399-2.373 1.386-5.322-.036-7.681-4.693-7.787-8.185-16.219-10.379-25.061-.663-2.673-2.738-4.768-5.405-5.456l-22.482-5.802v-21.739l22.482-5.802c2.667-.688 4.742-2.783 5.405-5.456 2.194-8.842 5.686-17.273 10.379-25.061 1.422-2.359 1.436-5.308.036-7.681l-11.794-20 15.372-15.372 19.999 11.794c2.373 1.399 5.321 1.385 7.681-.037 7.778-4.687 16.263-8.196 25.062-10.379 2.673-.663 4.768-2.738 5.455-5.405l5.803-22.482h21.738l5.803 22.482c.688 2.667 2.782 4.742 5.455 5.405 8.842 2.194 17.273 5.686 25.062 10.379 2.359 1.421 5.307 1.436 7.681.036l19.999-11.794 15.371 15.372-11.793 20c-1.399 2.373-1.386 5.322.036 7.681 4.693 7.787 8.185 16.219 10.379 25.061.663 2.673 2.738 4.768 5.405 5.456l22.482 5.802z" fill="#262e42" data-original="#000000" style=""/></g><g><path d="m366.884 455.97c-.465 0-.936-.043-1.408-.133-19.928-3.785-37.92-15.663-49.364-32.587-1.65-2.437-3.173-4.994-4.523-7.595-5.653-10.866-8.644-23.111-8.644-35.406 0-42.431 34.52-76.95 76.95-76.95s76.95 34.52 76.95 76.95c0 4.959-.475 9.893-1.411 14.664-2.03 10.551-6.206 20.407-12.403 29.265-9.975 14.329-24.663 24.943-41.351 29.874-3.975 1.174-8.145-1.096-9.317-5.068-1.174-3.973 1.095-8.144 5.067-9.318 13.43-3.967 25.256-12.516 33.3-24.072 4.991-7.134 8.345-15.05 9.979-23.542.756-3.849 1.136-7.811 1.136-11.803 0-34.16-27.791-61.95-61.95-61.95s-61.95 27.791-61.95 61.95c0 10.036 2.34 19.621 6.953 28.488 1.087 2.093 2.31 4.146 3.638 6.107 9.225 13.643 23.709 23.212 39.739 26.257 4.069.773 6.742 4.698 5.969 8.768-.684 3.595-3.83 6.101-7.36 6.101z" fill="#262e42" data-original="#000000" style=""/></g></g></g></svg>
