<?xml version="1.0"?>
<svg xmlns="http://www.w3.org/2000/svg" xmlns:xlink="http://www.w3.org/1999/xlink" xmlns:svgjs="http://svgjs.com/svgjs" version="1.1" width="512" height="512" x="0" y="0" viewBox="0 0 512 512" style="enable-background:new 0 0 512 512" xml:space="preserve" class=""><g><g xmlns="http://www.w3.org/2000/svg"><path d="m499.7 193.742c-7.929-7.715-18.376-11.791-29.471-11.492-21.778.598-39.496 19.128-39.496 41.308v9.083c-18.833 3.53-33.134 20.085-33.134 39.927v33.534c-1.77 1.309-3.452 2.763-5.022 4.373l-65.436 65.441c-7.98 7.727-12.375 18.091-12.375 29.185v91.116c0 8.703 7.08 15.783 15.783 15.783h99.4c8.703 0 15.783-7.08 15.783-15.783v-11.125c0-6.847 2.666-13.284 7.508-18.125l42.006-42.006c10.805-10.804 16.754-25.168 16.754-40.447v-161.647c0-11.065-4.368-21.409-12.3-29.125zm-87.1 78.825c0-11.525 7.647-21.296 18.134-24.511v51.177c-2.918-.668-5.949-1.032-9.066-1.032-3.094 0-6.128.354-9.067 1.02v-26.654zm84.4 111.947c0 11.272-4.39 21.869-12.36 29.84l-42.006 42.005c-7.674 7.675-11.9 17.879-11.9 28.732v11.125c0 .432-.352.783-.783.783h-99.4c-.432 0-.783-.352-.783-.783v-91.116c0-7.012 2.785-13.56 7.842-18.441.032-.031.065-.061.096-.094l65.517-65.521c.024-.024.049-.049.073-.074 4.872-5.01 11.397-7.77 18.373-7.77 14.134 0 25.633 11.499 25.633 25.633 0 6.976-2.76 13.501-7.77 18.373-.025.024-.05.049-.075.074l-42.513 42.517c-2.929 2.929-2.929 7.678.001 10.606 1.464 1.464 3.384 2.196 5.303 2.196s3.839-.732 5.304-2.197l42.478-42.482c7.914-7.716 12.272-18.044 12.272-29.087 0-13.404-6.527-25.308-16.566-32.713v-82.563c0-14.133 11.174-25.936 24.908-26.313 6.992-.216 13.596 2.382 18.599 7.249 5.004 4.868 7.76 11.393 7.76 18.374v161.647z" fill="#262e42" data-original="#000000" style="" class=""/><path d="m429.166 173.167v-132.534c0-22.405-18.227-40.633-40.633-40.633h-265.066c-22.405 0-40.633 18.228-40.633 40.633v27.2c0 4.143 3.358 7.5 7.5 7.5s7.5-3.357 7.5-7.5v-27.2c-.001-14.133 11.498-25.633 25.633-25.633h265.066c14.134 0 25.633 11.499 25.633 25.633v132.534c0 14.134-11.499 25.633-25.633 25.633h-94.967c-5.288 0-10.197 2.627-13.132 7.028l-23.782 35.673c-.064.096-.233.35-.653.35-.419 0-.588-.254-.652-.349l-23.783-35.676c-2.935-4.399-7.844-7.026-13.132-7.026h-94.967c-14.134 0-25.633-11.499-25.633-25.633v-75.333c0-4.143-3.358-7.5-7.5-7.5s-7.5 3.357-7.5 7.5v75.334c0 22.405 18.228 40.633 40.633 40.633h94.967c.263 0 .507.131.652.349l23.782 35.674c2.934 4.4 7.843 7.028 13.132 7.028h.002c5.289 0 10.198-2.627 13.133-7.028l23.782-35.673c.145-.219.39-.35.651-.35h94.967c22.406-.001 40.633-18.228 40.633-40.634z" fill="#262e42" data-original="#000000" style="" class=""/><path d="m289.134 105.998-49.25-49.247c-4.545-4.546-10.589-7.05-17.018-7.05-6.428 0-12.472 2.504-17.018 7.049l-82.833 82.833c-4.546 4.546-7.049 10.59-7.049 17.018 0 6.429 2.503 12.473 7.05 17.019 4.546 4.546 10.589 7.049 17.017 7.049s12.471-2.504 17.017-7.049l65.816-65.815 49.248 49.248c9.383 9.383 24.651 9.383 34.036 0l48.736-48.736c.283-.282.738-.326.991-.098 4.585 4.137 10.51 6.339 16.694 6.176 12.936-.321 23.46-11.323 23.46-24.527v-32.667c0-13.271-10.796-24.067-24.066-24.067h-32.666c-13.203 0-24.205 10.524-24.526 23.458-.153 6.181 2.038 12.109 6.174 16.696.23.256.186.71-.097.992zm42.325-21.112c5.94-5.942 6.217-15.45.629-21.645-1.553-1.722-2.376-3.951-2.317-6.277.12-4.869 4.395-8.831 9.53-8.831h32.666c4.999 0 9.066 4.067 9.066 9.067v32.665c0 5.135-3.962 9.411-8.833 9.531-2.32.068-4.553-.765-6.274-2.318-6.199-5.59-15.706-5.312-21.646.63l-48.736 48.735c-3.535 3.536-9.286 3.535-12.821 0l-54.553-54.55c-2.929-2.928-7.678-2.928-10.606 0l-71.119 71.118c-1.713 1.713-3.989 2.656-6.411 2.656s-4.698-.943-6.411-2.656c-1.713-1.712-2.656-3.989-2.656-6.411 0-2.421.943-4.698 2.656-6.41l82.833-82.833c1.712-1.713 3.989-2.656 6.411-2.656 2.421 0 4.698.943 6.411 2.656l54.554 54.551c2.928 2.928 7.677 2.928 10.606 0z" fill="#262e42" data-original="#000000" style="" class=""/><path d="m119.422 310.474c-1.57-1.61-3.252-3.064-5.022-4.374v-33.534c0-19.842-14.3-36.397-33.133-39.927v-9.083c0-22.18-17.718-40.71-39.497-41.308-11.067-.306-21.541 3.778-29.47 11.492-7.932 7.718-12.3 18.062-12.3 29.127v161.647c0 15.278 5.95 29.643 16.753 40.447l42.005 42.005c4.841 4.841 7.508 11.278 7.508 18.125v11.125c0 8.703 7.08 15.783 15.783 15.783 4.142 0 7.5-3.357 7.5-7.5s-3.358-7.5-7.5-7.5c-.432 0-.783-.352-.783-.783v-11.125c0-10.854-4.227-21.058-11.901-28.732l-42.005-42.004c-7.97-7.972-12.36-18.569-12.36-29.841v-161.647c0-6.979 2.756-13.505 7.76-18.374 5.001-4.866 11.595-7.451 18.599-7.249 13.734.377 24.908 12.181 24.908 26.313v82.563c-10.04 7.406-16.567 19.31-16.567 32.713 0 11.043 4.357 21.371 12.271 29.087l42.479 42.482c1.465 1.465 3.384 2.197 5.304 2.197 1.919 0 3.839-.732 5.303-2.196 2.929-2.929 2.929-7.678.001-10.606l-42.513-42.517c-.025-.025-.05-.05-.075-.074-5.01-4.872-7.77-11.397-7.77-18.373 0-14.134 11.499-25.633 25.633-25.633 6.976 0 13.501 2.76 18.373 7.77.024.025.049.05.074.074l65.517 65.521c.031.032.062.062.095.094 5.057 4.881 7.842 11.431 7.842 18.441v91.116c0 .432-.352.783-.783.783h-54.745c-4.142 0-7.5 3.357-7.5 7.5s3.358 7.5 7.5 7.5h54.745c7.615 0 13.988-5.421 15.462-12.606.211-1.027.321-2.089.321-3.177v-91.116c0-11.095-4.395-21.457-12.375-29.185zm-38.155-11.241v-51.177c10.486 3.215 18.133 12.986 18.133 24.511v26.654c-2.939-.667-5.973-1.02-9.066-1.02-3.118 0-6.15.364-9.067 1.032z" fill="#262e42" data-original="#000000" style="" class=""/></g></g></svg>
