<svg xmlns="http://www.w3.org/2000/svg" xmlns:xlink="http://www.w3.org/1999/xlink" width="683.085" height="425.525" viewBox="0 0 683.085 425.525">
  <defs>
    <clipPath id="clip-path">
      <rect id="Rectangle_2093" data-name="Rectangle 2093" width="487.935" height="353.446"/>
    </clipPath>
  </defs>
  <g id="OBJECTS" transform="translate(-55.126 -35.305)">
    <g id="Group_12549" data-name="Group 12549" transform="translate(56.11 35.305)">
      <g id="Group_12537" data-name="Group 12537" transform="translate(0 96.295)">
        <g id="Group_12521" data-name="Group 12521" transform="translate(74.227)">
          <g id="Group_12520" data-name="Group 12520">
            <line id="Line_565" data-name="Line 565" x2="530.534" transform="translate(0 34.778)" fill="none" stroke="#ded8d5" stroke-miterlimit="10" stroke-width="1.968"/>
            <path id="Path_38710" data-name="Path 38710" d="M649.581,454.19H132.9a6.928,6.928,0,0,1-6.928-6.928V132.871a6.928,6.928,0,0,1,6.928-6.928H649.581a6.928,6.928,0,0,1,6.928,6.928v314.39A6.927,6.927,0,0,1,649.581,454.19Z" transform="translate(-125.977 -125.943)" fill="none" stroke="#ded8d5" stroke-miterlimit="10" stroke-width="1.968"/>
            <g id="Group_12519" data-name="Group 12519" transform="translate(25.258 12.891)">
              <circle id="Ellipse_698" data-name="Ellipse 698" cx="4.853" cy="4.853" r="4.853" fill="#ffb1a5"/>
              <circle id="Ellipse_699" data-name="Ellipse 699" cx="4.853" cy="4.853" r="4.853" transform="translate(18.861)" fill="#ead254"/>
              <circle id="Ellipse_700" data-name="Ellipse 700" cx="4.853" cy="4.853" r="4.853" transform="translate(37.721)" fill="#00857b"/>
            </g>
          </g>
        </g>
        <g id="Group_12530" data-name="Group 12530" transform="translate(542.63 23.872)">
          <g id="Group_12524" data-name="Group 12524">
            <g id="Group_12523" data-name="Group 12523">
              <g id="Group_12522" data-name="Group 12522">
                <path id="Path_38711" data-name="Path 38711" d="M697.916,276.459H573.23a6.365,6.365,0,0,1-6.365-6.365V154.778a6.365,6.365,0,0,1,6.365-6.365H697.915a6.365,6.365,0,0,1,6.365,6.365V270.094A6.364,6.364,0,0,1,697.916,276.459Z" transform="translate(-566.865 -148.413)" fill="#ededed"/>
                <path id="Path_38712" data-name="Path 38712" d="M697.916,276.459H573.23a6.365,6.365,0,0,1-6.365-6.365V154.778a6.365,6.365,0,0,1,6.365-6.365H697.915a6.365,6.365,0,0,1,6.365,6.365V270.094A6.364,6.364,0,0,1,697.916,276.459Z" transform="translate(-566.865 -148.413)" fill="none" stroke="#ded8d5" stroke-miterlimit="10" stroke-width="1.968"/>
              </g>
            </g>
          </g>
          <g id="Group_12529" data-name="Group 12529" transform="translate(30.112 28.832)">
            <g id="Group_12527" data-name="Group 12527">
              <g id="Group_12526" data-name="Group 12526">
                <g id="Group_12525" data-name="Group 12525">
                  <path id="Path_38713" data-name="Path 38713" d="M601.6,241.455h64.806a6.4,6.4,0,0,0,6.4-6.4V181.948a6.4,6.4,0,0,0-6.4-6.4H601.6a6.4,6.4,0,0,0-6.4,6.4v53.111A6.4,6.4,0,0,0,601.6,241.455Z" transform="translate(-595.208 -175.551)" fill="#8b93a7"/>
                </g>
              </g>
            </g>
            <g id="Group_12528" data-name="Group 12528" transform="translate(20.691 19.894)">
              <path id="Path_38714" data-name="Path 38714" d="M650.495,218.292H614.684V194.276h35.811v24.016Z" transform="translate(-614.684 -194.276)" fill="none" stroke="#fff" stroke-linecap="round" stroke-linejoin="round" stroke-miterlimit="10" stroke-width="1.647"/>
              <path id="Path_38715" data-name="Path 38715" d="M614.684,194.276l17.9,14.111,17.906-14.111" transform="translate(-614.684 -194.276)" fill="none" stroke="#fff" stroke-linecap="round" stroke-linejoin="round" stroke-miterlimit="10" stroke-width="1.647"/>
            </g>
          </g>
        </g>
        <g id="Group_12536" data-name="Group 12536" transform="translate(0 132.664)">
          <g id="Group_12533" data-name="Group 12533">
            <g id="Group_12532" data-name="Group 12532">
              <g id="Group_12531" data-name="Group 12531">
                <path id="Path_38716" data-name="Path 38716" d="M181.092,366.628H62.181a6.071,6.071,0,0,1-6.071-6.071V256.884a6.07,6.07,0,0,1,6.071-6.07H181.092a6.07,6.07,0,0,1,6.07,6.07V360.558A6.07,6.07,0,0,1,181.092,366.628Z" transform="translate(-56.11 -250.814)" fill="#ededed"/>
                <path id="Path_38717" data-name="Path 38717" d="M181.092,366.628H62.181a6.071,6.071,0,0,1-6.071-6.071V256.884a6.07,6.07,0,0,1,6.071-6.07H181.092a6.07,6.07,0,0,1,6.07,6.07V360.558A6.07,6.07,0,0,1,181.092,366.628Z" transform="translate(-56.11 -250.814)" fill="none" stroke="#ded8d5" stroke-miterlimit="10" stroke-width="1.968"/>
              </g>
            </g>
          </g>
          <g id="Group_12535" data-name="Group 12535" transform="translate(27.327 19.834)">
            <path id="Path_38718" data-name="Path 38718" d="M150.558,343.15H88.886a7.055,7.055,0,0,1-7.054-7.054v-59.56a7.054,7.054,0,0,1,7.054-7.053h61.672a7.054,7.054,0,0,1,7.054,7.053V336.1A7.055,7.055,0,0,1,150.558,343.15Z" transform="translate(-81.832 -269.483)" fill="#6d7da4"/>
            <g id="Group_12534" data-name="Group 12534" transform="translate(16.961 16.132)">
              <path id="Path_38719" data-name="Path 38719" d="M104.038,290.908a21.426,21.426,0,1,0,30.3,0A21.511,21.511,0,0,0,104.038,290.908Zm30.251,3.085H127.46a43.453,43.453,0,0,0-2.655-6.435A19.363,19.363,0,0,1,134.289,293.993ZM111.32,304.8a34.593,34.593,0,0,1,1.016-8.306h13.705a34.592,34.592,0,0,1,1.015,8.306Zm15.65,2.505a40.753,40.753,0,0,1-1.472,8.306H112.876a40.728,40.728,0,0,1-1.472-8.306Zm-7.783-20.582a19.459,19.459,0,0,1,3.027.236,39.368,39.368,0,0,1,3.106,7.029H113.054a39.368,39.368,0,0,1,3.106-7.029A19.6,19.6,0,0,1,119.188,286.728Zm-5.617.831a43.456,43.456,0,0,0-2.655,6.435h-6.828A19.339,19.339,0,0,1,113.571,287.559Zm-11.186,8.94h7.82a37.19,37.19,0,0,0-1.1,8.306H99.9A19.233,19.233,0,0,1,102.384,296.5Zm0,19.118a19.2,19.2,0,0,1-2.485-8.306h9.248a40.21,40.21,0,0,0,1.3,8.306Zm1.7,2.505h7.105a52.133,52.133,0,0,0,2.64,6.513A19.347,19.347,0,0,1,104.088,318.122Zm15.1,7.265a19.5,19.5,0,0,1-2.532-.165,57.669,57.669,0,0,1-3-7.1h11.056a58,58,0,0,1-3,7.1A19.529,19.529,0,0,1,119.188,325.387Zm5.356-.752a51.747,51.747,0,0,0,2.64-6.513h7.105A19.347,19.347,0,0,1,124.543,324.635Zm11.447-9.018h-8.068a40.2,40.2,0,0,0,1.3-8.306h9.248A19.208,19.208,0,0,1,135.991,315.617Zm2.485-10.812h-9.21a37.253,37.253,0,0,0-1.1-8.306h7.82A19.218,19.218,0,0,1,138.476,304.8Z" transform="translate(-97.797 -284.667)" fill="#fff"/>
            </g>
          </g>
        </g>
      </g>
      <g id="Group_12548" data-name="Group 12548" transform="translate(6.138)">
        <path id="Path_38720" data-name="Path 38720" d="M173.644,97.905H65.917a4.029,4.029,0,0,1-4.03-4.03h0a4.029,4.029,0,0,1,4.03-4.03H173.643a4.029,4.029,0,0,1,4.03,4.03h0A4.028,4.028,0,0,1,173.644,97.905Z" transform="translate(-61.887 -31.901)" fill="#c7cbd5"/>
        <path id="Path_38721" data-name="Path 38721" d="M697.658,345.589H645.372a4.029,4.029,0,0,1-4.03-4.03h0a4.029,4.029,0,0,1,4.03-4.03h52.286a4.03,4.03,0,0,1,4.03,4.03h0A4.03,4.03,0,0,1,697.658,345.589Z" transform="translate(-25.724 -16.444)" fill="#6d7da4"/>
        <path id="Path_38722" data-name="Path 38722" d="M660.435,389.7h-6.389a3.04,3.04,0,0,1-3.04-3.04v-6a3.04,3.04,0,0,1,3.04-3.04h6.389a3.04,3.04,0,0,1,3.04,3.04v6A3.04,3.04,0,0,1,660.435,389.7Z" transform="translate(-25.121 -13.942)" fill="#8b93a7"/>
        <path id="Path_38723" data-name="Path 38723" d="M90.387,415.98H84a3.04,3.04,0,0,1-3.04-3.04v-6A3.04,3.04,0,0,1,84,403.9h6.389a3.04,3.04,0,0,1,3.04,3.04v6A3.038,3.038,0,0,1,90.387,415.98Z" transform="translate(-60.697 -12.302)" fill="#c7cbd5"/>
        <g id="Group_12540" data-name="Group 12540" transform="translate(409.16 29.481)">
          <g id="Group_12539" data-name="Group 12539">
            <path id="Path_38724" data-name="Path 38724" d="M556.542,95.415H450.213a3.2,3.2,0,0,1-3.2-3.2V66.254a3.2,3.2,0,0,1,3.2-3.2H556.542a3.2,3.2,0,0,1,3.2,3.2V92.215A3.2,3.2,0,0,1,556.542,95.415Z" transform="translate(-447.012 -63.054)" fill="#d0d7e8"/>
            <g id="Group_12538" data-name="Group 12538" transform="translate(15.356 11.531)">
              <line id="Line_566" data-name="Line 566" x2="75.62" fill="none" stroke="#fff" stroke-miterlimit="10" stroke-width="1.18"/>
              <line id="Line_567" data-name="Line 567" x2="30.8" transform="translate(0 7.761)" fill="none" stroke="#fff" stroke-miterlimit="10" stroke-width="1.18"/>
            </g>
          </g>
          <path id="Path_38725" data-name="Path 38725" d="M458.57,90.068V102.68l15.862-12.612Z" transform="translate(-446.291 -61.368)" fill="#d0d7e8"/>
        </g>
        <g id="Group_12547" data-name="Group 12547" transform="translate(196.927)">
          <g id="Group_12545" data-name="Group 12545">
            <g id="Group_12544" data-name="Group 12544">
              <g id="Group_12543" data-name="Group 12543">
                <g id="Group_12542" data-name="Group 12542">
                  <g id="Group_12541" data-name="Group 12541">
                    <path id="Path_38726" data-name="Path 38726" d="M307.77,99.072H256.3a9.053,9.053,0,0,1-9.053-9.053V42.167a6.862,6.862,0,0,1,6.862-6.862h53.661a6.862,6.862,0,0,1,6.862,6.862V92.21A6.859,6.859,0,0,1,307.77,99.072Z" transform="translate(-247.246 -35.305)" fill="#92a6d8"/>
                  </g>
                </g>
              </g>
            </g>
          </g>
          <g id="Group_12546" data-name="Group 12546" transform="translate(19.249 14.124)">
            <path id="Path_38727" data-name="Path 38727" d="M295.535,71.073,291.7,67.237a3.366,3.366,0,0,0-2.467-1.165,3.553,3.553,0,0,0-2.467,1.1l-2.193,2.193-.411-.205a6.32,6.32,0,0,1-.685-.342,23.673,23.673,0,0,1-5.687-5.208,12.451,12.451,0,0,1-1.782-2.809c.548-.48,1.027-1.028,1.508-1.508l.616-.617a3.34,3.34,0,0,0,0-5.07l-1.919-1.919a6.239,6.239,0,0,1-.617-.685l-1.3-1.3a3.553,3.553,0,0,0-2.467-1.1,3.393,3.393,0,0,0-2.467,1.1l-2.4,2.4a5.512,5.512,0,0,0-1.576,3.357,12.491,12.491,0,0,0,.89,5.208,28.053,28.053,0,0,0,5.344,8.976A33.311,33.311,0,0,0,282.583,78.2a18.19,18.19,0,0,0,6.167,1.85h.479a5.44,5.44,0,0,0,4.112-1.782l.068-.068a10.466,10.466,0,0,1,1.233-1.233c.274-.274.616-.617.89-.89A3.437,3.437,0,0,0,295.535,71.073Zm-1.577,3.563-.822.822c-.48.411-.89.89-1.371,1.371a3.257,3.257,0,0,1-2.467,1.028h-.342a14.443,14.443,0,0,1-5.345-1.645A31.184,31.184,0,0,1,273.4,68.2a29.734,29.734,0,0,1-5-8.291,8.476,8.476,0,0,1-.821-4.249,2.888,2.888,0,0,1,.959-1.987l2.33-2.33a1.437,1.437,0,0,1,.959-.479,1.308,1.308,0,0,1,.959.479l1.233,1.233a6.412,6.412,0,0,0,.685.685l1.919,1.919a1.612,1.612,0,0,1,.479.959,1.44,1.44,0,0,1-.479.959l-.617.617c-.617.617-1.165,1.164-1.713,1.713l-.068.068a1.5,1.5,0,0,0-.411,1.713v.068a15.848,15.848,0,0,0,2.261,3.7,25.419,25.419,0,0,0,6.235,5.687,5.7,5.7,0,0,0,.89.479,6.416,6.416,0,0,1,.685.343l.068.068a1.576,1.576,0,0,0,1.919-.342l2.4-2.4a1.13,1.13,0,0,1,1.85,0l3.837,3.836A1.3,1.3,0,0,1,293.959,74.636Z" transform="translate(-265.364 -48.599)" fill="#fff"/>
          </g>
        </g>
      </g>
    </g>
    <g id="Group_12609" data-name="Group 12609" transform="translate(179.206 105.543)">
      <g id="Group_12608" data-name="Group 12608" clip-path="url(#clip-path)">
        <g id="Group_12570" data-name="Group 12570" transform="translate(276.512 20.4)">
          <g id="Group_12550" data-name="Group 12550" transform="translate(5.951 209.404)">
            <path id="Path_38728" data-name="Path 38728" d="M519.776,322.885,481,317.722l.3,3.851-33.157,4.414s-21.371,53.62-2.536,171.542h26.971l9.707-119.573h3.447l9.4,119.573H522.1C540.941,379.607,519.776,322.885,519.776,322.885Z" transform="translate(-437.845 -317.722)" fill="#c7cbd5"/>
            <line id="Line_568" data-name="Line 568" x2="28.141" transform="translate(32.107 60.234)" fill="none" stroke="#8b93a7" stroke-linecap="round" stroke-linejoin="round" stroke-miterlimit="10" stroke-width="1.233"/>
          </g>
          <g id="Group_12559" data-name="Group 12559" transform="translate(0 105.287)">
            <g id="Group_12556" data-name="Group 12556" transform="translate(86.073 32.343)">
              <g id="Group_12552" data-name="Group 12552" transform="translate(0 15.143)">
                <g id="Group_12551" data-name="Group 12551">
                  <path id="Path_38729" data-name="Path 38729" d="M537.716,269.648c-3.318-5.3-21.955-5.109-22.938-5.224-5.038-.591,3.231,39.5,13.711,74.546a11.766,11.766,0,0,0,15.859,7.48l.209-.088a11.782,11.782,0,0,0,6.985-13.037C546.559,306.881,541.553,275.771,537.716,269.648Z" transform="translate(-513.261 -264.418)" fill="#ffb1a5"/>
                </g>
                <path id="Path_38730" data-name="Path 38730" d="M541.989,283.468,518.194,292.7l-2.23-11.289,24.638-6.146Z" transform="translate(-513.092 -263.741)" fill="#f3978e"/>
                <path id="Path_38731" data-name="Path 38731" d="M545.322,304.834s-11.272,15.138-10.735,14.442,8.839-24.464,8.839-24.464Z" transform="translate(-511.931 -262.521)" fill="#f3978e"/>
              </g>
              <g id="Group_12555" data-name="Group 12555" transform="translate(14.721)">
                <path id="Path_38732" data-name="Path 38732" d="M561.9,285.093l-32.31,41.862a11.88,11.88,0,0,0,2.937,17.224h0a11.88,11.88,0,0,0,16.914-4.3l26.894-49.62Z" transform="translate(-527.117 -247.985)" fill="#ffb1a5"/>
                <g id="Group_12553" data-name="Group 12553" transform="translate(33.919 19.444)">
                  <circle id="Ellipse_701" data-name="Ellipse 701" cx="13.328" cy="13.328" r="13.328" transform="translate(0 2.403)" fill="#ffb1a5"/>
                  <path id="Path_38733" data-name="Path 38733" d="M582.05,276.185s3.648-3.786-2.823-6.441S564.757,267.7,559.65,280.1Z" transform="translate(-559.005 -268.466)" fill="#ffb1a5"/>
                </g>
                <g id="Group_12554" data-name="Group 12554" transform="translate(42.271)">
                  <path id="Path_38734" data-name="Path 38734" d="M588.225,250.838l13.529,5.866a1.4,1.4,0,0,1,.611,1.994l-17.8,33.243a1.7,1.7,0,0,1-2.113.812l-13.529-5.866a1.4,1.4,0,0,1-.612-1.993l17.8-33.244A1.7,1.7,0,0,1,588.225,250.838Z" transform="translate(-566.829 -250.13)" fill="#372f5f"/>
                  <path id="Path_38735" data-name="Path 38735" d="M587.009,250.284l13.528,5.866a1.394,1.394,0,0,1,.612,1.993l-17.8,33.243a1.7,1.7,0,0,1-2.113.813l-13.528-5.866a1.393,1.393,0,0,1-.612-1.993L584.9,251.1A1.7,1.7,0,0,1,587.009,250.284Z" transform="translate(-566.904 -250.164)" fill="#261b43"/>
                  <path id="Path_38736" data-name="Path 38736" d="M585.244,253.461l11.886,5.155-14.5,27.091-11.887-5.153Z" transform="translate(-566.665 -249.959)" fill="#e6e6e6"/>
                  <path id="Path_38737" data-name="Path 38737" d="M597.13,258.616l-26.391,21.939,14.505-27.094Z" transform="translate(-566.665 -249.959)" fill="#fff"/>
                </g>
                <path id="Path_38738" data-name="Path 38738" d="M575.06,268.631a21.565,21.565,0,0,1,5.731,2.128,3.06,3.06,0,0,1,1.48,3.4h0a3.039,3.039,0,0,1-2.569,2.281l-7.033.887s-3.669,6.325-8.464,7.034l4.4-11.1Z" transform="translate(-524.802 -249.012)" fill="#ffb1a5"/>
              </g>
            </g>
            <g id="Group_12558" data-name="Group 12558">
              <g id="Group_12557" data-name="Group 12557">
                <path id="Path_38739" data-name="Path 38739" d="M493.474,219.721c-.776,0,49.876,7.009,58.234,64.759l-26.284,4.027-5.3,43.6H446.8l-14.557-80.551s16.245-23.282,46.408-31.832h14.822Z" transform="translate(-432.244 -219.721)" fill="#6d7da4"/>
                <line id="Line_569" data-name="Line 569" y1="25.215" x2="2.282" transform="translate(93.18 43.57)" fill="none" stroke="#8b93a7" stroke-linecap="round" stroke-linejoin="round" stroke-miterlimit="10" stroke-width="1.233"/>
              </g>
            </g>
          </g>
          <g id="Group_12569" data-name="Group 12569" transform="translate(22.831)">
            <path id="Path_38740" data-name="Path 38740" d="M496.16,221.676V201.617H472.653v20.3a45.745,45.745,0,0,0-6.315,2.561L484.672,235.4l18.744-10.922A30.491,30.491,0,0,0,496.16,221.676Z" transform="translate(-452.947 -115.564)" fill="#ffb1a5"/>
            <path id="Path_38741" data-name="Path 38741" d="M472.077,204.287s4.222,11.209,15.491,10.242c10.358-.889,8.71-16.424,8.71-16.424Z" transform="translate(-452.589 -115.783)" fill="#282828"/>
            <g id="Group_12562" data-name="Group 12562" transform="translate(0 59.515)">
              <path id="Path_38742" data-name="Path 38742" d="M462.971,190.718c-3.685,3.342-11.924-9.334-8.363-12.893s6.276,2.025,6.276,2.025l1.589,3.784,1.2,5.125.285,1.342Z" transform="translate(-453.734 -176.638)" fill="#f3978e"/>
              <g id="Group_12561" data-name="Group 12561" transform="translate(2.594 5.493)">
                <g id="Group_12560" data-name="Group 12560">
                  <path id="Path_38743" data-name="Path 38743" d="M456.175,181.993s2.789-1.255,5.266,2.789" transform="translate(-456.175 -181.809)" fill="none" stroke="#282828" stroke-linecap="round" stroke-linejoin="round" stroke-miterlimit="10" stroke-width="0.993"/>
                </g>
              </g>
            </g>
            <g id="Group_12565" data-name="Group 12565" transform="translate(51.878 59.676)">
              <path id="Path_38744" data-name="Path 38744" d="M503.495,190.324c3.389,3.642,12.67-8.292,9.424-12.14s-6.424,1.486-6.424,1.486l-1.9,3.636-1.629,5.005-.4,1.313Z" transform="translate(-502.564 -176.79)" fill="#f3978e"/>
              <g id="Group_12564" data-name="Group 12564" transform="translate(2.777 5.439)">
                <g id="Group_12563" data-name="Group 12563">
                  <path id="Path_38745" data-name="Path 38745" d="M510.662,182.194s-2.673-1.485-5.484,2.333" transform="translate(-505.178 -181.909)" fill="none" stroke="#282828" stroke-linecap="round" stroke-linejoin="round" stroke-miterlimit="10" stroke-width="0.993"/>
                </g>
              </g>
            </g>
            <g id="Group_12566" data-name="Group 12566" transform="translate(2.774 20.415)">
              <path id="Path_38746" data-name="Path 38746" d="M456.345,168.03c0,16.78,12.793,24.737,28.575,24.737s28.574-7.956,28.574-24.737-12.793-28.2-28.574-28.2S456.345,151.249,456.345,168.03Z" transform="translate(-456.345 -139.835)" fill="#282828"/>
            </g>
            <path id="Path_38747" data-name="Path 38747" d="M460,168.97a114.772,114.772,0,0,0,2.908,25.5c1.423,6.177,5.425,10.493,11.082,13.967l1.031.633a19.447,19.447,0,0,0,19.795.219h0c6.129-3.573,10.42-8.284,11.741-14.912a167.688,167.688,0,0,0,2.664-25.407s2.285-26-24.258-25.5S460,168.97,460,168.97Z" transform="translate(-453.344 -119.193)" fill="#ffb1a5"/>
            <g id="Group_12568" data-name="Group 12568" transform="translate(7.047 48.862)">
              <path id="Path_38748" data-name="Path 38748" d="M481.648,181.441v3.6a1.548,1.548,0,0,0,2.027,1.488l1.65-.438" transform="translate(-459.039 -165.685)" fill="none" stroke="#282828" stroke-linecap="round" stroke-linejoin="round" stroke-miterlimit="10" stroke-width="1.232"/>
              <path id="Path_38749" data-name="Path 38749" d="M478.451,168.413,465.259,171.5s.6-3.357,6-4.578S478.451,168.413,478.451,168.413Z" transform="translate(-460.062 -166.611)" fill="#282828"/>
              <path id="Path_38750" data-name="Path 38750" d="M488.7,168.413l12.737,3.092s-.579-3.357-5.79-4.578S488.7,168.413,488.7,168.413Z" transform="translate(-458.599 -166.611)" fill="#282828"/>
              <ellipse id="Ellipse_702" data-name="Ellipse 702" cx="2.225" cy="2.218" rx="2.225" ry="2.218" transform="translate(11.152 9.274)" fill="#282828"/>
              <ellipse id="Ellipse_703" data-name="Ellipse 703" cx="2.225" cy="2.218" rx="2.225" ry="2.218" transform="translate(32.243 9.274)" fill="#282828"/>
              <path id="Path_38751" data-name="Path 38751" d="M475.052,190.171h17.156S484.6,199.421,475.052,190.171Z" transform="translate(-459.451 -165.14)" fill="#fff"/>
              <g id="Group_12567" data-name="Group 12567" transform="translate(0 2.893)">
                <circle id="Ellipse_704" data-name="Ellipse 704" cx="9.461" cy="9.461" r="9.461" transform="translate(2.98)" fill="none" stroke="#c98bd2" stroke-miterlimit="10" stroke-width="1.342"/>
                <circle id="Ellipse_705" data-name="Ellipse 705" cx="9.461" cy="9.461" r="9.461" transform="translate(26.221)" fill="none" stroke="#c98bd2" stroke-miterlimit="10" stroke-width="1.342"/>
                <path id="Path_38752" data-name="Path 38752" d="M480.981,178.294s2.241-2.092,4.32,0" transform="translate(-459.081 -168.833)" fill="none" stroke="#c98bd2" stroke-miterlimit="10" stroke-width="1.342"/>
                <line id="Line_570" data-name="Line 570" x1="2.98" y1="0.075" transform="translate(0 9.385)" fill="none" stroke="#c98bd2" stroke-miterlimit="10" stroke-width="1.342"/>
                <line id="Line_571" data-name="Line 571" y1="0.075" x2="2.999" transform="translate(45.142 9.385)" fill="none" stroke="#c98bd2" stroke-miterlimit="10" stroke-width="1.342"/>
              </g>
            </g>
            <path id="Path_38753" data-name="Path 38753" d="M506.508,177.284S495.9,162.937,498.344,148.4a20.91,20.91,0,0,1,9.928,14.195C510.324,172.829,506.508,177.284,506.508,177.284Z" transform="translate(-450.973 -118.885)" fill="#282828"/>
            <path id="Path_38754" data-name="Path 38754" d="M460.07,178.313s12.328-16.3,9.88-30.83a24.265,24.265,0,0,0-10.6,15.171C457.3,172.886,460.07,178.313,460.07,178.313Z" transform="translate(-453.431 -118.942)" fill="#282828"/>
            <path id="Path_38755" data-name="Path 38755" d="M508.16,154.5s-13.626,14.918-50.911,12.364c0,0,5.709-21.891,23.778-24.223C481.027,142.638,501.89,140.146,508.16,154.5Z" transform="translate(-453.514 -119.255)" fill="#282828"/>
            <circle id="Ellipse_706" data-name="Ellipse 706" cx="17.802" cy="17.802" r="17.802" transform="translate(35.887)" fill="#282828"/>
          </g>
        </g>
        <g id="Group_12584" data-name="Group 12584" transform="translate(28.195 37.672)">
          <path id="Path_38756" data-name="Path 38756" d="M304.528,323.03l-33.156-4.414.3-3.851L232.9,319.927s-21.165,56.721-2.329,174.644h26.971L266.941,375h3.448L280.1,494.571h26.971C325.9,376.648,304.528,323.03,304.528,323.03Z" transform="translate(-197 -125.774)" fill="#8b93a7"/>
          <g id="Group_12579" data-name="Group 12579" transform="translate(19.281)">
            <path id="Path_38757" data-name="Path 38757" d="M302.263,172.693a61.124,61.124,0,0,1-11.134-20.081c-3.279-9.277-14.012-5.506-14.012-5.506s-8.944-11.507-22.4-7.5-18.136,13.586-18.41,24.973-9.23,13.169-16.128,26.341c-12.175,23.256,8.324,42.844,45.64,37.41l.05-.362a39.159,39.159,0,0,0,13.676,1.277C324.37,226.584,320.044,193.611,302.263,172.693Z" transform="translate(-216.662 -136.758)" fill="#282828"/>
            <g id="Group_12573" data-name="Group 12573" transform="translate(69.939 39.101)">
              <path id="Path_38758" data-name="Path 38758" d="M283.479,187.76c3.684,3.342,11.923-9.334,8.363-12.893s-6.276,2.025-6.276,2.025l-1.589,3.784-1.2,5.125-.286,1.342Z" transform="translate(-282.492 -173.68)" fill="#f3978e"/>
              <g id="Group_12572" data-name="Group 12572" transform="translate(2.362 5.492)">
                <g id="Group_12571" data-name="Group 12571">
                  <path id="Path_38759" data-name="Path 38759" d="M289.982,179.034s-2.789-1.255-5.267,2.789" transform="translate(-284.715 -178.85)" fill="none" stroke="#282828" stroke-linecap="round" stroke-linejoin="round" stroke-miterlimit="10" stroke-width="0.993"/>
                </g>
              </g>
            </g>
            <g id="Group_12576" data-name="Group 12576" transform="translate(17.251 39.263)">
              <path id="Path_38760" data-name="Path 38760" d="M243,187.366c-3.389,3.642-12.67-8.292-9.424-12.139S240,176.713,240,176.713l1.9,3.636,1.629,5.005.4,1.313Z" transform="translate(-232.9 -173.833)" fill="#f3978e"/>
              <g id="Group_12575" data-name="Group 12575" transform="translate(2.771 5.438)">
                <g id="Group_12574" data-name="Group 12574">
                  <path id="Path_38761" data-name="Path 38761" d="M235.508,179.236s2.673-1.486,5.484,2.333" transform="translate(-235.508 -178.951)" fill="none" stroke="#282828" stroke-linecap="round" stroke-linejoin="round" stroke-miterlimit="10" stroke-width="0.993"/>
                </g>
              </g>
            </g>
            <g id="Group_12577" data-name="Group 12577" transform="translate(20.238)">
              <path id="Path_38762" data-name="Path 38762" d="M292.86,165.071c0,16.78-12.794,24.737-28.575,24.737s-28.574-7.956-28.574-24.737,12.794-28.2,28.574-28.2S292.86,148.292,292.86,165.071Z" transform="translate(-235.711 -136.876)" fill="#282828"/>
            </g>
            <rect id="Rectangle_2091" data-name="Rectangle 2091" width="23.507" height="30.439" transform="translate(36.949 65.639)" fill="#ffb1a5"/>
            <path id="Path_38763" data-name="Path 38763" d="M248.211,196.872s6.543,13.059,14.593,15.1a11.339,11.339,0,0,0,6.521-.376c3.03-1.074,6.872-5.591,7.525-10.59l.3-2.856S262.83,205.947,248.211,196.872Z" transform="translate(-214.693 -133.132)" fill="#282828"/>
            <path id="Path_38764" data-name="Path 38764" d="M288.742,166.012a114.77,114.77,0,0,1-2.908,25.5c-1.423,6.177-5.425,10.493-11.082,13.967l-1.031.633a19.449,19.449,0,0,1-19.795.22h0c-6.129-3.573-10.42-8.284-11.741-14.912a167.69,167.69,0,0,1-2.665-25.407s-2.285-26,24.259-25.5S288.742,166.012,288.742,166.012Z" transform="translate(-215.238 -136.649)" fill="#ffb1a5"/>
            <g id="Group_12578" data-name="Group 12578" transform="translate(30.853 29.568)">
              <path id="Path_38765" data-name="Path 38765" d="M260.938,179.808v2.138a1.546,1.546,0,0,0,2.027,1.484l1.65-.437" transform="translate(-244.751 -163.765)" fill="none" stroke="#282828" stroke-linecap="round" stroke-linejoin="round" stroke-miterlimit="10" stroke-width="1.23"/>
              <path id="Path_38766" data-name="Path 38766" d="M266.144,166.654,280.266,170s-.642-3.629-6.419-4.948S266.144,166.654,266.144,166.654Z" transform="translate(-244.426 -164.707)" fill="#282828"/>
              <path id="Path_38767" data-name="Path 38767" d="M260.005,166.654,245.7,170s.65-3.629,6.5-4.948S260.005,166.654,260.005,166.654Z" transform="translate(-245.702 -164.707)" fill="#282828"/>
              <ellipse id="Ellipse_707" data-name="Ellipse 707" cx="2.225" cy="2.213" rx="2.225" ry="2.213" transform="translate(4.73 8.499)" fill="#282828"/>
              <ellipse id="Ellipse_708" data-name="Ellipse 708" cx="2.225" cy="2.213" rx="2.225" ry="2.213" transform="translate(25.821 8.499)" fill="#282828"/>
              <path id="Path_38768" data-name="Path 38768" d="M252.959,186.7h19.526s-1.378,5.365-10.232,5.365A10.356,10.356,0,0,1,252.959,186.7Z" transform="translate(-245.249 -163.335)" fill="#fff"/>
            </g>
            <path id="Path_38769" data-name="Path 38769" d="M239.98,174.326s10.612-14.348,8.165-28.883a20.91,20.91,0,0,0-9.928,14.195C236.165,169.87,239.98,174.326,239.98,174.326Z" transform="translate(-215.354 -136.341)" fill="#282828"/>
            <path id="Path_38770" data-name="Path 38770" d="M286.464,173.9s-12.328-14.845-9.88-29.38a24.273,24.273,0,0,1,10.6,15.171C289.237,169.927,286.464,173.9,286.464,173.9Z" transform="translate(-212.942 -136.399)" fill="#282828"/>
            <path id="Path_38771" data-name="Path 38771" d="M240.679,151.538s12.177,16.367,49.46,13.814c0,0-4.259-23.341-22.328-25.673C267.812,139.68,246.949,137.188,240.679,151.538Z" transform="translate(-215.163 -136.711)" fill="#282828"/>
          </g>
          <g id="Group_12583" data-name="Group 12583" transform="translate(0 86.16)">
            <g id="Group_12581" data-name="Group 12581" transform="translate(0 47.785)">
              <g id="Group_12580" data-name="Group 12580">
                <path id="Path_38772" data-name="Path 38772" d="M209.288,398.261c-.542.853,31.031-137.375,21.657-135.285-.855.19-17.273,1.715-19.713,6.676-7.072,14.381-12.145,127.559-12.145,127.559Z" transform="translate(-198.478 -262.953)" fill="#ffb1a5"/>
                <path id="Path_38773" data-name="Path 38773" d="M199.123,389.493s-5.089,23.613,14.149,26.194a2.7,2.7,0,0,0,2.91-1.788l.055-.159a2.7,2.7,0,0,0-1.5-3.341c-3.136-1.4-8-4.945-5.587-12.992,0,0,2.78-.341,4.316,4.846a2.231,2.231,0,0,0,3.135,1.38h0a2.232,2.232,0,0,0,1.207-2.282c-.461-3.633-2.289-12.378-9.3-14.725Z" transform="translate(-198.514 -255.235)" fill="#ffb1a5"/>
              </g>
              <path id="Path_38774" data-name="Path 38774" d="M205.181,301.72s18.192,25.619,18.287,25.123,6.362-35.968,6.362-35.968l-22.075-9.562Z" transform="translate(-198.097 -261.807)" fill="#f3978e"/>
            </g>
            <g id="Group_12582" data-name="Group 12582" transform="translate(4.311)">
              <path id="Path_38775" data-name="Path 38775" d="M255.889,222.614c.776,0-44.959.815-53.318,58.564l26.284,4.027,5.3,43.6h73.323l14.557-80.552s-10.349-17.452-40.512-26Z" transform="translate(-202.571 -217.708)" fill="#262e42"/>
              <path id="Path_38776" data-name="Path 38776" d="M231.716,229.862s6.463,8.58,32.945,8.58c26.236,0,32.946-9.03,32.946-9.03s-15.467-8.642-33.414-11.437A119,119,0,0,0,231.716,229.862Z" transform="translate(-200.752 -217.975)" fill="#ffb1a5"/>
            </g>
          </g>
        </g>
        <g id="Group_12607" data-name="Group 12607" transform="translate(3.19 4.288)">
          <g id="Group_12586" data-name="Group 12586" transform="translate(150.263 314.381)">
            <g id="Group_12585" data-name="Group 12585">
              <path id="Path_38777" data-name="Path 38777" d="M316.414,401.367l.064,115.17h56.976l4.378-115.17Z" transform="translate(-316.414 -401.367)" fill="#262e42"/>
              <path id="Path_38778" data-name="Path 38778" d="M436.463,401.367l-.062,115.17H379.425l-4.379-115.17Z" transform="translate(-312.755 -401.367)" fill="#262e42"/>
              <rect id="Rectangle_2092" data-name="Rectangle 2092" width="58.911" height="40.011" transform="translate(33.682)" fill="#262e42"/>
            </g>
            <line id="Line_572" data-name="Line 572" x2="40.632" transform="translate(41.91 40.011)" fill="none" stroke="#282828" stroke-linecap="round" stroke-linejoin="round" stroke-miterlimit="10" stroke-width="1.397"/>
          </g>
          <g id="Group_12597" data-name="Group 12597" transform="translate(0 108.261)">
            <g id="Group_12588" data-name="Group 12588" transform="translate(242.14 15.759)">
              <g id="Group_12587" data-name="Group 12587" transform="translate(29.588 89.853)">
                <path id="Path_38779" data-name="Path 38779" d="M468.981,306.763c3.533,39.025-.194,67.462.836,139.273l-34.006,1.425-5.068-134.418Z" transform="translate(-430.744 -306.763)" fill="#ffb1a5"/>
                <path id="Path_38780" data-name="Path 38780" d="M434.694,336.59s21.058-1.927,35.456-11.425l-.379-8.358-35.088,4.779Z" transform="translate(-430.498 -306.136)" fill="#f3978e"/>
              </g>
              <path id="Path_38781" data-name="Path 38781" d="M402.894,222.188S469.783,239.009,481.9,323.91c0,0-32.737,14.193-65.544,8.088l7.381-28.4Z" transform="translate(-402.894 -222.188)" fill="#85d6b3"/>
            </g>
            <g id="Group_12595" data-name="Group 12595">
              <g id="Group_12592" data-name="Group 12592">
                <path id="Path_38782" data-name="Path 38782" d="M216.025,255.417l49.8,58.816-15.24,42.919s-37.854-52.628-54.863-93.307Z" transform="translate(-173.683 -204.355)" fill="#ffb1a5"/>
                <g id="Group_12591" data-name="Group 12591">
                  <g id="Group_12590" data-name="Group 12590">
                    <g id="Group_12589" data-name="Group 12589">
                      <path id="Path_38783" data-name="Path 38783" d="M218.5,259.451s-17.488,9.88-21.937,6.306c-7.774-6.246-14.2-29.109-14.2-29.109s32.7-12.329,32.4-11.847S218.5,259.451,218.5,259.451Z" transform="translate(-174.517 -206.266)" fill="#ffb1a5"/>
                      <path id="Path_38784" data-name="Path 38784" d="M216.723,259.29c-.31-1.76,6.485-20.754,8.814-27.877a3.142,3.142,0,0,0-2.487-3.959h0A3.629,3.629,0,0,0,219,229.113l-8.2,14.02Z" transform="translate(-172.742 -206.105)" fill="#ffb1a5"/>
                      <path id="Path_38785" data-name="Path 38785" d="M216.528,239.9,210.9,211.883a3.526,3.526,0,0,0-4.076-2.8h0a3.038,3.038,0,0,0-2.493,3.369l2.455,20.864Z" transform="translate(-173.148 -207.25)" fill="#ffb1a5"/>
                      <path id="Path_38786" data-name="Path 38786" d="M206.1,229.672l-7.648-20.008a3.51,3.51,0,0,0-4.345-2.14h0a3.025,3.025,0,0,0-2,3.589l5.674,23.12Z" transform="translate(-173.914 -207.354)" fill="#ffb1a5"/>
                      <path id="Path_38787" data-name="Path 38787" d="M198.507,235.2l-9.676-19.66a3.847,3.847,0,0,0-4.912-1.883h0a3.35,3.35,0,0,0-1.729,4.426l7.714,18.56Z" transform="translate(-174.545 -206.98)" fill="#ffb1a5"/>
                      <path id="Path_38788" data-name="Path 38788" d="M182.824,236.888l-7.593-12.043a2.72,2.72,0,0,1,1.328-3.633h0a3.107,3.107,0,0,1,3.794,1.1l9.985,13.853Z" transform="translate(-174.978 -206.506)" fill="#ffb1a5"/>
                    </g>
                  </g>
                  <path id="Path_38789" data-name="Path 38789" d="M215.109,236.108s-11.4-1.2-12.574,14" transform="translate(-173.258 -205.561)" fill="none" stroke="#f3978e" stroke-linecap="round" stroke-linejoin="round" stroke-miterlimit="10" stroke-width="1.532"/>
                </g>
              </g>
              <g id="Group_12594" data-name="Group 12594" transform="translate(66.805 14.288)">
                <g id="Group_12593" data-name="Group 12593" transform="translate(0 34.293)">
                  <path id="Path_38790" data-name="Path 38790" d="M237.859,337.224s9.367,32.418,28.034,28.108,47.758-44.177,47.758-44.177l-6.512-68.073-52.391,64.481Z" transform="translate(-237.859 -253.082)" fill="#ffb1a5"/>
                  <path id="Path_38791" data-name="Path 38791" d="M269.051,295.267s17.688,26.679,32.776,36.088l9.876-12.466-38.1-29.472Z" transform="translate(-235.912 -250.814)" fill="#f3978e"/>
                </g>
                <path id="Path_38792" data-name="Path 38792" d="M346.569,220.8s-51.931,11.706-79.6,72.059c0,0,16.72,25.194,43.526,36.392l17.946-21.985Z" transform="translate(-236.043 -220.803)" fill="#85d6b3"/>
              </g>
            </g>
            <g id="Group_12596" data-name="Group 12596" transform="translate(143.495 9.593)">
              <path id="Path_38793" data-name="Path 38793" d="M343.834,220.892A130.051,130.051,0,0,0,310.8,245.1l4,176.423H442.635l-.415-175.513s-16.114-15.768-33.577-23.456C393.808,216.021,358.255,213.5,343.834,220.892Z" transform="translate(-309.997 -216.383)" fill="#85d6b3"/>
              <path id="Path_38794" data-name="Path 38794" d="M399.874,303.633h0a17.781,17.781,0,0,1-17.78-17.78v-17.78h35.562v17.78A17.782,17.782,0,0,1,399.874,303.633Z" transform="translate(-305.548 -213.158)" fill="none" stroke="#55b98e" stroke-linecap="round" stroke-linejoin="round" stroke-miterlimit="10" stroke-width="1.397"/>
              <line id="Line_573" data-name="Line 573" y1="57.713" x2="1.658" transform="translate(132.428 58.921)" fill="none" stroke="#55b98e" stroke-linecap="round" stroke-linejoin="round" stroke-miterlimit="10" stroke-width="1.397"/>
              <line id="Line_574" data-name="Line 574" x1="2.762" y1="50.028" transform="translate(0 56.987)" fill="none" stroke="#55b98e" stroke-linecap="round" stroke-linejoin="round" stroke-miterlimit="10" stroke-width="1.397"/>
            </g>
          </g>
          <g id="Group_12606" data-name="Group 12606" transform="translate(167.244)">
            <path id="Path_38795" data-name="Path 38795" d="M343.652,162.712l-5.329-26.364c-.3-2.147-1.133-5.462-.113-8.575,1.687-5.152,7.891-15.046,18.493-10.516l2.292,10.438s-11.011,2.223-15.427,16.627Z" transform="translate(-332.066 -104.789)" fill="#282828"/>
            <path id="Path_38796" data-name="Path 38796" d="M355.786,122.313c-.193,3.465-3.251,18.621-14,24.142C341.786,146.455,332.371,126.263,355.786,122.313Z" transform="translate(-331.928 -104.401)" fill="#282828"/>
            <path id="Path_38797" data-name="Path 38797" d="M393.493,218.688h0V173.922H352.225v44.766l-12.285,5.6s2.881,18.554,33.352,18.965S406.824,225.2,406.824,225.2Z" transform="translate(-331.927 -101.18)" fill="#ffb1a5"/>
            <path id="Path_38798" data-name="Path 38798" d="M355.588,117.922s7.574-19.98,30.929-9.358c14.136,6.429,18.095,15.049,19.779,21.156a24.56,24.56,0,0,1,.631,7.123l-5.649,26.533-22.056-36.708-21.342,1.692Z" transform="translate(-330.95 -105.453)" fill="#282828"/>
            <g id="Group_12600" data-name="Group 12600" transform="translate(67.878 55.072)">
              <path id="Path_38799" data-name="Path 38799" d="M398.738,160.141s2.782-4.426,8.522-2.249S410.4,174,401.793,175.781a6.813,6.813,0,0,1-5.505-1.44S398.4,164.048,398.738,160.141Z" transform="translate(-396.288 -157.29)" fill="#f3978e"/>
              <g id="Group_12599" data-name="Group 12599" transform="translate(1.614 5.363)">
                <g id="Group_12598" data-name="Group 12598">
                  <path id="Path_38800" data-name="Path 38800" d="M406.026,162.494s-4.806-1.6-8.219,5.475" transform="translate(-397.807 -162.338)" fill="none" stroke="#282828" stroke-linecap="round" stroke-linejoin="round" stroke-miterlimit="10" stroke-width="1.397"/>
                </g>
              </g>
            </g>
            <g id="Group_12603" data-name="Group 12603" transform="translate(0 55.072)">
              <path id="Path_38801" data-name="Path 38801" d="M343.984,160.141s-2.782-4.426-8.521-2.249S332.32,174,340.928,175.781a6.813,6.813,0,0,0,5.505-1.44S344.316,164.048,343.984,160.141Z" transform="translate(-332.398 -157.29)" fill="#f3978e"/>
              <g id="Group_12602" data-name="Group 12602" transform="translate(4.203 5.363)">
                <g id="Group_12601" data-name="Group 12601">
                  <path id="Path_38802" data-name="Path 38802" d="M336.354,162.494s4.806-1.6,8.219,5.475" transform="translate(-336.354 -162.338)" fill="none" stroke="#282828" stroke-linecap="round" stroke-linejoin="round" stroke-miterlimit="10" stroke-width="1.397"/>
                </g>
              </g>
            </g>
            <path id="Path_38803" data-name="Path 38803" d="M402.658,149.28c0,8.4-.821,25.978-5.987,36.41-4.849,9.8-12.87,15.067-23.386,15.38s-18.349-3.739-24.627-16.451-5.978-35.184-5.978-35.184,0-30.013,29.662-30.013C403.586,119.424,402.658,149.28,402.658,149.28Z" transform="translate(-331.756 -104.581)" fill="#ffb1a5"/>
            <path id="Path_38804" data-name="Path 38804" d="M351.794,186.688s3.456,17.535,18.717,19.55c17.564,2.318,22.242-19.1,22.242-19.1s-7.762,9.725-20.035,9.74A26.858,26.858,0,0,1,351.794,186.688Z" transform="translate(-331.187 -100.383)" fill="#282828"/>
            <g id="Group_12605" data-name="Group 12605" transform="translate(11.29 37.676)">
              <path id="Path_38805" data-name="Path 38805" d="M368.917,159.254V166.2a2.26,2.26,0,0,0,.163.846,2.235,2.235,0,0,0,2.667,1.238l2.3-.613" transform="translate(-341.408 -139.771)" fill="none" stroke="#282828" stroke-linecap="round" stroke-linejoin="round" stroke-miterlimit="10" stroke-width="1.397"/>
              <circle id="Ellipse_709" data-name="Ellipse 709" cx="2.701" cy="2.701" r="2.701" transform="translate(13.348 13.465)" fill="#282828"/>
              <circle id="Ellipse_710" data-name="Ellipse 710" cx="2.701" cy="2.701" r="2.701" transform="translate(38.665 13.465)" fill="#282828"/>
              <path id="Path_38806" data-name="Path 38806" d="M375.454,143.647l18.155,4.691s-.824-5.092-8.253-6.943S375.454,143.647,375.454,143.647Z" transform="translate(-341 -140.916)" fill="#282828"/>
              <path id="Path_38807" data-name="Path 38807" d="M365.9,143.647l-18.155,4.691s.826-5.092,8.253-6.943S365.9,143.647,365.9,143.647Z" transform="translate(-342.729 -140.916)" fill="#282828"/>
              <path id="Path_38808" data-name="Path 38808" d="M361.437,172.379s2.678,2.053,9.721,2.053a24.624,24.624,0,0,0,10.405-2.053" transform="translate(-341.875 -138.952)" fill="none" stroke="#282828" stroke-linecap="round" stroke-linejoin="round" stroke-miterlimit="10" stroke-width="1.397"/>
              <g id="Group_12604" data-name="Group 12604" transform="translate(0 5.481)">
                <circle id="Ellipse_711" data-name="Ellipse 711" cx="11.474" cy="11.474" r="11.474" transform="translate(3.848)" fill="none" stroke="#fff" stroke-miterlimit="10" stroke-width="1.951"/>
                <circle id="Ellipse_712" data-name="Ellipse 712" cx="11.474" cy="11.474" r="11.474" transform="translate(32.036)" fill="none" stroke="#fff" stroke-miterlimit="10" stroke-width="1.951"/>
                <path id="Path_38809" data-name="Path 38809" d="M368.246,156.941s2.718-2.536,5.24,0" transform="translate(-341.45 -145.467)" fill="none" stroke="#fff" stroke-miterlimit="10" stroke-width="1.951"/>
                <line id="Line_575" data-name="Line 575" x1="3.848" y1="0.098" transform="translate(0 11.376)" fill="none" stroke="#fff" stroke-miterlimit="10" stroke-width="1.951"/>
                <line id="Line_576" data-name="Line 576" y1="0.07" x2="4.295" transform="translate(54.984 11.404)" fill="none" stroke="#fff" stroke-miterlimit="10" stroke-width="1.951"/>
              </g>
            </g>
            <path id="Path_38810" data-name="Path 38810" d="M351.794,123.349s5.512,15.655,30.375,15.174c16.9-.326,20.933,11.9,20.933,11.9s-2.941-27.333-3.713-27.074-25.709-6.654-25.709-6.654Z" transform="translate(-331.187 -104.752)" fill="#282828"/>
          </g>
        </g>
      </g>
    </g>
  </g>
</svg>
