<svg xmlns="http://www.w3.org/2000/svg" width="795.643" height="598.176" viewBox="0 0 795.643 598.176">
  <g id="Group_12123" data-name="Group 12123" transform="translate(-1000 -241)">
    <g id="why_choose_us_illustration" data-name="why choose us illustration" transform="translate(1000 241)">
      <g id="Group_10499" data-name="Group 10499" transform="translate(0 0)">
        <g id="Group_9659" data-name="Group 9659">
          <g id="Group_9647" data-name="Group 9647" transform="translate(665.964 127.428)">
            <path id="Path_31260" data-name="Path 31260" d="M173.573,172.656a2.27,2.27,0,0,1-1.209-4.192L297.51,90.081a2.267,2.267,0,1,1,2.405,3.844L174.774,172.308A2.267,2.267,0,0,1,173.573,172.656Z" transform="translate(-171.302 -89.734)" fill="#51b087"/>
          </g>
          <g id="Group_9649" data-name="Group 9649" transform="translate(0 550.243)">
            <path id="Path_31262" data-name="Path 31262" d="M8.811,242.273a2.268,2.268,0,0,1-1.031-4.289l85.246-43.4a2.268,2.268,0,0,1,2.057,4.042l-85.246,43.4A2.272,2.272,0,0,1,8.811,242.273Z" transform="translate(-6.542 -194.339)" fill="#51b087"/>
          </g>
          <g id="Group_9650" data-name="Group 9650" transform="translate(0.188 249.472)">
            <path id="Path_31263" data-name="Path 31263" d="M147.541,150.938a2.194,2.194,0,0,1-.424-.044L8.435,124.427a2.269,2.269,0,1,1,.849-4.458L147.966,146.44a2.27,2.27,0,0,1-.424,4.5Z" transform="translate(-6.588 -119.928)" fill="#51b087"/>
          </g>
          <g id="Group_9651" data-name="Group 9651" transform="translate(43.526 96.096)">
            <path id="Path_31264" data-name="Path 31264" d="M131.166,156.26a2.262,2.262,0,0,1-1.2-.344L18.378,86.176a2.27,2.27,0,0,1,2.4-3.852L132.37,152.069a2.267,2.267,0,0,1-1.2,4.192Z" transform="translate(-17.31 -81.983)" fill="#51b087"/>
          </g>
          <g id="Group_9654" data-name="Group 9654" transform="translate(527.093)">
            <path id="Path_31267" data-name="Path 31267" d="M139.212,166.586a2.244,2.244,0,0,1-1.3-.408,2.269,2.269,0,0,1-.554-3.161L210.2,59.173a2.269,2.269,0,0,1,3.715,2.607L141.072,165.624A2.267,2.267,0,0,1,139.212,166.586Z" transform="translate(-136.945 -58.208)" fill="#51b087"/>
          </g>
          <g id="Group_9656" data-name="Group 9656" transform="translate(319.406 60.445)">
            <path id="Path_31269" data-name="Path 31269" d="M106.428,125.747a2.266,2.266,0,0,1-2.114-1.447l-18.6-48.047a2.27,2.27,0,0,1,4.232-1.641l18.6,48.047a2.268,2.268,0,0,1-1.3,2.935A2.236,2.236,0,0,1,106.428,125.747Z" transform="translate(-85.563 -73.163)" fill="#51b087"/>
          </g>
          <g id="Group_9657" data-name="Group 9657" transform="translate(54.74 393.508)">
            <path id="Path_31270" data-name="Path 31270" d="M22.351,163.2a2.267,2.267,0,0,1-.17-4.527l40.295-3.1a2.246,2.246,0,0,1,2.437,2.086,2.272,2.272,0,0,1-2.09,2.437l-40.295,3.1C22.468,163.2,22.407,163.2,22.351,163.2Z" transform="translate(-20.084 -155.563)" fill="#51b087"/>
          </g>
        </g>
        <g id="Group_9660" data-name="Group 9660" transform="translate(131.752 109.171)">
          <path id="Path_31272" data-name="Path 31272" d="M451.555,98.259c-42.235-23.6-76.92-11.144-106.7,5.667-83.439,47.1-110.319,24.2-189.587,28.884-94.373,5.578-104.773,81.742-78.625,138.2C87.475,294.4,100.6,318.436,93.8,345.032c-5.3,20.744-24.511,39.511-36.269,57.465-42.882,65.464-12.7,155.832,110.88,161.612,73.132,3.424,113.379-27.506,170.6-67.728,53.973-37.934,108.67-42.457,173.156-41.786,153.8,1.6,256.842-161.24,11.56-264.408C485.33,174.039,485.4,117.176,451.555,98.259Z" transform="translate(-39.137 -85.217)" fill="#1b2435"/>
        </g>
        <g id="Group_9661" data-name="Group 9661" transform="translate(95.773 141.572)">
          <path id="Path_31274" data-name="Path 31274" d="M188.117,535.966a206.3,206.3,0,0,1-44.781-5.174c-57.728-12.753-96.43-42.009-108.981-82.384-10.453-33.63-.736-70.816,26-99.478,4.543-4.871,9.66-9.576,15.085-14.555,11.859-10.9,24.127-22.166,30-35.291,9.923-22.154,3.512-45.4-2.684-67.89L101,224.743c-10.113-37.55-3.945-75.367,16.1-98.7,18.856-21.944,49.034-31.285,87.3-26.984,23.314,2.615,41.94,6.863,58.371,10.61,40.206,9.163,69.26,15.792,132.352-6.75,31.669-11.318,69.308-18.634,108.3,12.918,14.826,11.993,20.376,31.374,25.74,50.117,5.8,20.271,11.8,41.229,29.563,52.583,137.671,88.019,126.665,163.245,115.541,191.5-21.56,54.782-96.147,85.408-173.483,71.249-57.7-10.57-114.6-17.635-176.357,11.58l-8.327,3.949C269.968,518.718,233.647,535.966,188.117,535.966Zm-1.261-433.385c-28.63,0-51.35,8.994-66.321,26.423-19.078,22.207-24.887,58.439-15.158,94.559l1.754,6.423c6.411,23.258,13.04,47.308,2.453,70.954-6.261,13.977-18.876,25.57-31.079,36.778-5.356,4.919-10.412,9.563-14.838,14.309C38.062,379.479,28.725,415,38.688,447.061c12.045,38.751,49.559,66.916,105.626,79.3,67.542,14.919,110.452-5.453,169.833-33.65l8.331-3.953c62.975-29.794,120.662-22.647,179.118-11.94,75.258,13.779,147.663-15.647,168.447-68.447,22.639-57.514-18.828-125.315-113.767-186.013-19.2-12.28-25.444-34.078-31.479-55.157-5.408-18.9-10.517-36.75-24.232-47.841h0c-37.251-30.141-73.439-23.068-103.92-12.171-64.341,22.987-95.472,15.893-134.886,6.9-16.318-3.719-34.81-7.934-57.869-10.521A152.3,152.3,0,0,0,186.856,102.581Z" transform="translate(-30.236 -93.233)" fill="#57bb72"/>
        </g>
      </g>
    </g>
    <text id="Why_choose_us_" data-name="Why choose us?" transform="translate(1433 599)" fill="#fff" font-size="40" font-family="Montserrat-Bold, Montserrat" font-weight="700"><tspan x="-171.14" y="0">Why choose us?</tspan></text>
  </g>
</svg>
