<svg xmlns="http://www.w3.org/2000/svg" width="730.515" height="471.279" viewBox="0 0 730.515 471.279">
  <g id="OBJECTS" transform="translate(-15.724 -85.328)">
    <g id="Group_12166" data-name="Group 12166" transform="translate(37.597 108.88)">
      <path id="Path_38359" data-name="Path 38359" d="M314.533,179.8C289.2,101.085,175.015,75.728,109.578,134.555q-1.411,1.266-2.816,2.577C12.95,224.461,57.269,439.665,253.051,494.21s399.425-45.059,410.866-134.1-78.884-117.018-219.057-92.12C365.662,282.06,330.306,228.8,314.533,179.8Z" transform="translate(-20.502 -102.264)" fill="#c7cbd5"/>
      <path id="Path_38360" data-name="Path 38360" d="M323.223,168.491c-22.466,3.657-28.693,23.561-11.345,37.683,5.732,4.667,13.922,8.545,25.585,10.481,44.438,7.372,68.017-12.289,50.206-37.779C376.676,163.142,345.488,164.865,323.223,168.491Z" transform="translate(137.212 -77.51)" fill="#bcc7e2"/>
      <path id="Path_38361" data-name="Path 38361" d="M70.645,285.517c-13.968-17.974-34.424-13.91-38.516,8.081-1.353,7.269-.837,16.312,3.048,27.482,14.8,42.542,43.352,53.831,57.2,25.99C100.93,329.883,84.486,303.328,70.645,285.517Z" transform="translate(-31.453 -35.56)" fill="#e7e9ee"/>
      <path id="Path_38362" data-name="Path 38362" d="M443.742,302.732c-2.069,10.834,6.877,18.509,17.013,14.335,3.35-1.38,6.731-4.04,9.737-8.718,11.453-17.818,5.652-33.1-10.293-31.534C450.356,277.783,445.794,292,443.742,302.732Z" transform="translate(215.647 -34.538)" fill="#c7cbd5"/>
      <path id="Path_38363" data-name="Path 38363" d="M410.037,222.459c10.8,2.254,18.623-6.561,14.622-16.768-1.322-3.374-3.926-6.8-8.551-9.885-17.619-11.755-33-6.216-31.7,9.757C385.206,215.421,399.336,220.225,410.037,222.459Z" transform="translate(192.556 -68.386)" fill="#8591af"/>
      <path id="Path_38364" data-name="Path 38364" d="M218.528,140.086c8.55,6.97,19.554,2.747,20.7-8.157.378-3.6-.356-7.843-3.043-12.71-10.232-18.545-26.437-20.705-32.637-5.928C199.721,122.411,210.056,133.179,218.528,140.086Z" transform="translate(71.495 -101.752)" fill="#bcc7e2"/>
    </g>
    <g id="Group_12176" data-name="Group 12176" transform="translate(15.724 169.465)">
      <path id="Path_38365" data-name="Path 38365" d="M485.367,345.615c17.145-17.237,30.2-36.713,17.213-39.75s-34.835,30.9-38.64,61.8l-3.808,10.2c3.167-22.467-4.532-49.833-15.8-50.961-11.2-1.121-4.421,16.632,4.475,31.812,6.771,11.558,8.555,20.673,9,25.385l-17.985,48.177c4.912-35.593-7.284-78.775-25.119-80.561-17.771-1.777-7.014,26.39,7.1,50.477,10.668,18.2,13.536,32.6,14.271,40.124l-3.585,9.606q2.353,1.325,4.72,2.62l21.4-57.316a69.121,69.121,0,0,1,19.319-9.823c16.668-5.639,33.421-14.606,24.226-21.1-7.979-5.635-26.739,5.211-39.661,20.517l7.4-19.821C473.222,361.26,477.967,353.054,485.367,345.615Z" transform="translate(222.668 -84.018)" fill="#8b93a7"/>
      <path id="Path_38366" data-name="Path 38366" d="M87.741,183.018c2.224-20.818.492-40.936-9.868-35.974s-6.735,39.533,7.363,62.332l2.941,8.9c-9.986-16.8-29.907-31.024-38.085-25.706-8.125,5.284,6,13.553,20.154,18.952,10.777,4.111,16.889,9.271,19.729,12.2l13.892,42.049c-15.888-26.551-47.357-48.978-60.3-40.562-12.893,8.385,9.515,21.5,31.979,30.072,16.975,6.475,26.664,14.6,31.211,19.253l2.77,8.384q2.295-.378,4.582-.783L97.588,232.109a59.555,59.555,0,0,1,7.678-17.012c8.153-12.772,14.571-27.824,4.9-27.229-8.4.517-15.148,17.913-15.575,35.158l-5.715-17.3C88.018,200.07,86.782,192,87.741,183.018Z" transform="translate(-6.323 -146.282)" fill="#6d7da4"/>
      <g id="Group_12169" data-name="Group 12169" transform="translate(591.184 162.915)">
        <g id="Group_12167" data-name="Group 12167">
          <path id="Path_38367" data-name="Path 38367" d="M380,419.373c.217,1.181.47,2.466.765,3.835v0c3.087,14.353,10.666,37.85,27.719,42.47,0,0-9.282-48.4,23.8-61s29.424-24.607,27.535-45.973-9.2-25.439,13.753-45.451,18.565-49.819,18.565-49.819-21.723,34.034-44.927,34.823-27.266,20.6-26.277,35.329-18.716,16.4-29.38,24.94-12.67,53.411-12.67,53.411S379.173,414.87,380,419.373Z" transform="translate(-378.882 -263.434)" fill="#6d7da4"/>
        </g>
        <g id="Group_12168" data-name="Group 12168" transform="translate(1.117 43.547)">
          <path id="Path_38368" data-name="Path 38368" d="M379.685,407.14c.217,1.181.47,2.466.765,3.835a73.335,73.335,0,0,1,8.857-17.893c7.42-10.994,17.872-20.026,27.272-23.571,14.966-5.64,22.275-20.319,23.691-47.6.82-15.835,17.386-25.189,17.557-25.279a1,1,0,0,0-.972-1.759c-.724.4-17.712,9.972-18.593,26.932-1.367,26.372-8.273,40.506-22.392,45.827-9.917,3.738-20.471,12.831-28.23,24.324A76.243,76.243,0,0,0,379.685,407.14Z" transform="translate(-379.685 -294.748)" fill="#262e42"/>
        </g>
      </g>
      <g id="Group_12172" data-name="Group 12172" transform="translate(0 231.757)">
        <g id="Group_12170" data-name="Group 12170">
          <path id="Path_38369" data-name="Path 38369" d="M155.669,446.081h23.247c-12.562-2.076-43.7-15.446-46.482-42.257-3.517-33.958-15.61-33.532-35.984-37.084s-25.988,2.246-38.925-24.116-41.8-29.686-41.8-29.686S42.031,341.642,37,363.456s12.41,30.526,26.38,33.268S74,418.239,79.306,430.3c2.422,5.5,12.339,11.207,22.4,15.784Z" transform="translate(-15.724 -312.938)" fill="#c7cbd5"/>
        </g>
        <g id="Group_12171" data-name="Group 12171" transform="translate(31.962 42.239)">
          <path id="Path_38370" data-name="Path 38370" d="M96.336,400.79c1.015,10.17,6.863,22.264,15.642,32.35.309.355.63.715.957,1.076h2.646c-.757-.8-1.474-1.584-2.142-2.349-8.4-9.648-14.215-21.631-15.18-31.27-1.532-15.346-13.392-25.806-38.455-33.909-14.547-4.7-19.143-22.462-19.185-22.644a.97.97,0,0,0-1.882.469c.192.773,4.887,18.981,20.469,24.019C83.439,376.363,94.89,386.312,96.336,400.79Z" transform="translate(-38.708 -343.312)" fill="#6d7da4"/>
        </g>
      </g>
      <g id="Group_12175" data-name="Group 12175" transform="translate(14.55 62.182)">
        <g id="Group_12173" data-name="Group 12173">
          <path id="Path_38371" data-name="Path 38371" d="M164.12,430.693c-.492,1.649-1.05,3.446-1.68,5.354v0c-6.61,20-20.168,53.692-45.208,57.664,0,0,19.817-68.956-25.44-92.024S53.6,362.063,59.58,331.876,76.617,297,46.946,264.924,28.121,191,28.121,191,53.88,242.888,86.86,247.582s35.731,33.577,32.057,54.439S143.1,328.287,157,342.116s9.865,78.141,9.865,78.141S165.989,424.4,164.12,430.693Z" transform="translate(-26.187 -190.997)" fill="#8b93a7"/>
        </g>
        <g id="Group_12174" data-name="Group 12174" transform="translate(42.834 67.417)">
          <path id="Path_38372" data-name="Path 38372" d="M152.087,411.756c-.492,1.649-1.05,3.446-1.68,5.354a105.192,105.192,0,0,0-9.886-26.888c-8.9-16.827-22.417-31.318-35.28-37.82-20.484-10.344-28.653-32.41-26.48-71.544,1.264-22.715-20.93-38.6-21.16-38.76a1.443,1.443,0,0,1,1.658-2.361c.969.68,23.734,16.948,22.382,41.28-2.1,37.831,5.576,59.056,24.9,68.817,13.574,6.856,27.233,21.45,36.533,39.039A109.34,109.34,0,0,1,152.087,411.756Z" transform="translate(-56.989 -239.476)" fill="#6d7da4"/>
        </g>
      </g>
    </g>
    <g id="Group_12211" data-name="Group 12211" transform="translate(70.853 150.027)">
      <g id="Group_12177" data-name="Group 12177" transform="translate(114.951 323.808)">
        <path id="Path_38373" data-name="Path 38373" d="M138.383,409.469c.078,5.243.172,10.7.286,16.215h50.563c.1-6.04.171-11.829.225-17.258.153-14.717.17-26.829.159-34.357-.006-5.34-.029-8.367-.029-8.367l-51.559-.548s0,4.454.039,11.74C138.1,384.991,138.191,396.585,138.383,409.469Z" transform="translate(-138.028 -365.154)" fill="#18315b"/>
        <path id="Path_38374" data-name="Path 38374" d="M138.056,374.391c.033,8.1.124,19.69.316,32.574a253.323,253.323,0,0,0,51.075-1.043c.153-14.717.17-26.829.159-34.357Z" transform="translate(-138.017 -362.65)" fill="#000b29"/>
      </g>
      <g id="Group_12178" data-name="Group 12178" transform="translate(51.513 323.81)">
        <path id="Path_38375" data-name="Path 38375" d="M92.48,397.842c.057,8.241.154,17.683.318,27.842h50.568c.124-5.948.225-11.825.307-17.439.175-12.05.264-22.9.31-30.7.039-7.675.039-12.393.039-12.393l-51.581.548s-.04,5.469-.029,14.671C92.413,385.24,92.435,391.143,92.48,397.842Z" transform="translate(-92.41 -365.155)" fill="#18315b"/>
        <path id="Path_38376" data-name="Path 38376" d="M92.412,376.891c0,4.867.022,10.77.068,17.471a316.027,316.027,0,0,0,51.193,10.4c.175-12.05.264-22.9.31-30.7Z" transform="translate(-92.409 -361.674)" fill="#000b29"/>
      </g>
      <g id="Group_12187" data-name="Group 12187" transform="translate(71.457)">
        <path id="Path_38377" data-name="Path 38377" d="M171.541,185.014s8.125-7.825,8.1-15.553-5.28-5.444-8.1-12.645-11.195-11.592-15.788-10.713-14.292-17.037-27.444-13.876S116.3,152.25,110.634,154.708s-4.086,12.47-1.1,14.753,4.25,11.459,5.93,11.252S171.541,185.014,171.541,185.014Z" transform="translate(-106.718 -131.853)" fill="#18315b"/>
        <g id="Group_12181" data-name="Group 12181" transform="translate(0 49.567)">
          <path id="Path_38378" data-name="Path 38378" d="M116.89,170.906s-5.109-6.811-8.907-1.179,1.571,22.267,10.872,18.206Z" transform="translate(-106.752 -167.496)" fill="#f97853"/>
          <g id="Group_12179" data-name="Group 12179" transform="translate(1.993 5.963)">
            <path id="Path_38379" data-name="Path 38379" d="M116.263,181.118a.786.786,0,0,1-.757-.574c-1.442-5.136-6.763-7.217-6.815-7.238a.787.787,0,0,1,.558-1.471c.249.093,6.113,2.37,7.772,8.284a.787.787,0,0,1-.545.969A.758.758,0,0,1,116.263,181.118Z" transform="translate(-108.185 -171.784)" fill="#ea5143"/>
          </g>
          <g id="Group_12180" data-name="Group 12180" transform="translate(3.915 9.05)">
            <path id="Path_38380" data-name="Path 38380" d="M110.353,177.663a.786.786,0,0,1-.661-1.211,7.181,7.181,0,0,1,2.95-2.378.786.786,0,0,1,.642,1.435,5.693,5.693,0,0,0-2.27,1.794A.786.786,0,0,1,110.353,177.663Z" transform="translate(-109.567 -174.004)" fill="#ea5143"/>
          </g>
        </g>
        <g id="Group_12185" data-name="Group 12185" transform="translate(60.817 49.567)">
          <path id="Path_38381" data-name="Path 38381" d="M152.45,170.906s5.109-6.811,8.907-1.179-1.571,22.267-10.872,18.206Z" transform="translate(-150.485 -167.496)" fill="#f97853"/>
          <g id="Group_12182" data-name="Group 12182" transform="translate(1.245 5.963)">
            <path id="Path_38382" data-name="Path 38382" d="M152.167,181.118a.786.786,0,0,0,.757-.574c1.442-5.136,6.763-7.217,6.815-7.238a.787.787,0,0,0-.558-1.471c-.249.093-6.113,2.37-7.772,8.284a.787.787,0,0,0,.545.969A.758.758,0,0,0,152.167,181.118Z" transform="translate(-151.38 -171.784)" fill="#ea5143"/>
          </g>
          <g id="Group_12184" data-name="Group 12184" transform="translate(4.006 9.05)">
            <g id="Group_12183" data-name="Group 12183">
              <path id="Path_38383" data-name="Path 38383" d="M156.762,177.663a.786.786,0,0,0,.661-1.211,7.181,7.181,0,0,0-2.95-2.378.786.786,0,1,0-.642,1.435,5.693,5.693,0,0,1,2.27,1.794A.786.786,0,0,0,156.762,177.663Z" transform="translate(-153.366 -174.004)" fill="#ea5143"/>
            </g>
          </g>
        </g>
        <path id="Path_38384" data-name="Path 38384" d="M148.809,192.339v16.543s-4.934,8.426-11.606,9-12.588-7.254-12.588-7.254V193.5Z" transform="translate(-99.774 -108.225)" fill="#ffa681"/>
        <path id="Path_38385" data-name="Path 38385" d="M148.809,192.339v7.34c-4.478,4.969-12.428,6.209-24.193,4.472V193.5Z" transform="translate(-99.773 -108.225)" fill="#f97853"/>
        <path id="Path_38386" data-name="Path 38386" d="M171.236,167.623a160.792,160.792,0,0,1-2.146,20.9c-.306,1.6-.652,3.112-1.037,4.464-3.482,12.189-12.19,33.094-36.568,24.386-10.768-3.844-15.759-15.837-17.982-28.034a117.954,117.954,0,0,1-1.627-22.634,17.268,17.268,0,0,1,8.764-14.7c14.39-8.157,29.573-5.116,39.57-1.274A17.22,17.22,0,0,1,171.236,167.623Z" transform="translate(-104.759 -125.996)" fill="#ffa681"/>
        <path id="Path_38387" data-name="Path 38387" d="M113.041,177.7s2.365,14.1,4.6,19.232,8.342,6.106,10.634,10.448c3.269,6.193,8.253,11.1,16.451,8.109,6.821-2.488,6.512-5.976,10.334-8.673,6.547-4.624,9.791-9.709,10.056-13.924s3.514-16.008,3.514-16.008l-3.514-.248a91.459,91.459,0,0,1-4.948,8.715c-2.955-6.491-17.2-1.77-17.2-1.77l-2.719.88-2.792-.88s-14.411-4.521-17.256,2.288a25.665,25.665,0,0,1-3.8-8.842Zm27.208,8.958c16.334-2.8,13.414,6.76,13.31,7.1v.006l-.006.006a16.194,16.194,0,0,1-3.357,2.545c-6.329,3.42-7.013,2.9-9.511,3.014a18.788,18.788,0,0,1-9.6-2.619,27.279,27.279,0,0,1-4.574-3.478S123.946,184.46,140.249,186.657Z" transform="translate(-104.295 -114.359)" fill="#18315b"/>
        <ellipse id="Ellipse_672" data-name="Ellipse 672" cx="2.033" cy="3.197" rx="2.033" ry="3.197" transform="translate(22.071 51.938)" fill="#18315b"/>
        <ellipse id="Ellipse_673" data-name="Ellipse 673" cx="2.033" cy="3.197" rx="2.033" ry="3.197" transform="translate(46.238 51.938)" fill="#18315b"/>
        <path id="Path_38388" data-name="Path 38388" d="M151.394,164.391s-8.4-3.319-14.869-.526l.647,3.6s9.492-.8,14.276,1.136A6.238,6.238,0,0,0,151.394,164.391Z" transform="translate(-95.121 -119.785)" fill="#18315b"/>
        <path id="Path_38389" data-name="Path 38389" d="M118.607,164.405s8.462-3.344,14.979-.53l-.652,3.624s-9.562-.809-14.382,1.143A6.293,6.293,0,0,1,118.607,164.405Z" transform="translate(-102.275 -119.784)" fill="#18315b"/>
        <g id="Group_12186" data-name="Group 12186" transform="translate(33.812 53.163)">
          <path id="Path_38390" data-name="Path 38390" d="M133.988,185.455a8.362,8.362,0,0,0,2.844-.6.786.786,0,0,0-.594-1.455c-.709.288-2.413.74-3.153.3a.851.851,0,0,1-.387-.731c-.284-2.745.467-11.943.476-12.036a.786.786,0,0,0-1.566-.128c-.031.384-.77,9.438-.471,12.327a2.4,2.4,0,0,0,1.143,1.919A3.322,3.322,0,0,0,133.988,185.455Z" transform="translate(-131.066 -170.082)" fill="#f97853"/>
        </g>
        <path id="Path_38391" data-name="Path 38391" d="M125.961,184.973c.6,3,2.58,8.525,9.26,8.525,6.7,0,8.575-5.047,9.22-8.525Z" transform="translate(-99.248 -111.102)" fill="#fff"/>
        <path id="Path_38392" data-name="Path 38392" d="M172.2,167.708c-.306,6.429-1.885,14.383-3.112,20.812l-3.67.541s1.008-6.217,1.4-9.753,1.061-10.147-1.958-10.972-1.243-8.359-5.432-11.628-13.495-6.162-19.672-2.357-13.2,1.7-16.049,2.357-6.72,4.582-5.675,8.252-2.09,5.895-2.852,9.69S116.923,189,116.923,189l-3.42.337c-.023-.124.073.413,0,0a133.664,133.664,0,0,1-1.75-23.278c.118-6.108,3.04-13.477,8.354-16.486,14.39-8.157,31.987-3.842,41.984,0C169.03,152.238,172.555,160.3,172.2,167.708Z" transform="translate(-104.759 -125.995)" fill="#18315b"/>
      </g>
      <g id="Group_12208" data-name="Group 12208" transform="translate(40.809 100.227)">
        <g id="Group_12188" data-name="Group 12188" transform="translate(0 0.003)">
          <path id="Path_38393" data-name="Path 38393" d="M221.1,453.365a279.564,279.564,0,0,1-47.717,7.831c-.722.051-1.437.1-2.16.153q-3.281.221-6.561.366a270.774,270.774,0,0,1-32.477-.551q-3.275-.25-6.547-.585-1.045-.1-2.1-.22a284.662,284.662,0,0,1-38.786-6.992c-.129-11.916.018-49.591.75-90.448.085-4.91.179-9.867.288-14.83,1.146-53.847,3.358-108.505,7.336-113.98,3.813-5.24,15.307-11.9,26.294-17.906l1.962-1.069c2.471-1.342,4.887-2.642,7.158-3.876,4.867-2.651,9.067-5.006,11.66-6.824v1.5s5.916,7.829,12.582,7.251c6.077-.521,10.7-7.543,11.489-8.8a154.175,154.175,0,0,0,13.984,7.956c1.662.88,3.379,1.781,5.131,2.709q.968.511,1.945,1.03c12.151,6.446,25.253,13.712,29.185,19.113a6.684,6.684,0,0,1,.84,1.987c2.328,7.879,3.771,34.026,4.652,65.689,0,.113.007.228.011.344q.056,1.919.1,3.866c.007.168.011.339.014.512.288,11.106.5,22.8.673,34.547.014.933.031,1.865.042,2.8,0,.47.01.932.014,1.4.039,2.314.063,4.627.085,6.93.025,1.7.046,3.395.06,5.1C221.453,400.822,221.273,440.88,221.1,453.365Z" transform="translate(-84.713 -204.379)" fill="#85d6b3"/>
        </g>
        <g id="Group_12189" data-name="Group 12189" transform="translate(117.191 74.071)">
          <path id="Path_38394" data-name="Path 38394" d="M187.208,286.267c-3.827-6.249-7.935-12.628-11.805-18.272-.01-.015-.021-.029-.028-.042-1.626-2.37-3.207-4.607-4.71-6.649a.9.9,0,0,0-.078-.106c-.47-.641-.936-1.264-1.391-1.872a1.177,1.177,0,0,1-.165-.328l0,0a1.056,1.056,0,0,1,1.855-.936c4.647,6.158,10.592,15.012,16.213,24,0,.113.007.228.011.344Q187.162,284.318,187.208,286.267Z" transform="translate(-168.984 -257.641)" fill="#55b98e"/>
        </g>
        <path id="Path_38395" data-name="Path 38395" d="M179.232,225.907s23.981,43.937,38.6,66.2c0,0,8.313-7.637,19.124-17.854,11.723-11.078,27.756-29.591,27.756-29.591l8.872,10.522S237.561,320.01,221.4,328.157s-45.931-49.516-45.931-49.516Z" transform="translate(-49.259 -195.967)" fill="#85d6b3"/>
        <g id="Group_12190" data-name="Group 12190" transform="translate(9.497 152.875)">
          <path id="Path_38396" data-name="Path 38396" d="M110.48,364.536h-.039a1.085,1.085,0,0,1-1.046-1.124c1.257-35.482-17.141-46.977-17.326-47.088a1.085,1.085,0,0,1,1.113-1.863c.2.122,5.069,3.077,9.779,10.648,4.3,6.911,9.282,19.181,8.6,38.381A1.084,1.084,0,0,1,110.48,364.536Z" transform="translate(-91.542 -314.309)" fill="#55b98e"/>
        </g>
        <g id="Group_12191" data-name="Group 12191" transform="translate(105.761 109.516)">
          <path id="Path_38397" data-name="Path 38397" d="M161.932,343.288a1.085,1.085,0,0,1-1.081-1c-.583-7.472,1.879-12.923,5-19.822.911-2.019,1.854-4.105,2.819-6.447,6.046-14.667,3.008-31.437,2.976-31.6a1.085,1.085,0,0,1,2.133-.4c.132.711,3.187,17.575-3.1,32.83-.979,2.374-1.929,4.478-2.848,6.512-3.1,6.875-5.348,11.844-4.809,18.761a1.084,1.084,0,0,1-1,1.165A.6.6,0,0,1,161.932,343.288Z" transform="translate(-160.765 -283.129)" fill="#55b98e"/>
        </g>
        <g id="Group_12204" data-name="Group 12204" transform="translate(43.829)">
          <path id="Path_38398" data-name="Path 38398" d="M116.23,211.254c.463,3.493,1.143,8.025,1.886,13.173.227,1.528.453,3.114.686,4.742.754,5.316,1.534,11.1,2.2,16.95.179,1.57.348,3.146.506,4.716.585,5.791,1.028,11.545,1.186,16.892.053,1.617.074,3.2.063,4.731a75.355,75.355,0,0,1-.731,11.043q-.476,3.043-.843,5.949-.309,2.409-.553,4.741c-.633,6.034-.948,11.651-1.037,16.946q-.04,2.411-.017,4.725c.047,6.012.389,11.615.886,16.946q.221,2.395.48,4.717c.648,5.827,1.438,11.375,2.182,16.86q.323,2.357.633,4.7c.321,2.509.627,5.016.89,7.54.28,2.677.459,5.807.542,9.28.042,1.517.063,3.1.068,4.742.021,5.188-.111,10.937-.353,16.949q-.094,2.357-.21,4.77c-.268,5.585-.622,11.328-1.017,17q-.173,2.395-.352,4.763c-.438,5.9-.923,11.651-1.413,17-.147,1.623-.295,3.21-.442,4.748-.565,5.885-1.113,11.117-1.592,15.29a270.806,270.806,0,0,0,32.478.549c.253-4.442.943-11.609,1.623-20.043.127-1.544.248-3.136.369-4.759.406-5.364.775-11.1,1.017-16.882.068-1.587.127-3.178.17-4.764.163-5.774.168-11.512-.079-16.891-.074-1.634-.168-3.23-.295-4.784-.127-1.592-.28-3.141-.463-4.638a94.572,94.572,0,0,1-.7-12.3c0-1.592.047-3.172.121-4.759.248-5.5.848-11.012,1.544-16.866.184-1.555.378-3.136.574-4.748.627-5.205,1.279-10.727,1.8-16.772q.2-2.324.374-4.757c.357-5.186.6-10.754.637-16.825q.015-2.347-.017-4.793c-.058-5.254-.28-10.876-.706-16.931q-.054-.805-.115-1.627c-.079-1.06-.147-2.129-.195-3.2a160.783,160.783,0,0,1,.106-16.866q.127-2.388.312-4.774c.437-5.67,1.075-11.286,1.812-16.671q.323-2.4.674-4.748c.886-5.9,1.838-11.455,2.715-16.418.289-1.634.569-3.2.833-4.7.6-3.351,1.111-6.339,1.491-8.868a154.8,154.8,0,0,1-13.984-7.956c-.784,1.26-5.411,8.278-11.492,8.8-6.665.58-12.582-7.251-12.582-7.251v-1.5C125.3,206.249,121.1,208.6,116.23,211.254Z" transform="translate(-116.23 -204.377)" fill="#fff"/>
          <g id="Group_12203" data-name="Group 12203" transform="translate(1.887 15.822)">
            <g id="Group_12192" data-name="Group 12192">
              <path id="Path_38399" data-name="Path 38399" d="M117.587,219.983c.227,1.528.453,3.114.686,4.742,5.981.136,13-.759,21.466-2.715a57.167,57.167,0,0,1,23.358-.552c.289-1.634.569-3.2.833-4.7a61.926,61.926,0,0,0-25.255.637C130.322,219.318,123.368,220.2,117.587,219.983Z" transform="translate(-117.587 -215.754)" fill="#e3e3e3"/>
            </g>
            <g id="Group_12193" data-name="Group 12193" transform="translate(2.883 21.664)">
              <path id="Path_38400" data-name="Path 38400" d="M119.66,235.59c.179,1.57.348,3.146.506,4.716a95.551,95.551,0,0,0,18.762-2.709,57.071,57.071,0,0,1,19.969-1.058q.323-2.4.674-4.748a62.238,62.238,0,0,0-21.708,1.186A91.327,91.327,0,0,1,119.66,235.59Z" transform="translate(-119.66 -231.333)" fill="#e3e3e3"/>
            </g>
            <g id="Group_12194" data-name="Group 12194" transform="translate(4.574 43.336)">
              <path id="Path_38401" data-name="Path 38401" d="M120.876,251.111c.053,1.617.074,3.2.063,4.731a99.585,99.585,0,0,0,17.514-2.66A57.38,57.38,0,0,1,156.3,251.9q.127-2.388.312-4.774a62.513,62.513,0,0,0-19.221,1.438A96.848,96.848,0,0,1,120.876,251.111Z" transform="translate(-120.876 -246.917)" fill="#e3e3e3"/>
            </g>
            <g id="Group_12195" data-name="Group 12195" transform="translate(2.509 65.008)">
              <path id="Path_38402" data-name="Path 38402" d="M119.391,271.488a93.5,93.5,0,0,0,19.643-2.723,57.282,57.282,0,0,1,18.052-1.265q-.054-.805-.115-1.627c-.079-1.06-.147-2.129-.195-3.2a62.464,62.464,0,0,0-18.806,1.471,91.678,91.678,0,0,1-18.025,2.6Q119.636,269.157,119.391,271.488Z" transform="translate(-119.391 -262.502)" fill="#e3e3e3"/>
            </g>
            <g id="Group_12196" data-name="Group 12196" transform="translate(1.446 86.681)">
              <path id="Path_38403" data-name="Path 38403" d="M118.635,287.072a90.213,90.213,0,0,0,20.7-2.723,57.357,57.357,0,0,1,18.774-1.213q.015-2.347-.017-4.793a62.439,62.439,0,0,0-19.822,1.385,86.692,86.692,0,0,1-19.616,2.619Q118.611,284.758,118.635,287.072Z" transform="translate(-118.627 -278.087)" fill="#e3e3e3"/>
            </g>
            <g id="Group_12197" data-name="Group 12197" transform="translate(2.34 108.35)">
              <path id="Path_38404" data-name="Path 38404" d="M119.27,297.93q.221,2.395.48,4.717a94.137,94.137,0,0,0,19.331-2.715,57.3,57.3,0,0,1,17.763-1.3q.2-2.324.374-4.757a62.273,62.273,0,0,0-19.2,1.438A89.546,89.546,0,0,1,119.27,297.93Z" transform="translate(-119.27 -293.669)" fill="#e3e3e3"/>
            </g>
            <g id="Group_12198" data-name="Group 12198" transform="translate(5.001 130.021)">
              <path id="Path_38405" data-name="Path 38405" d="M121.183,313.42q.323,2.357.633,4.7a102.683,102.683,0,0,0,16.518-2.6,57.6,57.6,0,0,1,15.392-1.455c.184-1.555.378-3.136.574-4.748a62.669,62.669,0,0,0-17.03,1.581A98.728,98.728,0,0,1,121.183,313.42Z" transform="translate(-121.183 -309.252)" fill="#e3e3e3"/>
            </g>
            <g id="Group_12199" data-name="Group 12199" transform="translate(7.066 151.695)">
              <path id="Path_38406" data-name="Path 38406" d="M122.668,328.852c.042,1.517.063,3.1.068,4.742a106.862,106.862,0,0,0,15.016-2.5,58.182,58.182,0,0,1,13.727-1.5c0-1.592.047-3.172.121-4.759a63.126,63.126,0,0,0-14.912,1.64A106.3,106.3,0,0,1,122.668,328.852Z" transform="translate(-122.668 -324.838)" fill="#e3e3e3"/>
            </g>
            <g id="Group_12200" data-name="Group 12200" transform="translate(6.571 173.367)">
              <path id="Path_38407" data-name="Path 38407" d="M122.312,349.225a106.637,106.637,0,0,0,15.581-2.545,57.472,57.472,0,0,1,15.18-1.449c-.074-1.634-.168-3.23-.295-4.784a62.939,62.939,0,0,0-15.949,1.612,103.569,103.569,0,0,1-14.305,2.4Q122.427,346.811,122.312,349.225Z" transform="translate(-122.312 -340.422)" fill="#e3e3e3"/>
            </g>
            <g id="Group_12201" data-name="Group 12201" transform="translate(5.201 195.029)">
              <path id="Path_38408" data-name="Path 38408" d="M121.327,364.9a101.745,101.745,0,0,0,16.949-2.634,57.8,57.8,0,0,1,15.091-1.466c.068-1.587.127-3.178.17-4.764a62.962,62.962,0,0,0-16.323,1.608,99.536,99.536,0,0,1-15.533,2.492Q121.507,362.533,121.327,364.9Z" transform="translate(-121.327 -355.999)" fill="#e3e3e3"/>
            </g>
            <g id="Group_12202" data-name="Group 12202" transform="translate(3.346 216.706)">
              <path id="Path_38409" data-name="Path 38409" d="M119.993,380.557a95.722,95.722,0,0,0,18.8-2.709,57.759,57.759,0,0,1,13.7-1.495c.127-1.544.248-3.136.369-4.759a62.9,62.9,0,0,0-15.138,1.634,94.29,94.29,0,0,1-17.3,2.581C120.288,377.432,120.14,379.018,119.993,380.557Z" transform="translate(-119.993 -371.587)" fill="#e3e3e3"/>
            </g>
          </g>
        </g>
        <g id="Group_12207" data-name="Group 12207" transform="translate(34.709 10.665)">
          <g id="Group_12205" data-name="Group 12205" transform="translate(51.8)">
            <path id="Path_38410" data-name="Path 38410" d="M146.921,458.353c.722-.047,1.438-.1,2.16-.153,4.268-25.091,1.808-61.921.89-73.208-.948-11.719.875-26.788,5-41.331,3.2-11.3,1.238-37.489-.338-58.533-.442-5.906-.865-11.487-1.111-16.072-.807-14.816,4.557-42.236,7.514-55.977l-1.944-1.033c-2.961,13.6-8.52,41.647-7.678,57.127.253,4.606.674,10.195,1.117,16.112,1.564,20.882,3.514,46.863.416,57.8-4.194,14.78-6.044,30.117-5.074,42.078C148.787,396.463,151.263,433.526,146.921,458.353Z" transform="translate(-146.921 -212.046)" fill="#55b98e"/>
          </g>
          <g id="Group_12206" data-name="Group 12206" transform="translate(0 0.092)">
            <path id="Path_38411" data-name="Path 38411" d="M117.754,356.234c2.507,15.429,1.717,25.45.8,37.048-.295,3.751-.6,7.623-.816,11.9-.669,13.425-2.94,40.462-3.947,52.154.7.079,1.4.152,2.1.22,1.007-11.691,3.282-38.794,3.956-52.268.211-4.247.517-8.109.812-11.84.922-11.734,1.723-21.872-.827-37.553-.542-3.367-1.122-6.781-1.7-10.179-2.84-16.814-5.779-34.2-4.389-42.531.337-2.035.769-4.342,1.232-6.788,1.886-10.053,4.241-22.562,3.5-33.415-.738-10.759-5.148-39.892-6.839-50.872-.654.353-1.306.712-1.965,1.069,1.766,11.481,5.985,39.5,6.7,49.946.722,10.585-1.6,22.952-3.467,32.883-.463,2.456-.9,4.774-1.243,6.829-1.445,8.678,1.391,25.46,4.394,43.232C116.632,349.465,117.206,352.873,117.754,356.234Z" transform="translate(-109.672 -212.112)" fill="#55b98e"/>
          </g>
        </g>
      </g>
      <g id="Group_12210" data-name="Group 12210" transform="translate(0 131.122)">
        <path id="Path_38412" data-name="Path 38412" d="M97.493,238.666s-21.467,71.588-26.784,97.1-5.728,78.548-5.728,78.548S55.6,433.8,55.375,442.467c-.236,9.242,4.616,16.6,4.062,22.645s6.81,2.765,4.73-9.486,3.821-23.347,6.369-22.991-2.108,13.376.154,18.068,5.188-4.424,8.1-9.954c3.022-5.742,2.845-18.273,1.47-27.216S95.1,350.261,95.178,334.519l20.531-69.379S108.926,236.179,97.493,238.666Z" transform="translate(-55.367 -221.938)" fill="#ffa681"/>
        <path id="Path_38413" data-name="Path 38413" d="M116.124,268.054c-.727,4.6-3.272,12.5-6.56,22.435v.006c-.28.839-.565,1.692-.848,2.562a.652.652,0,0,0-.042.121c-.822,2.471-1.681,5.058-2.567,7.736,0,.015-.01.031-.015.047-3.641,11.054-7.672,23.7-11.054,36.693-1.164,4.447-2.25,8.942-3.214,13.42-1.233,5.717-2.276,11.419-3.041,17-2.745,20.1-7.993,45.561-7.993,45.561-7.7,3.161-19.732-1.012-19.732-1.012s-.312-36.667,1.406-50.914a381.94,381.94,0,0,1,8.177-44.55c9.221-39.618,25.45-78.382,29.9-88.661.353-.822.633-1.46.827-1.9H105.2C112.742,231.382,118.089,255.661,116.124,268.054Z" transform="translate(-53.152 -226.594)" fill="#85d6b3"/>
        <path id="Path_38414" data-name="Path 38414" d="M60.6,355.086l.6,8.436s11.444,3.72,20.02,1.1l2.268-7.525C75.234,357.535,67.6,357.331,60.6,355.086Z" transform="translate(-53.322 -176.401)" fill="#55b98e"/>
        <g id="Group_12209" data-name="Group 12209" transform="translate(38.674 62.852)">
          <path id="Path_38415" data-name="Path 38415" d="M100.916,272.834v.006a1.122,1.122,0,0,1-.063.364q-.388,1.068-.784,2.2a.652.652,0,0,0-.042.121c-.843,2.392-1.7,5-2.567,7.736,0,.015-.01.031-.015.047a416.133,416.133,0,0,0-11.139,43.621c.021-2.3.047-4.616.085-6.928-1.164,4.447-2.25,8.942-3.214,13.42A161.546,161.546,0,0,1,86.449,315.8a412.543,412.543,0,0,1,12.425-43.317,1.055,1.055,0,0,1,1.354-.627A1.044,1.044,0,0,1,100.916,272.834Z" transform="translate(-83.177 -271.79)" fill="#55b98e"/>
        </g>
      </g>
    </g>
    <g id="Group_12248" data-name="Group 12248" transform="translate(440.014 148.563)">
      <g id="Group_12215" data-name="Group 12215" transform="translate(155.277 346.542)">
        <g id="Group_12213" data-name="Group 12213" transform="translate(0 0.001)">
          <g id="Group_12212" data-name="Group 12212">
            <path id="Path_38416" data-name="Path 38416" d="M372.674,419.709h50.709c-.167-3.517-.334-6.889-.5-10.072-.884-17.363-1.635-29.187-1.635-29.187l-41.239,1.831-3.42.154-6.065.271s.585,10.573,1.5,26.06C372.225,412.193,372.443,415.862,372.674,419.709Z" transform="translate(-370.528 -380.45)" fill="#18315b"/>
          </g>
        </g>
        <path id="Path_38417" data-name="Path 38417" d="M376.593,382.436l-6.065.271s.585,10.573,1.5,26.06a368.564,368.564,0,0,0,50.862.868c-.884-17.363-1.635-29.187-1.635-29.187l-41.239,1.831Z" transform="translate(-370.528 -380.449)" fill="#000b29"/>
        <g id="Group_12214" data-name="Group 12214" transform="translate(6.062 1.834)">
          <path id="Path_38418" data-name="Path 38418" d="M380.411,419.194c-.926-16.073-1.687-29.8-2.1-37.426l-3.42.154c.416,7.589,1.172,21.254,2.1,37.272Z" transform="translate(-374.887 -381.768)" fill="#000b29"/>
        </g>
      </g>
      <g id="Group_12219" data-name="Group 12219" transform="translate(91.835 346.54)">
        <g id="Group_12217" data-name="Group 12217" transform="translate(0 0.001)">
          <g id="Group_12216" data-name="Group 12216">
            <path id="Path_38419" data-name="Path 38419" d="M375.619,419.709c.261-4.354.5-8.484.729-12.289.873-14.753,1.421-24.713,1.421-24.713l-6.583-.293-3.414-.154-40.733-1.811s-.448,7.045-1.06,18.247c-.324,5.969-.7,13.123-1.072,21.012h50.712Z" transform="translate(-324.907 -380.449)" fill="#18315b"/>
          </g>
        </g>
        <path id="Path_38420" data-name="Path 38420" d="M325.679,398.7a448.019,448.019,0,0,0,50.369,8.723c.873-14.753,1.421-24.713,1.421-24.713l-6.583-.293-3.414-.154-40.733-1.811S326.29,387.5,325.679,398.7Z" transform="translate(-324.605 -380.448)" fill="#000b29"/>
        <g id="Group_12218" data-name="Group 12218" transform="translate(40.758 1.815)">
          <path id="Path_38421" data-name="Path 38421" d="M357.641,419.2c.925-16.031,1.681-29.71,2.1-37.294l-3.414-.153c-.417,7.619-1.178,21.359-2.107,37.448h3.425Z" transform="translate(-354.216 -381.753)" fill="#000b29"/>
        </g>
      </g>
      <g id="Group_12226" data-name="Group 12226" transform="translate(86.617 102.559)">
        <g id="Group_12221" data-name="Group 12221">
          <g id="Group_12220" data-name="Group 12220">
            <path id="Path_38422" data-name="Path 38422" d="M447.9,456.889a243.236,243.236,0,0,1-30.987,6.429q-5.388.755-10.77,1.254-7.259.672-14.517.9a229.1,229.1,0,0,1-24.009-.523,243.166,243.166,0,0,1-46.423-8.062c-.143-14.429.075-66.176,1.157-116.087.053-2.239.1-4.479.157-6.708.007-.473.022-.946.031-1.42.011-.515.026-1.03.039-1.541.035-1.585.078-3.161.115-4.732q.121-4.81.256-9.533.086-2.824.168-5.607c.011-.385.025-.768.035-1.149q.059-1.836.115-3.649v0c.015-.375.025-.75.039-1.125.035-1.115.074-2.222.108-3.319.035-.936.067-1.858.1-2.784,1.2-33.667,2.951-60.224,5.461-63.968,4.255-6.347,18.747-14.774,30.4-21.633,4.152-2.439,9.113-4.977,11.952-6.859,4.14,3.333,7.144,6.344,13.281,6.137,6.867-.235,8.558-4.364,11.176-7.9,1.6,1.037,5.657,4.368,7.768,5.6,1.805,1.065,3.76,2.194,5.8,3.368,3.155,1.805,6.51,3.723,9.83,5.678,4.924,2.9,9.779,5.888,13.806,8.746s7.215,5.588,8.794,7.953c2.278,3.421,3.753,25.568,4.7,54.716.039,1.019.067,2.054.106,3.1,0,.125,0,.252,0,.381.039,1.058.071,2.144.095,3.23q.142,4.921.273,10.039c.018.719.035,1.443.046,2.167.014.544.031,1.09.035,1.627.031,1.4.063,2.808.093,4.226.007.284.011.567.018.851.078,3.739.15,7.533.217,11.356.022,1.119.039,2.239.057,3.361C448.3,383.875,448.1,441.383,447.9,456.889Z" transform="translate(-321.155 -205.002)" fill="#85d6b3"/>
          </g>
        </g>
        <path id="Path_38423" data-name="Path 38423" d="M447.036,304.61,430.678,321.2l-15.24-15.449L400.2,321.2l-15.3-15.513L369.6,321.2l-15.4-15.615-15.4,15.615L322.179,304.34c.035-1.585.078-3.161.115-4.732q.121-4.81.256-9.533l16.257-16.486,15.4,15.617,15.4-15.617,15.3,15.513,15.3-15.513,15.236,15.449,15.24-15.449,16.083,16.305c.078,3.739.15,7.533.217,11.356C447,302.367,447.017,303.488,447.036,304.61Z" transform="translate(-320.755 -178.21)" fill="#55b98e"/>
        <g id="Group_12222" data-name="Group 12222" transform="translate(24.753 173.523)">
          <path id="Path_38424" data-name="Path 38424" d="M412.247,368.179h-.006c-21.9-.1-40.6-10.063-52.421-18.406A119.949,119.949,0,0,1,339.2,331.514a1.053,1.053,0,1,1,1.612-1.356,118.017,118.017,0,0,0,20.268,17.927c11.567,8.155,29.836,17.895,51.168,17.989a1.053,1.053,0,0,1,0,2.105Z" transform="translate(-338.955 -329.782)" fill="#55b98e"/>
        </g>
        <g id="Group_12223" data-name="Group 12223" transform="translate(48.12 178.515)">
          <path id="Path_38425" data-name="Path 38425" d="M392.022,353.821c-18.648-3.666-35.155-17.947-35.9-18.6a1.053,1.053,0,1,1,1.388-1.585c.195.168,19.619,16.966,39.415,18.774a1.044,1.044,0,0,1,.955,1.144,1.055,1.055,0,0,1-1.144.954A46.251,46.251,0,0,1,392.022,353.821Z" transform="translate(-355.758 -333.372)" fill="#55b98e"/>
        </g>
        <g id="Group_12224" data-name="Group 12224" transform="translate(45.984 11.76)">
          <path id="Path_38426" data-name="Path 38426" d="M355.275,238.587a1.054,1.054,0,0,1-.195-2.09c26.7-5.067,34.751-22.246,34.828-22.418a1.054,1.054,0,0,1,1.92.868c-.337.747-8.587,18.352-36.357,23.621A1.1,1.1,0,0,1,355.275,238.587Z" transform="translate(-354.222 -213.458)" fill="#55b98e"/>
        </g>
        <g id="Group_12225" data-name="Group 12225" transform="translate(27.529 64.124)">
          <path id="Path_38427" data-name="Path 38427" d="M12.459,1.273V1.28a1.069,1.069,0,0,1-.145.337c-.4.641-.816,1.3-1.235,1.98a1.074,1.074,0,0,0-.063.113C9.682,5.868,8.29,8.226,6.856,10.718a.061.061,0,0,1-.025.042C4.592,14.681,2.272,18.934,0,23.252Q.058,21.416.115,19.6v0c.015-.375.025-.75.039-1.125C3.817,11.674,7.469,5.313,10.533.489a1.057,1.057,0,0,1,1.926.784Z" transform="matrix(0.978, 0.208, -0.208, 0.978, 4.834, 0)" fill="#55b98e"/>
        </g>
      </g>
      <g id="Group_12229" data-name="Group 12229" transform="translate(181.38)">
        <path id="Path_38428" data-name="Path 38428" d="M432.727,266.4s34.147-10.975,44.25-33.382c2.924-6.49-21.154-72.377-21.154-72.377l-11.62.562s3.311,22.859,5.319,35.8c1.651,10.643,4.317,23.358,5.218,27.547.2.908.306,1.414.306,1.414-.57.1-1.142.207-1.724.324C437.368,229.535,417,239.926,417,239.926Z" transform="translate(-378.479 -119.143)" fill="#ffa681"/>
        <g id="Group_12228" data-name="Group 12228" transform="translate(74.842 105.414)">
          <g id="Group_12227" data-name="Group 12227">
            <path id="Path_38429" data-name="Path 38429" d="M453.418,214.331a1.1,1.1,0,0,0,1.528-.241,1.073,1.073,0,0,0-.241-1.527,86.1,86.1,0,0,0-10.17-5.96c.2.908.306,1.414.306,1.414-.57.1-1.142.207-1.724.324A86.071,86.071,0,0,1,453.418,214.331Z" transform="translate(-443.118 -206.603)" fill="#f97853"/>
          </g>
        </g>
        <path id="Path_38430" data-name="Path 38430" d="M391.3,217.458s-10.33,24.239,15.966,37.733c18.2,9.339,59.653-15.044,59.653-15.044l-14.78-31.38S414.209,224.414,391.3,217.458Z" transform="translate(-389.299 -100.344)" fill="#55b98e"/>
        <path id="Path_38431" data-name="Path 38431" d="M446.677,135.255c-1.029.722-.819,5.173-.367,9.366-.145.021-.292.046-.441.072-1.222-5.6-3.656-15.113-5.738-13.3-1.361,1.189.463,9.4,1.706,14.305-.257.079-.515.161-.772.243-1.569-5.827-4.947-17.051-7.2-14.867-1.5,1.456,1.38,11.339,2.98,16.38l-.656.259c-1.53-4.891-4.8-14.143-7.037-11.969-2.028,1.968,3.783,15.955,3.783,15.955h0l1.523,5.49s-1.811.782-4.635-2.414-6.2-3.757-3.856.865c2.652,5.225,6.576,8.971,8.3,12.667s7.162,4.919,7.162,4.919l10.912-.527s2.117-18.445-1.954-27.236h0C449.7,140.24,448.467,134,446.677,135.255Z" transform="translate(-375.281 -130.8)" fill="#ffa681"/>
      </g>
      <g id="Group_12246" data-name="Group 12246" transform="translate(111.684 13.364)">
        <path id="Path_38432" data-name="Path 38432" d="M343.55,174.037c0,18.587,11.444,31.395,30.022,31.395s31.545-13.769,31.545-32.357a39.864,39.864,0,0,0-2.445-14.147c-.095-.253-.19-.5-.292-.75-.2-.481-.4-.962-.623-1.427-.323-.718-.686-1.42-1.065-2.1-4.842-8.707-13.517-14.243-25.173-14.243C353.234,140.411,343.55,155.45,343.55,174.037Z" transform="translate(-337.474 -140.41)" fill="#18315b"/>
        <g id="Group_12232" data-name="Group 12232" transform="translate(0 38.184)">
          <path id="Path_38433" data-name="Path 38433" d="M349.429,171.314s-5.163-6.885-9-1.192,1.589,22.509,10.989,18.4Z" transform="translate(-339.181 -167.868)" fill="#f97853"/>
          <g id="Group_12230" data-name="Group 12230" transform="translate(2.016 6.029)">
            <path id="Path_38434" data-name="Path 38434" d="M348.8,181.637a.8.8,0,0,1-.765-.58c-1.457-5.191-6.835-7.3-6.889-7.316a.795.795,0,0,1,.563-1.487c.252.095,6.177,2.4,7.856,8.373a.8.8,0,0,1-.551.979A.811.811,0,0,1,348.8,181.637Z" transform="translate(-340.63 -172.203)" fill="#ea5143"/>
          </g>
          <g id="Group_12231" data-name="Group 12231" transform="translate(3.959 9.149)">
            <path id="Path_38435" data-name="Path 38435" d="M342.821,178.145a.795.795,0,0,1-.667-1.225,7.254,7.254,0,0,1,2.983-2.4.794.794,0,1,1,.649,1.449,5.723,5.723,0,0,0-2.295,1.815A.8.8,0,0,1,342.821,178.145Z" transform="translate(-342.027 -174.447)" fill="#ea5143"/>
          </g>
        </g>
        <g id="Group_12237" data-name="Group 12237" transform="translate(61.478 38.184)">
          <path id="Path_38436" data-name="Path 38436" d="M385.373,171.314s5.165-6.885,9-1.192-1.589,22.509-10.989,18.4Z" transform="translate(-383.389 -167.868)" fill="#f97853"/>
          <g id="Group_12233" data-name="Group 12233" transform="translate(1.258 6.029)">
            <path id="Path_38437" data-name="Path 38437" d="M385.088,181.637a.8.8,0,0,0,.765-.58c1.456-5.191,6.835-7.3,6.889-7.316a.795.795,0,0,0-.563-1.487c-.252.095-6.177,2.4-7.856,8.373a.794.794,0,0,0,.551.979A.8.8,0,0,0,385.088,181.637Z" transform="translate(-384.294 -172.203)" fill="#ea5143"/>
          </g>
          <g id="Group_12236" data-name="Group 12236" transform="translate(4.048 9.149)">
            <g id="Group_12235" data-name="Group 12235">
              <g id="Group_12234" data-name="Group 12234">
                <path id="Path_38438" data-name="Path 38438" d="M389.734,178.145a.785.785,0,0,0,.43-.127.794.794,0,0,0,.238-1.1,7.22,7.22,0,0,0-2.982-2.4.794.794,0,1,0-.649,1.449,5.723,5.723,0,0,1,2.294,1.815A.792.792,0,0,0,389.734,178.145Z" transform="translate(-386.3 -174.447)" fill="#ea5143"/>
              </g>
            </g>
          </g>
        </g>
        <path id="Path_38439" data-name="Path 38439" d="M381.694,192.979V209.7s-4.987,8.516-11.733,9.1-12.723-7.333-12.723-7.333V194.154Z" transform="translate(-332.127 -119.875)" fill="#ffa681"/>
        <path id="Path_38440" data-name="Path 38440" d="M381.694,192.979V200.4c-4.527,5.022-12.563,6.276-24.456,4.52V194.153Z" transform="translate(-332.127 -119.875)" fill="#f97853"/>
        <path id="Path_38441" data-name="Path 38441" d="M404.364,168a162.834,162.834,0,0,1-2.169,21.124c-.31,1.621-.661,3.146-1.049,4.513-3.52,12.321-12.321,33.453-36.964,24.65-10.883-3.884-15.928-16.008-18.176-28.337a119.19,119.19,0,0,1-1.645-22.88,17.46,17.46,0,0,1,8.857-14.855c14.546-8.246,29.894-5.172,40-1.286A17.4,17.4,0,0,1,404.364,168Z" transform="translate(-337.166 -137.838)" fill="#ffa681"/>
        <ellipse id="Ellipse_674" data-name="Ellipse 674" cx="2.055" cy="3.232" rx="2.055" ry="3.232" transform="translate(22.178 40.581)" fill="#18315b"/>
        <ellipse id="Ellipse_675" data-name="Ellipse 675" cx="2.055" cy="3.232" rx="2.055" ry="3.232" transform="translate(46.399 40.515)" fill="#18315b"/>
        <path id="Path_38442" data-name="Path 38442" d="M382.065,164.237s-6.483-2.563-11.476-.406l.5,2.777s7.327-.619,11.018.876A4.807,4.807,0,0,0,382.065,164.237Z" transform="translate(-326.911 -131.599)" fill="#18315b"/>
        <path id="Path_38443" data-name="Path 38443" d="M351.762,164.237s6.483-2.563,11.476-.406l-.5,2.777s-7.327-.619-11.019.876A4.816,4.816,0,0,1,351.762,164.237Z" transform="translate(-334.384 -131.599)" fill="#18315b"/>
        <g id="Group_12238" data-name="Group 12238" transform="translate(34.18 41.816)">
          <path id="Path_38444" data-name="Path 38444" d="M366.711,186.022a8.443,8.443,0,0,0,2.876-.606.795.795,0,0,0-.6-1.471c-.718.291-2.439.748-3.186.3a.863.863,0,0,1-.391-.74c-.286-2.774.473-12.073.481-12.167a.794.794,0,0,0-1.583-.131c-.031.388-.78,9.54-.477,12.46a2.422,2.422,0,0,0,1.154,1.94A3.328,3.328,0,0,0,366.711,186.022Z" transform="translate(-363.759 -170.48)" fill="#f97853"/>
        </g>
        <path id="Path_38445" data-name="Path 38445" d="M358.211,184.557c1.321,4.584,5.074,9.156,10.246,9.22,5.166-.063,8.92-4.636,10.241-9.22Z" transform="translate(-331.747 -123.165)" fill="#fff"/>
        <g id="Group_12239" data-name="Group 12239" transform="translate(32.166 73.031)">
          <path id="Path_38446" data-name="Path 38446" d="M366.413,195.486a8.3,8.3,0,0,0,3.873-1.086.794.794,0,0,0-.823-1.359,6.779,6.779,0,0,1-3.05.855,6.461,6.461,0,0,1-2.891-.851.794.794,0,1,0-.833,1.352A7.919,7.919,0,0,0,366.413,195.486Z" transform="translate(-362.311 -192.927)" fill="#f97853"/>
        </g>
        <path id="Path_38447" data-name="Path 38447" d="M403.523,179.608h-3.6c.4-3.614.968-9.981-2-10.893-9.381-2.881,2.776-9.511-1.459-12.816s-14.774-1.893-22.1-2.13c-7.375-.239-19.227-.135-22.1.533s-1.3,5.447-.248,9.157-3.535,7.8-4.305,11.64a16.918,16.918,0,0,0,0,4.51h-3c-.356-4.67-.86-9.092-.794-12.617.12-6.172,3.775-13.023,9.145-16.066,14.546-8.246,30.615-4.965,40.721-1.079,7.014,2.692,11.214,10.8,10.858,18.289C404.465,171.694,403.93,175.606,403.523,179.608Z" transform="translate(-337.167 -137.838)" fill="#18315b"/>
        <g id="Group_12245" data-name="Group 12245" transform="translate(5.561 35.186)">
          <g id="Group_12240" data-name="Group 12240" transform="translate(9.318)">
            <path id="Path_38448" data-name="Path 38448" d="M358.875,183.7a8.993,8.993,0,1,1,8.993-8.993A9,9,0,0,1,358.875,183.7Zm0-16.586a7.591,7.591,0,1,0,7.591,7.591A7.6,7.6,0,0,0,358.875,167.112Z" transform="translate(-349.88 -165.712)" fill="#fff"/>
          </g>
          <g id="Group_12241" data-name="Group 12241" transform="translate(33.898)">
            <path id="Path_38449" data-name="Path 38449" d="M376.551,183.7a8.993,8.993,0,1,1,8.993-8.993A9,9,0,0,1,376.551,183.7Zm0-16.586a7.591,7.591,0,1,0,7.591,7.591A7.6,7.6,0,0,0,376.551,167.112Z" transform="translate(-367.556 -165.712)" fill="#fff"/>
          </g>
          <g id="Group_12242" data-name="Group 12242" transform="translate(0 1.487)">
            <path id="Path_38450" data-name="Path 38450" d="M354.017,171.389a.7.7,0,0,1-.492-.2h0c-.04-.04-4.126-4-9.486-2.753a.7.7,0,1,1-.317-1.364c6.129-1.43,10.6,2.937,10.793,3.125a.7.7,0,0,1,0,.992A.71.71,0,0,1,354.017,171.389Z" transform="translate(-343.18 -166.782)" fill="#fff"/>
          </g>
          <g id="Group_12243" data-name="Group 12243" transform="translate(49.831 1.292)">
            <path id="Path_38451" data-name="Path 38451" d="M379.715,171.444a.7.7,0,0,1-.385-1.288c.267-.175,6.632-4.28,12.047-3.389a.7.7,0,0,1-.228,1.385c-4.874-.8-10.99,3.139-11.053,3.179A.7.7,0,0,1,379.715,171.444Z" transform="translate(-379.013 -166.641)" fill="#fff"/>
          </g>
          <g id="Group_12244" data-name="Group 12244" transform="translate(25.66 3.297)">
            <path id="Path_38452" data-name="Path 38452" d="M370.365,171.758c-.015-.022-1.681-2.274-3.87-2.274-2.169,0-3.674,2.249-3.688,2.271l-1.175-.766c.078-.118,1.927-2.906,4.863-2.906,2.913,0,4.923,2.74,5.009,2.856Z" transform="translate(-361.632 -168.083)" fill="#fff"/>
          </g>
        </g>
      </g>
      <g id="Group_12247" data-name="Group 12247" transform="translate(0 133.153)">
        <path id="Path_38453" data-name="Path 38453" d="M356.98,278.309s-9.474,18.344-20.63,32.876a85.772,85.772,0,0,1-10.111,11.293c-5.485,4.953-10.834,7.543-15.191,5.346-16.156-8.145-52.178-72.969-52.178-72.969l8.871-10.522s16.031,18.513,27.756,29.591c10.812,10.217,19.127,17.854,19.127,17.854,1.5-2.278,3.091-4.774,4.749-7.416,1.763-2.8,3.592-5.773,5.454-8.826,13.5-22.164,28.48-48.774,28.48-48.774Z" transform="translate(-258.869 -226.762)" fill="#ffa681"/>
        <path id="Path_38454" data-name="Path 38454" d="M319.354,297.484a85.771,85.771,0,0,1-10.111,11.293l-6.867-38.116c1.763-2.8,3.592-5.773,5.454-8.826Z" transform="translate(-241.874 -213.061)" fill="#f97853"/>
        <path id="Path_38455" data-name="Path 38455" d="M335.873,226.762l-32.379,50.925,10.866,44.791,26.795-43.63S344.405,249,335.873,226.762Z" transform="translate(-241.437 -226.762)" fill="#55b98e"/>
      </g>
    </g>
    <g id="Group_12271" data-name="Group 12271" transform="translate(313.711 154.164)">
      <g id="Group_12254" data-name="Group 12254" transform="translate(4.264 93.302)">
        <path id="Path_38456" data-name="Path 38456" d="M334.889,438.6c-2.311-12.816-4.592-27.269-6.664-41.306q-.68-4.656-1.338-9.219c-1.66-11.622-3.146-22.612-4.336-31.729-.455-3.464-.862-6.663-1.233-9.516-1.156-9.1-1.834-14.756-1.834-14.756l-51.132,1.933-51.288-1.933s-1.322,11.188-3.439,27.408c-.387,2.952-.8,6.066-1.233,9.316-1.139,8.513-2.441,17.914-3.841,27.54l-.063.423c-.439,3-.883,6.02-1.343,9.04a.92.92,0,0,1-.021.121v.006c-1.1,7.3-2.247,14.589-3.418,21.6-.481,2.894-.966,5.738-1.457,8.507q-.227,1.293-.458,2.564h133.1Z" transform="translate(-201.79 -151.706)" fill="#6d7da4"/>
        <g id="Group_12249" data-name="Group 12249" transform="translate(0.457 190.909)">
          <circle id="Ellipse_676" data-name="Ellipse 676" cx="4.82" cy="4.82" r="4.82" transform="translate(16.962)" fill="#c7cbd5"/>
          <circle id="Ellipse_677" data-name="Ellipse 677" cx="4.82" cy="4.82" r="4.82" transform="translate(28.921 18.671)" fill="#c7cbd5"/>
          <circle id="Ellipse_678" data-name="Ellipse 678" cx="4.82" cy="4.82" r="4.82" transform="translate(52.449 9.032)" fill="#c7cbd5"/>
          <circle id="Ellipse_679" data-name="Ellipse 679" cx="4.819" cy="4.819" r="4.819" transform="translate(15.315 38.5)" fill="#c7cbd5"/>
          <circle id="Ellipse_680" data-name="Ellipse 680" cx="4.819" cy="4.819" r="4.819" transform="translate(44.716 36.439)" fill="#c7cbd5"/>
          <path id="Path_38457" data-name="Path 38457" d="M213.781,356.307a4.811,4.811,0,0,1-4.368,4.8c.434-3.25.846-6.364,1.233-9.316A4.815,4.815,0,0,1,213.781,356.307Z" transform="translate(-199.27 -334.916)" fill="#c7cbd5"/>
          <circle id="Ellipse_681" data-name="Ellipse 681" cx="4.819" cy="4.819" r="4.819" transform="translate(92.627 64.752)" fill="#c7cbd5"/>
          <circle id="Ellipse_682" data-name="Ellipse 682" cx="4.819" cy="4.819" r="4.819" transform="translate(90.351 38.5)" fill="#c7cbd5"/>
          <path id="Path_38458" data-name="Path 38458" d="M294.593,381.578a4.821,4.821,0,1,1-1.891-9.256,4.024,4.024,0,0,1,.553.036Q293.915,376.914,294.593,381.578Z" transform="translate(-168.616 -326.894)" fill="#c7cbd5"/>
          <circle id="Ellipse_683" data-name="Ellipse 683" cx="4.82" cy="4.82" r="4.82" transform="translate(95.169 83.99)" fill="#c7cbd5"/>
          <circle id="Ellipse_684" data-name="Ellipse 684" cx="4.82" cy="4.82" r="4.82" transform="translate(115.783 76.296)" fill="#c7cbd5"/>
          <path id="Path_38459" data-name="Path 38459" d="M263.7,409.271a4.8,4.8,0,0,0-7.942,0Z" transform="translate(-181.167 -313.281)" fill="#c7cbd5"/>
          <circle id="Ellipse_685" data-name="Ellipse 685" cx="4.82" cy="4.82" r="4.82" transform="translate(12.143 68.942)" fill="#c7cbd5"/>
          <path id="Path_38460" data-name="Path 38460" d="M209.816,382.983a4.812,4.812,0,0,1-4.191,4.773.92.92,0,0,0,.021-.121c.46-3.02.9-6.041,1.343-9.04A4.829,4.829,0,0,1,209.816,382.983Z" transform="translate(-200.749 -324.444)" fill="#c7cbd5"/>
          <path id="Path_38461" data-name="Path 38461" d="M205.552,404.607a4.831,4.831,0,0,1-3.433,4.62c.491-2.769.978-5.613,1.457-8.507A4.813,4.813,0,0,1,205.552,404.607Z" transform="translate(-202.119 -315.801)" fill="#c7cbd5"/>
          <circle id="Ellipse_686" data-name="Ellipse 686" cx="4.82" cy="4.82" r="4.82" transform="translate(24.101 86.025)" fill="#c7cbd5"/>
          <circle id="Ellipse_687" data-name="Ellipse 687" cx="4.82" cy="4.82" r="4.82" transform="translate(49.534 82.252)" fill="#c7cbd5"/>
          <circle id="Ellipse_688" data-name="Ellipse 688" cx="4.82" cy="4.82" r="4.82" transform="translate(31.389 58.557)" fill="#c7cbd5"/>
          <circle id="Ellipse_689" data-name="Ellipse 689" cx="4.82" cy="4.82" r="4.82" transform="translate(57.268 53.738)" fill="#c7cbd5"/>
          <circle id="Ellipse_690" data-name="Ellipse 690" cx="4.819" cy="4.819" r="4.819" transform="translate(68.918 28.31)" fill="#c7cbd5"/>
          <path id="Path_38462" data-name="Path 38462" d="M290.273,352.205a4.478,4.478,0,0,1-1.035.115,4.818,4.818,0,0,1-.2-9.632C289.411,345.543,289.818,348.741,290.273,352.205Z" transform="translate(-169.97 -338.47)" fill="#c7cbd5"/>
          <circle id="Ellipse_691" data-name="Ellipse 691" cx="4.819" cy="4.819" r="4.819" transform="translate(85.531 9.034)" fill="#c7cbd5"/>
          <circle id="Ellipse_692" data-name="Ellipse 692" cx="4.82" cy="4.82" r="4.82" transform="translate(103.181 26.206)" fill="#c7cbd5"/>
          <circle id="Ellipse_693" data-name="Ellipse 693" cx="4.819" cy="4.819" r="4.819" transform="translate(73.738 68.943)" fill="#c7cbd5"/>
        </g>
        <path id="Path_38463" data-name="Path 38463" d="M319.418,384.009c-26.974,17.61-76.5,16.23-107.625,0,2.973-18.519,6.888-37.059,6.046-61.709q-.142-4.051-.345-8.046-.179-3.473-.4-6.888c-2.685-41-9.683-74.532-6.244-78.863a32.678,32.678,0,0,1,7.091-6.041c1.213-.826,2.509-1.662,3.877-2.5,3.229-1.971,6.82-3.956,10.426-5.889,8.554-4.567,17.238-8.806,21.592-11.7,4.317,1.882,7.754,2.911,11.46,2.89a3.159,3.159,0,0,0,.318-.011,2.855,2.855,0,0,0,.309.011c3.706.021,7.142-1.01,11.466-2.89,4.038,2.685,11.642,6.432,19.4,10.519a167.7,167.7,0,0,1,15.989,9.287,32.03,32.03,0,0,1,6.829,5.868c1.7,2.147.989,11.564-.47,25.517-1.442,13.728-3.6,31.855-4.906,51.78-.362,5.533-.659,11.2-.857,16.956C312.536,346.95,316.445,365.49,319.418,384.009Z" transform="translate(-198.616 -202.373)" fill="#85d6b3"/>
        <g id="Group_12250" data-name="Group 12250" transform="translate(31.62 123.075)">
          <path id="Path_38464" data-name="Path 38464" d="M297.215,328.957h0c-21.722-.095-40.263-9.979-51.99-18.255a119.1,119.1,0,0,1-20.448-18.107,1.046,1.046,0,0,1,1.6-1.346,116.907,116.907,0,0,0,20.1,17.779c11.473,8.087,29.59,17.747,50.746,17.839a1.045,1.045,0,0,1-.006,2.09Z" transform="translate(-224.528 -290.876)" fill="#55b98e"/>
        </g>
        <g id="Group_12251" data-name="Group 12251" transform="translate(53.961 128.228)">
          <path id="Path_38465" data-name="Path 38465" d="M276.559,314.865c-18.5-3.635-34.866-17.8-35.609-18.451a1.046,1.046,0,0,1,1.377-1.574c.192.168,19.458,16.828,39.089,18.619a1.045,1.045,0,1,1-.188,2.082A45.487,45.487,0,0,1,276.559,314.865Z" transform="translate(-240.593 -294.581)" fill="#55b98e"/>
        </g>
        <g id="Group_12252" data-name="Group 12252" transform="translate(61.501 27.906)">
          <path id="Path_38466" data-name="Path 38466" d="M247.059,247.36a1.045,1.045,0,0,1-.193-2.072c26.482-5.024,34.464-22.061,34.541-22.233a1.045,1.045,0,0,1,1.905.861c-.335.741-8.518,18.2-36.056,23.425A1.063,1.063,0,0,1,247.059,247.36Z" transform="translate(-246.016 -222.44)" fill="#55b98e"/>
        </g>
        <path id="Path_38467" data-name="Path 38467" d="M290.513,212.893c-5.255,11.99-18.178,24.406-34.983,21.5-16.273-2.812-23.991-11.42-29.561-20.323,8.555-4.57,17.24-8.8,21.591-11.7,4.317,1.879,7.756,2.908,11.457,2.891a3.1,3.1,0,0,0,.318-.011,2.945,2.945,0,0,0,.313.011c3.7.017,7.141-1.012,11.464-2.891C275.153,205.06,282.758,208.806,290.513,212.893Z" transform="translate(-192.345 -202.373)" fill="#ffa681"/>
        <g id="Group_12253" data-name="Group 12253" transform="translate(46.823 0.88)">
          <path id="Path_38468" data-name="Path 38468" d="M272.758,203.006a.827.827,0,0,0-.837.826c-.006.673-.28,16.522-14.507,17.75-13.2,1.147-18.658-11.485-20.346-16.725a.738.738,0,0,0-.706-.513h-.156a.742.742,0,0,0-.706.976c1.8,5.407,7.553,18.463,21,17.985.348-.013.7-.033,1.061-.065,15.745-1.359,16.024-19.216,16.026-19.4A.827.827,0,0,0,272.758,203.006Z" transform="translate(-235.46 -203.006)" fill="#fff"/>
        </g>
      </g>
      <g id="Group_12264" data-name="Group 12264" transform="translate(29.101)">
        <path id="Path_38469" data-name="Path 38469" d="M288.51,142.43s12.716,19.694,11.323,40.207,1.875,44.194-16.482,43.153-51.1,7.359-61.5-8.618S288.51,142.43,288.51,142.43Z" transform="translate(-219.17 -131.858)" fill="#18315b"/>
        <path id="Path_38470" data-name="Path 38470" d="M282.769,168.565s3.3,29.734-10.808,37.923-24.321-.954-24.321-.954S277.379,164.087,282.769,168.565Z" transform="translate(-208.717 -121.781)" fill="#000b29"/>
        <g id="Group_12263" data-name="Group 12263" transform="translate(5.39 14.784)">
          <g id="Group_12257" data-name="Group 12257" transform="translate(0 28.481)">
            <path id="Path_38471" data-name="Path 38471" d="M233.581,169.321s-5.066-6.754-8.833-1.17,1.559,22.083,10.782,18.057Z" transform="translate(-223.527 -165.94)" fill="#f97853"/>
            <g id="Group_12255" data-name="Group 12255" transform="translate(1.976 5.913)">
              <path id="Path_38472" data-name="Path 38472" d="M232.961,179.448a.782.782,0,0,1-.751-.569c-1.43-5.094-6.706-7.158-6.76-7.178a.78.78,0,0,1,.552-1.459c.246.093,6.062,2.35,7.708,8.216a.781.781,0,0,1-.541.961A.763.763,0,0,1,232.961,179.448Z" transform="translate(-224.948 -170.192)" fill="#ea5143"/>
            </g>
            <g id="Group_12256" data-name="Group 12256" transform="translate(3.883 8.976)">
              <path id="Path_38473" data-name="Path 38473" d="M227.1,176.022a.779.779,0,0,1-.655-1.2,7.119,7.119,0,0,1,2.926-2.359.779.779,0,0,1,.635,1.423,5.636,5.636,0,0,0-2.251,1.78A.775.775,0,0,1,227.1,176.022Z" transform="translate(-226.319 -172.395)" fill="#ea5143"/>
            </g>
          </g>
          <g id="Group_12260" data-name="Group 12260" transform="translate(60.318 28.481)">
            <path id="Path_38474" data-name="Path 38474" d="M268.849,169.321s5.066-6.754,8.833-1.17-1.558,22.083-10.782,18.057Z" transform="translate(-266.901 -165.94)" fill="#f97853"/>
            <g id="Group_12258" data-name="Group 12258" transform="translate(1.233 5.913)">
              <path id="Path_38475" data-name="Path 38475" d="M268.568,179.448a.779.779,0,0,0,.75-.569c1.43-5.094,6.706-7.158,6.76-7.178a.78.78,0,0,0-.553-1.459c-.248.093-6.062,2.35-7.708,8.216a.781.781,0,0,0,.541.961A.8.8,0,0,0,268.568,179.448Z" transform="translate(-267.787 -170.192)" fill="#ea5143"/>
            </g>
            <g id="Group_12259" data-name="Group 12259" transform="translate(3.972 8.976)">
              <path id="Path_38476" data-name="Path 38476" d="M273.125,176.022a.779.779,0,0,0,.655-1.2,7.107,7.107,0,0,0-2.926-2.359.779.779,0,0,0-.637,1.423,5.635,5.635,0,0,1,2.251,1.78A.779.779,0,0,0,273.125,176.022Z" transform="translate(-269.757 -172.395)" fill="#ea5143"/>
            </g>
          </g>
          <path id="Path_38477" data-name="Path 38477" d="M265.237,190.577v16.407s-4.894,8.355-11.509,8.924-12.485-7.194-12.485-7.194V191.73Z" transform="translate(-216.606 -127.835)" fill="#ffa681"/>
          <path id="Path_38478" data-name="Path 38478" d="M265.237,190.577v7.28c-4.439,4.927-12.322,6.672-23.991,4.951V191.731Z" transform="translate(-216.606 -127.835)" fill="#f97853"/>
          <path id="Path_38479" data-name="Path 38479" d="M287.479,166.065a159.6,159.6,0,0,1-2.128,20.725c-.3,1.59-.647,3.086-1.028,4.428-3.453,12.089-12.089,32.822-36.266,24.186-10.679-3.812-15.628-15.706-17.833-27.8a117.011,117.011,0,0,1-1.613-22.448,17.126,17.126,0,0,1,8.691-14.575c14.271-8.091,29.33-5.074,39.244-1.263A17.076,17.076,0,0,1,287.479,166.065Z" transform="translate(-221.55 -145.459)" fill="#ffa681"/>
          <ellipse id="Ellipse_694" data-name="Ellipse 694" cx="2.016" cy="3.171" rx="2.016" ry="3.171" transform="translate(21.48 29.653)" fill="#18315b"/>
          <ellipse id="Ellipse_695" data-name="Ellipse 695" cx="2.016" cy="3.171" rx="2.016" ry="3.171" transform="translate(46.377 29.653)" fill="#18315b"/>
          <path id="Path_38480" data-name="Path 38480" d="M238.463,162.637a33.718,33.718,0,0,1,8.625-1.292,1.5,1.5,0,0,1,1.492,1.756l0,.024a1.492,1.492,0,0,1-1.541,1.225c-2.428-.114-8.8.228-11.809,1.448a2.262,2.262,0,0,1,.687-1.6A5.189,5.189,0,0,1,238.463,162.637Z" transform="translate(-218.96 -139.254)" fill="#18315b"/>
          <path id="Path_38481" data-name="Path 38481" d="M263.824,162.684a33.642,33.642,0,0,0-8.623-1.292,1.5,1.5,0,0,0-1.492,1.756l0,.024a1.493,1.493,0,0,0,1.541,1.225c2.428-.114,8.8.228,11.809,1.448a2.26,2.26,0,0,0-.686-1.6A5.2,5.2,0,0,0,263.824,162.684Z" transform="translate(-211.746 -139.236)" fill="#18315b"/>
          <g id="Group_12261" data-name="Group 12261" transform="translate(33.532 32.043)">
            <path id="Path_38482" data-name="Path 38482" d="M250.538,183.751a3.289,3.289,0,0,1-1.7-.4,2.378,2.378,0,0,1-1.133-1.9c-.3-2.865.437-11.844.467-12.225a.779.779,0,0,1,1.553.127c-.007.092-.754,9.216-.471,11.937a.852.852,0,0,0,.382.726c.731.438,2.422-.01,3.128-.295a.779.779,0,0,1,.588,1.442A8.169,8.169,0,0,1,250.538,183.751Z" transform="translate(-247.639 -168.501)" fill="#f97853"/>
          </g>
          <path id="Path_38483" data-name="Path 38483" d="M242.606,183.006c.588,2.965,2.548,8.419,9.145,8.419,6.614,0,8.469-4.984,9.106-8.419Z" transform="translate(-216.074 -130.792)" fill="#fff"/>
          <g id="Group_12262" data-name="Group 12262" transform="translate(31.558 62.67)">
            <path id="Path_38484" data-name="Path 38484" d="M250.246,193.036a7.785,7.785,0,0,1-3.656-1.069.779.779,0,0,1,.818-1.327h0a6.279,6.279,0,0,0,2.838.837,6.642,6.642,0,0,0,2.994-.841.78.78,0,0,1,.807,1.335A8.151,8.151,0,0,1,250.246,193.036Z" transform="translate(-246.22 -190.525)" fill="#f97853"/>
          </g>
        </g>
        <path id="Path_38485" data-name="Path 38485" d="M291.163,168.949a2.571,2.571,0,0,1-1.876,1.437,49.466,49.466,0,0,1-.282,5.768c-.961,11.266-3.8,13.243-4.446,10.459-.424-1.851-.4-12.459-.195-15.919a36.734,36.734,0,0,1-4.129-.517l-2.613-10.937-.914,10.8c-3.919,1.364-13.065-.82-13.065-.82l-3.066-10.78-1.9,10.373c-5.878,2.863-13.225.957-13.225.957l-1.688-11.188-3.9,11.188s-12.542,4.5-12.677,0c-.083-2.619,1.834-9.992,3.454-15.7a23.618,23.618,0,0,1,11.392-14.458c15.557-8.351,32.005-3.909,37.65-.538C291.655,146.212,291.163,168.949,291.163,168.949Z" transform="translate(-216.706 -134.828)" fill="#18315b"/>
        <path id="Path_38486" data-name="Path 38486" d="M237.044,143.029s-10.324,12.279-13.721,34.212-8.1,38.135,5.116,45.378c14.3,7.838,13.065-8.237,12.859-12.606s-12.372-16.311-4.254-49.945C239.665,149.209,237.044,143.029,237.044,143.029Z" transform="translate(-219.65 -131.624)" fill="#18315b"/>
        <path id="Path_38487" data-name="Path 38487" d="M230.423,175.619v.026c0,.161.015,1.035.078,2.4.031.847.083,1.876.163,3.047.485,7.388,1.923,20.149,6.145,24.575,1.667,1.751,4.88,2.628,8.664,2.984v-5.806a22.975,22.975,0,0,1-9.5-8.826,54.277,54.277,0,0,1-5.257-16.209Z" transform="translate(-215.442 -118.894)" fill="#000b29"/>
        <circle id="Ellipse_696" data-name="Ellipse 696" cx="1.826" cy="1.826" r="1.826" transform="translate(67.854 62.076)" fill="#fff"/>
      </g>
      <g id="Group_12270" data-name="Group 12270" transform="translate(0 119.344)">
        <path id="Path_38488" data-name="Path 38488" d="M324.988,302.7c-5.172,14.807-28.337,13.73-54.72,5.635-.038-.011-.076-.025-.114-.035-.085-.025-.163-.051-.248-.076l-3.628-1.157c-.5-.164-1.005-.33-1.5-.5q-4.266-1.429-8.583-3.073a293.878,293.878,0,0,1-27.885-12.35l.063-.156,2.7-7.007.921-2.385s48.91,5.329,73.5.188c.419-.088.825-.174,1.224-.267a14.911,14.911,0,0,0-.281-1.623c-13.03-44.361,1.221-52.866,5.989-59.053C312.423,220.833,334.753,274.744,324.988,302.7Z" transform="translate(-187.168 -220.836)" fill="#55b98e"/>
        <g id="Group_12265" data-name="Group 12265" transform="translate(118.324 59.052)">
          <path id="Path_38489" data-name="Path 38489" d="M295.337,272.378a1.046,1.046,0,0,1-1.393-.48c-1.863-3.816-8.191-6.087-10.134-6.708.419-.088.825-.174,1.224-.267q-.144-.82-.281-1.623c2.471.816,8.926,3.306,11.064,7.685A1.042,1.042,0,0,1,295.337,272.378Z" transform="translate(-283.81 -263.3)" fill="#85d6b3"/>
        </g>
        <g id="Group_12266" data-name="Group 12266" transform="translate(41.583 60.245)">
          <path id="Path_38490" data-name="Path 38490" d="M248.388,270.185c-9.982,0-18.088-.573-18.794-.624a1.043,1.043,0,1,1,.152-2.08c.369.026,37.058,2.623,51.523-3.246a1.043,1.043,0,1,1,.784,1.933C274.045,269.415,259.957,270.185,248.388,270.185Z" transform="translate(-228.626 -264.158)" fill="#85d6b3"/>
        </g>
        <g id="Group_12267" data-name="Group 12267" transform="translate(79.111 66.273)">
          <path id="Path_38491" data-name="Path 38491" d="M255.612,288.447h0c8.372-2.308,15.98-4.557,20.373-5.966,6.1-1.957,11.149-8.123,13.442-13.364a1.044,1.044,0,0,1,1.912.837c-2.482,5.668-7.995,12.357-14.717,14.515-3.189,1.022-8.059,2.481-13.688,4.087a12.649,12.649,0,0,1-7.324-.11Z" transform="translate(-255.612 -268.493)" fill="#85d6b3"/>
        </g>
        <g id="Group_12269" data-name="Group 12269" transform="translate(1.955 0.453)">
          <path id="Path_38492" data-name="Path 38492" d="M299.848,299.765c-75.589,25.46-98.843,8.8-98.843,8.8-5.088-46.019,13.664-87.4,13.664-87.4,5.54,9.135,11.805,25.08,11.805,25.08l1.655,35.275L228,282.5l-.058.463-.313,2.411-.007.049.487.1c22.865,4.824,64.681-.567,64.681-.567Z" transform="translate(-200.129 -221.162)" fill="#55b98e"/>
          <g id="Group_12268" data-name="Group 12268" transform="translate(14.694 61.797)">
            <path id="Path_38493" data-name="Path 38493" d="M223.982,268.164a74.371,74.371,0,0,0-11.411,11.891,1.044,1.044,0,0,1-1.665-1.261s0,0,0,0a76.454,76.454,0,0,1,12.906-13.19l-.313,2.411-.007.049Z" transform="translate(-210.696 -265.6)" fill="#85d6b3"/>
          </g>
          <path id="Path_38494" data-name="Path 38494" d="M266.763,271.931s8.37-19.01,21.092-17.318l3.838,13.745c-6.966,2.956-7.984,14.9-17.872,18.38Z" transform="translate(-174.1 -208.136)" fill="#ffa681"/>
        </g>
        <path id="Path_38495" data-name="Path 38495" d="M243.546,269.317s-5.284-12.4-19.194-16.006-22.77,2.954-23.7,5.426,5.245.11,5.245.11a12,12,0,0,0-6.333,4.921c-2.308,3.781,5.62-.3,5.62-.3s-5.685,2.491-6.408,4.8,6.775-1.594,8.185-1.519c0,0-6.7,2.662-6.65,5.045s7.692-1.5,13.4-1.2,14.464,2.673,14.464,2.673a95.9,95.9,0,0,0,13.179,1.734Z" transform="translate(-198.724 -208.563)" fill="#ffa681"/>
      </g>
    </g>
    <g id="Group_12317" data-name="Group 12317" transform="translate(48.198 85.328)">
      <g id="Group_12310" data-name="Group 12310" transform="translate(0 12.954)">
        <g id="Group_12290" data-name="Group 12290" transform="translate(391.804 8.836)">
          <g id="Group_12289" data-name="Group 12289">
            <g id="Group_12272" data-name="Group 12272" transform="translate(0 15.863)">
              <path id="Path_38496" data-name="Path 38496" d="M330.158,131.076a9.336,9.336,0,1,1,9.337-9.335A9.347,9.347,0,0,1,330.158,131.076Zm0-15.743a6.407,6.407,0,1,0,6.407,6.408A6.414,6.414,0,0,0,330.158,115.333Z" transform="translate(-320.821 -112.404)" fill="#c7cee1"/>
            </g>
            <g id="Group_12273" data-name="Group 12273" transform="translate(81.456)">
              <path id="Path_38497" data-name="Path 38497" d="M388.733,119.67a9.337,9.337,0,1,1,9.337-9.337A9.347,9.347,0,0,1,388.733,119.67Zm0-15.743a6.407,6.407,0,1,0,6.407,6.407A6.414,6.414,0,0,0,388.733,103.927Z" transform="translate(-379.396 -100.997)" fill="#c7cbd5"/>
            </g>
            <g id="Group_12280" data-name="Group 12280" transform="translate(91.798 39.625)">
              <g id="Group_12276" data-name="Group 12276" transform="translate(9.066)">
                <g id="Group_12274" data-name="Group 12274">
                  <path id="Path_38498" data-name="Path 38498" d="M394.816,138.879a1.465,1.465,0,0,1-1.464-1.464v-6.459a1.464,1.464,0,1,1,2.929,0v6.459A1.465,1.465,0,0,1,394.816,138.879Z" transform="translate(-393.352 -129.491)" fill="#8b93a7"/>
                </g>
                <g id="Group_12275" data-name="Group 12275" transform="translate(0 11.302)">
                  <path id="Path_38499" data-name="Path 38499" d="M394.816,147.006a1.465,1.465,0,0,1-1.464-1.464v-6.46a1.464,1.464,0,1,1,2.929,0v6.46A1.465,1.465,0,0,1,394.816,147.006Z" transform="translate(-393.352 -137.618)" fill="#8b93a7"/>
                </g>
              </g>
              <g id="Group_12279" data-name="Group 12279" transform="translate(0 8.881)">
                <g id="Group_12277" data-name="Group 12277" transform="translate(12.329)">
                  <path id="Path_38500" data-name="Path 38500" d="M402.965,138.806h-5.8a1.464,1.464,0,1,1,0-2.929h5.8a1.464,1.464,0,1,1,0,2.929Z" transform="translate(-395.699 -135.877)" fill="#8b93a7"/>
                </g>
                <g id="Group_12278" data-name="Group 12278">
                  <path id="Path_38501" data-name="Path 38501" d="M394.1,138.806h-5.8a1.464,1.464,0,1,1,0-2.929h5.8a1.464,1.464,0,1,1,0,2.929Z" transform="translate(-386.833 -135.877)" fill="#8b93a7"/>
                </g>
              </g>
            </g>
            <g id="Group_12288" data-name="Group 12288" transform="translate(42.484 0.499)">
              <g id="Group_12287" data-name="Group 12287">
                <g id="Group_12283" data-name="Group 12283" transform="translate(9.066)">
                  <g id="Group_12281" data-name="Group 12281">
                    <path id="Path_38502" data-name="Path 38502" d="M359.354,110.744a1.465,1.465,0,0,1-1.464-1.464V102.82a1.464,1.464,0,0,1,2.929,0v6.459A1.464,1.464,0,0,1,359.354,110.744Z" transform="translate(-357.89 -101.356)" fill="#6d7da4"/>
                  </g>
                  <g id="Group_12282" data-name="Group 12282" transform="translate(0 11.303)">
                    <path id="Path_38503" data-name="Path 38503" d="M359.354,118.871a1.465,1.465,0,0,1-1.464-1.464v-6.458a1.464,1.464,0,0,1,2.929,0v6.458A1.464,1.464,0,0,1,359.354,118.871Z" transform="translate(-357.89 -109.484)" fill="#6d7da4"/>
                  </g>
                </g>
                <g id="Group_12286" data-name="Group 12286" transform="translate(0 8.882)">
                  <g id="Group_12284" data-name="Group 12284" transform="translate(12.329)">
                    <path id="Path_38504" data-name="Path 38504" d="M367.5,110.672h-5.8a1.464,1.464,0,1,1,0-2.929h5.8a1.464,1.464,0,1,1,0,2.929Z" transform="translate(-360.237 -107.743)" fill="#6d7da4"/>
                  </g>
                  <g id="Group_12285" data-name="Group 12285">
                    <path id="Path_38505" data-name="Path 38505" d="M358.638,110.672h-5.8a1.464,1.464,0,1,1,0-2.929h5.8a1.464,1.464,0,1,1,0,2.929Z" transform="translate(-351.371 -107.743)" fill="#6d7da4"/>
                  </g>
                </g>
              </g>
            </g>
          </g>
        </g>
        <g id="Group_12309" data-name="Group 12309">
          <g id="Group_12308" data-name="Group 12308">
            <g id="Group_12291" data-name="Group 12291" transform="translate(67.435 1.008)">
              <path id="Path_38506" data-name="Path 38506" d="M87.568,104.7a9.337,9.337,0,1,1,9.337,9.337A9.347,9.347,0,0,1,87.568,104.7Zm2.93,0A6.407,6.407,0,1,0,96.9,98.3,6.414,6.414,0,0,0,90.5,104.7Z" transform="translate(-87.568 -95.368)" fill="#8b93a7"/>
            </g>
            <g id="Group_12292" data-name="Group 12292" transform="translate(29.94 36.594)">
              <path id="Path_38507" data-name="Path 38507" d="M60.606,130.295a9.337,9.337,0,1,1,9.337,9.337A9.347,9.347,0,0,1,60.606,130.295Zm2.93,0a6.407,6.407,0,1,0,6.407-6.407A6.414,6.414,0,0,0,63.536,130.295Z" transform="translate(-60.606 -120.958)" fill="#8b93a7"/>
            </g>
            <g id="Group_12299" data-name="Group 12299" transform="translate(0 49.646)">
              <g id="Group_12295" data-name="Group 12295" transform="translate(9.066)">
                <g id="Group_12293" data-name="Group 12293">
                  <path id="Path_38508" data-name="Path 38508" d="M47.059,139.73a1.464,1.464,0,0,0,1.464-1.464v-6.458a1.464,1.464,0,1,0-2.929,0v6.458A1.464,1.464,0,0,0,47.059,139.73Z" transform="translate(-45.595 -130.343)" fill="#6d7da4"/>
                </g>
                <g id="Group_12294" data-name="Group 12294" transform="translate(0 11.303)">
                  <path id="Path_38509" data-name="Path 38509" d="M47.059,147.858a1.464,1.464,0,0,0,1.464-1.464v-6.458a1.464,1.464,0,0,0-2.929,0v6.458A1.464,1.464,0,0,0,47.059,147.858Z" transform="translate(-45.595 -138.471)" fill="#6d7da4"/>
                </g>
              </g>
              <g id="Group_12298" data-name="Group 12298" transform="translate(0 8.881)">
                <g id="Group_12296" data-name="Group 12296">
                  <path id="Path_38510" data-name="Path 38510" d="M40.54,139.658h5.8a1.464,1.464,0,1,0,0-2.929h-5.8a1.464,1.464,0,1,0,0,2.929Z" transform="translate(-39.076 -136.729)" fill="#6d7da4"/>
                </g>
                <g id="Group_12297" data-name="Group 12297" transform="translate(12.329)">
                  <path id="Path_38511" data-name="Path 38511" d="M49.406,139.658h5.8a1.464,1.464,0,1,0,0-2.929h-5.8a1.464,1.464,0,1,0,0,2.929Z" transform="translate(-47.942 -136.729)" fill="#6d7da4"/>
                </g>
              </g>
            </g>
            <g id="Group_12307" data-name="Group 12307" transform="translate(33.746)">
              <g id="Group_12306" data-name="Group 12306">
                <g id="Group_12302" data-name="Group 12302" transform="translate(9.066)">
                  <g id="Group_12300" data-name="Group 12300">
                    <path id="Path_38512" data-name="Path 38512" d="M71.326,104.03a1.465,1.465,0,0,0,1.464-1.464V96.107a1.464,1.464,0,1,0-2.929,0v6.458A1.464,1.464,0,0,0,71.326,104.03Z" transform="translate(-69.862 -94.643)" fill="#c7cbd5"/>
                  </g>
                  <g id="Group_12301" data-name="Group 12301" transform="translate(0 11.303)">
                    <path id="Path_38513" data-name="Path 38513" d="M71.326,112.158a1.465,1.465,0,0,0,1.464-1.464v-6.458a1.464,1.464,0,1,0-2.929,0v6.458A1.464,1.464,0,0,0,71.326,112.158Z" transform="translate(-69.862 -102.771)" fill="#c7cbd5"/>
                  </g>
                </g>
                <g id="Group_12305" data-name="Group 12305" transform="translate(0 8.881)">
                  <g id="Group_12303" data-name="Group 12303">
                    <path id="Path_38514" data-name="Path 38514" d="M64.807,103.958h5.8a1.464,1.464,0,1,0,0-2.929h-5.8a1.464,1.464,0,0,0,0,2.929Z" transform="translate(-63.343 -101.029)" fill="#c7cbd5"/>
                  </g>
                  <g id="Group_12304" data-name="Group 12304" transform="translate(12.329)">
                    <path id="Path_38515" data-name="Path 38515" d="M73.673,103.958h5.8a1.464,1.464,0,0,0,0-2.929h-5.8a1.464,1.464,0,0,0,0,2.929Z" transform="translate(-72.209 -101.029)" fill="#c7cbd5"/>
                  </g>
                </g>
              </g>
            </g>
          </g>
        </g>
      </g>
      <g id="Group_12316" data-name="Group 12316" transform="translate(272.25)">
        <g id="Group_12313" data-name="Group 12313" transform="translate(47.177 20.763)">
          <g id="Group_12311" data-name="Group 12311">
            <path id="Path_38516" data-name="Path 38516" d="M272.827,103.465a1.03,1.03,0,0,1-.512-.076c-1.777-.751-2.819-1.1-2.83-1.1a1.04,1.04,0,1,1,.658-1.973c.044.015,1.119.375,2.98,1.16a1.04,1.04,0,0,1-.3,1.993Z" transform="translate(-268.775 -100.259)" fill="#c7cbd5"/>
          </g>
          <g id="Group_12312" data-name="Group 12312" transform="translate(8.497 3.75)">
            <path id="Path_38517" data-name="Path 38517" d="M309.818,143.067c.708,1.887,1.37,3.833,1.969,5.784a1.04,1.04,0,0,0,1.1.729,1.106,1.106,0,0,0,.2-.04,1.039,1.039,0,0,0,.688-1.3c-.61-1.991-1.288-3.977-2.009-5.9a1.04,1.04,0,0,0-1.948.73Z" transform="translate(-261.265 -87.835)" fill="#c7cbd5"/>
            <path id="Path_38518" data-name="Path 38518" d="M312.388,151.43c.477,1.954.907,3.966,1.281,5.978a1.039,1.039,0,0,0,1.131.844l.082-.011a1.042,1.042,0,0,0,.833-1.213c-.38-2.051-.819-4.1-1.3-6.092a1.041,1.041,0,0,0-2.022.494Z" transform="translate(-260.247 -84.522)" fill="#c7cbd5"/>
            <path id="Path_38519" data-name="Path 38519" d="M315.87,175.967a1.04,1.04,0,0,0,.929-1.018c.032-2.086.018-4.18-.045-6.223a1.04,1.04,0,1,0-2.079.063c.06,2.011.075,4.073.043,6.129a1.04,1.04,0,0,0,1.023,1.055A.96.96,0,0,0,315.87,175.967Z" transform="translate(-259.342 -77.657)" fill="#c7cbd5"/>
            <path id="Path_38520" data-name="Path 38520" d="M314.884,158.875a1.04,1.04,0,0,0-.9,1.165c.122.94.234,1.89.331,2.823.114,1.076.216,2.175.3,3.267a1.039,1.039,0,0,0,1.118.955l.029,0a1.039,1.039,0,0,0,.926-1.115c-.088-1.108-.189-2.226-.306-3.321-.1-.95-.213-1.916-.338-2.873a1.04,1.04,0,0,0-1.139-.9A.142.142,0,0,0,314.884,158.875Z" transform="translate(-259.615 -81.114)" fill="#c7cbd5"/>
            <path id="Path_38521" data-name="Path 38521" d="M308.914,140.58a1.039,1.039,0,0,0,1.058.609,1.052,1.052,0,0,0,.317-.085,1.04,1.04,0,0,0,.524-1.374c-.847-1.894-1.765-3.783-2.727-5.611a1.039,1.039,0,1,0-1.84.968C307.187,136.88,308.084,138.726,308.914,140.58Z" transform="translate(-262.681 -90.998)" fill="#c7cbd5"/>
            <path id="Path_38522" data-name="Path 38522" d="M275.452,104.92c1.786.912,3.588,1.905,5.357,2.954a1.04,1.04,0,1,0,1.06-1.79c-1.805-1.069-3.646-2.083-5.471-3.015a1.039,1.039,0,1,0-.946,1.851Z" transform="translate(-274.885 -102.955)" fill="#c7cbd5"/>
            <path id="Path_38523" data-name="Path 38523" d="M287.963,112.946a1.04,1.04,0,0,0,1.261-1.653c-1.648-1.257-3.351-2.482-5.069-3.639a1.04,1.04,0,1,0-1.163,1.724C284.676,110.512,286.347,111.712,287.963,112.946Z" transform="translate(-271.897 -101.189)" fill="#c7cbd5"/>
            <path id="Path_38524" data-name="Path 38524" d="M300.192,125.447a1.04,1.04,0,0,0,1.623-1.3c-1.292-1.615-2.655-3.211-4.049-4.748a1.041,1.041,0,0,0-1.541,1.4C297.593,122.3,298.927,123.867,300.192,125.447Z" transform="translate(-266.655 -96.665)" fill="#c7cbd5"/>
            <path id="Path_38525" data-name="Path 38525" d="M294.463,118.823a1.039,1.039,0,1,0,1.45-1.489c-1.478-1.439-3.027-2.858-4.6-4.215a1.04,1.04,0,0,0-1.357,1.576C291.5,116.024,293.014,117.413,294.463,118.823Z" transform="translate(-269.14 -99.083)" fill="#c7cbd5"/>
            <path id="Path_38526" data-name="Path 38526" d="M305.038,132.735a1.037,1.037,0,0,0,1,.492,1.058,1.058,0,0,0,.434-.146,1.04,1.04,0,0,0,.345-1.43c-1.079-1.767-2.231-3.524-3.418-5.219a1.04,1.04,0,0,0-1.7,1.195C302.856,129.285,303.981,131,305.038,132.735Z" transform="translate(-264.487 -93.957)" fill="#c7cbd5"/>
          </g>
        </g>
        <g id="Group_12315" data-name="Group 12315">
          <g id="Group_12314" data-name="Group 12314">
            <path id="Path_38527" data-name="Path 38527" d="M286.061,102.182l4.549-16.854-55.76.478Z" transform="translate(-234.85 -85.328)" fill="#9aa9ce"/>
            <path id="Path_38528" data-name="Path 38528" d="M234.85,85.671l48.5,20.446.128.056,2.087,3.456.492-7.58Z" transform="translate(-234.85 -85.194)" fill="#8b93a7"/>
            <path id="Path_38529" data-name="Path 38529" d="M272.592,103.87l-4.522-.712,2.435-2.744Z" transform="translate(-221.873 -79.435)" fill="#8b93a7"/>
            <path id="Path_38530" data-name="Path 38530" d="M277.38,103.6l6.1,2.574-12.571,14.162L234.85,85.672Z" transform="translate(-234.85 -85.194)" fill="#9aa9ce"/>
          </g>
        </g>
      </g>
    </g>
    <g id="Group_12318" data-name="Group 12318" transform="translate(56.215 534.365)">
      <path id="Path_38531" data-name="Path 38531" d="M702.854,419.294v1.015c0,5.862-5.469,10.613-12.217,10.613H57.053c-6.746,0-12.212-4.752-12.212-10.613v-1.015c0-5.86,5.466-10.613,12.212-10.613H690.637C697.385,408.681,702.854,413.434,702.854,419.294Z" transform="translate(-44.841 -408.681)" fill="#262e42"/>
      <path id="Path_38532" data-name="Path 38532" d="M702.854,419.294v.508H44.841v-.508c0-5.86,5.466-10.613,12.212-10.613H690.637C697.385,408.681,702.854,413.434,702.854,419.294Z" transform="translate(-44.841 -408.681)" fill="#8b93a7"/>
    </g>
    <g id="Group_12319" data-name="Group 12319" transform="translate(289.412 395.512)">
      <path id="Path_38533" data-name="Path 38533" d="M361.735,414.3H188.761a7.483,7.483,0,0,1-7.483-7.483v-90.5a7.483,7.483,0,0,1,7.483-7.483H361.735a7.483,7.483,0,0,1,7.483,7.483v90.5A7.483,7.483,0,0,1,361.735,414.3Z" transform="translate(-181.278 -308.832)" fill="#18315b"/>
      <rect id="Rectangle_1886" data-name="Rectangle 1886" width="29.107" height="33.18" transform="translate(79.416 105.345)" fill="#000b29"/>
      <circle id="Ellipse_697" data-name="Ellipse 697" cx="14.446" cy="14.446" r="14.446" transform="translate(79.199 39.579)" fill="#1d567e"/>
      <path id="Path_38534" data-name="Path 38534" d="M296.6,411.752H221.523v-2.53a9.242,9.242,0,0,1,9.241-9.242h56.595a9.243,9.243,0,0,1,9.242,9.242Z" transform="translate(-165.557 -273.227)" fill="#18315b"/>
    </g>
  </g>
</svg>
