<?xml version="1.0"?>
<svg xmlns="http://www.w3.org/2000/svg" xmlns:xlink="http://www.w3.org/1999/xlink" xmlns:svgjs="http://svgjs.com/svgjs" version="1.1" width="512" height="512" x="0" y="0" viewBox="0 0 64 64" style="enable-background:new 0 0 512 512" xml:space="preserve" class=""><g><g xmlns="http://www.w3.org/2000/svg" id="Layer_16" data-name="Layer 16"><path d="M62.817,61.423,51,44.683V26h3a1,1,0,0,0,.822-1.569l-9-13a1.038,1.038,0,0,0-1.644,0L41.94,14.663a.976.976,0,0,0-.118-.232l-9-13a1.038,1.038,0,0,0-1.644,0l-9,13a.976.976,0,0,0-.118.232l-2.238-3.232a1.038,1.038,0,0,0-1.644,0l-9,13A1,1,0,0,0,10,26h3V44.683L1.183,61.423A1,1,0,0,0,2,63H62a1,1,0,0,0,.817-1.577ZM23,16h3v2h2V15a1,1,0,0,0-1-1H24.909L32,3.757,39.091,14H37a1,1,0,0,0-1,1v3h2V16h3l.016,0-3.4,4.91a5.989,5.989,0,0,0-11.232,0L22.984,16ZM39,29.026A4.948,4.948,0,0,0,36,28h-.69a6.041,6.041,0,0,0,1.878-2H39ZM36,34V55H33V43H31V55H28c0-3.021,0-11.861,0-11.994V34H26v8H25V33a3,3,0,0,1,3-3h8a3,3,0,0,1,3,3v9H38V34Zm-7.31-6H28a4.948,4.948,0,0,0-3,1.026V26h1.812A6.041,6.041,0,0,0,28.69,28ZM32,27a4,4,0,1,1,4-4A4,4,0,0,1,32,27ZM45.75,61,40.959,44.718l-1.918.564L43.665,61H20.335l4.624-15.718-1.918-.564L18.25,61H3.93L14.817,45.577A1,1,0,0,0,15,45V25a1,1,0,0,0-1-1H11.909L19,13.757,26.09,24H24a1,1,0,0,0-1,1V43a1,1,0,0,0,1,1h2c0,.3,0,.639,0,1.031V56a1,1,0,0,0,1,1H37a1,1,0,0,0,1-1V44h2a1,1,0,0,0,1-1V33c0-.08-.02-.154-.024-.233H41V25a1,1,0,0,0-1-1H37.91v0L45,13.757,52.091,24H50a1,1,0,0,0-1,1V45a1,1,0,0,0,.183.577L60.07,61Z" fill="#262e42" data-original="#000000" style="" class=""/></g></g></svg>
