<?xml version="1.0"?>
<svg xmlns="http://www.w3.org/2000/svg" xmlns:xlink="http://www.w3.org/1999/xlink" xmlns:svgjs="http://svgjs.com/svgjs" version="1.1" width="512" height="512" x="0" y="0" viewBox="0 0 74 74" style="enable-background:new 0 0 512 512" xml:space="preserve" class=""><g><path xmlns="http://www.w3.org/2000/svg" d="m63.773 70a1 1 0 0 1 -.869-.5l-7.226-12.679a1 1 0 0 1 -.131-.5v-42.881a5.824 5.824 0 0 1 5.818-5.818h4.817a5.824 5.824 0 0 1 5.818 5.818v42.886a1 1 0 0 1 -.131.5l-7.227 12.674a1 1 0 0 1 -.869.5zm-6.226-13.939 6.227 10.92 6.226-10.92v-42.621a3.822 3.822 0 0 0 -3.818-3.818h-4.817a3.822 3.822 0 0 0 -3.818 3.818z" fill="#262e42" data-original="#000000" style="" class=""/><path xmlns="http://www.w3.org/2000/svg" d="m57.224 57.061-1.356-1.469c.079-.074 7.995-7.229 15.812 0l-1.359 1.468c-6.446-5.96-12.829-.245-13.097.001z" fill="#262e42" data-original="#000000" style="" class=""/><path xmlns="http://www.w3.org/2000/svg" d="m56.547 18.838h14.453v2h-14.453z" fill="#262e42" data-original="#000000" style="" class=""/><path xmlns="http://www.w3.org/2000/svg" d="m62.773 19.838h2v33.597h-2z" fill="#262e42" data-original="#000000" style="" class=""/><path xmlns="http://www.w3.org/2000/svg" d="m30.653 53.692h-10.464a1 1 0 0 1 -1-1 15.582 15.582 0 0 0 -5.335-11.608 17.444 17.444 0 1 1 28.941-14.624 17.321 17.321 0 0 1 -5.908 14.712 15.288 15.288 0 0 0 -5.234 11.52 1 1 0 0 1 -1 1zm-9.493-2h8.522a17.291 17.291 0 0 1 5.89-12.026 15.442 15.442 0 1 0 -20.391-.078 17.644 17.644 0 0 1 5.979 12.102z" fill="#262e42" data-original="#000000" style="" class=""/><path xmlns="http://www.w3.org/2000/svg" d="m28.668 59.553h-6.494a1.749 1.749 0 0 1 -1.747-1.747v-5.114a1 1 0 0 1 1-1h7.989a1 1 0 0 1 1 1v5.114a1.749 1.749 0 0 1 -1.748 1.747zm-6.242-2h5.989v-3.861h-5.988z" fill="#262e42" data-original="#000000" style="" class=""/><path xmlns="http://www.w3.org/2000/svg" d="m24.421 4.86h2v3.737h-2z" fill="#262e42" data-original="#000000" style="" class=""/><path xmlns="http://www.w3.org/2000/svg" d="m14.518 7.514h2v3.736h-2z" transform="matrix(.866 -.5 .5 .866 -2.612 9.016)" fill="#262e42" data-original="#000000" style="" class=""/><path xmlns="http://www.w3.org/2000/svg" d="m7.269 14.763h2v3.736h-2z" transform="matrix(.5 -.866 .866 .5 -10.269 15.477)" fill="#262e42" data-original="#000000" style="" class=""/><path xmlns="http://www.w3.org/2000/svg" d="m3 25.534h3.737v2h-3.737z" fill="#262e42" data-original="#000000" style="" class=""/><path xmlns="http://www.w3.org/2000/svg" d="m44.106 25.534h3.737v2h-3.737z" fill="#262e42" data-original="#000000" style="" class=""/><path xmlns="http://www.w3.org/2000/svg" d="m40.705 15.631h3.737v2h-3.737z" transform="matrix(.866 -.5 .5 .866 -2.613 23.511)" fill="#262e42" data-original="#000000" style="" class=""/><path xmlns="http://www.w3.org/2000/svg" d="m33.456 8.382h3.737v2h-3.737z" transform="matrix(.5 -.866 .866 .5 9.539 35.285)" fill="#262e42" data-original="#000000" style="" class=""/><path xmlns="http://www.w3.org/2000/svg" d="m24.421 34.008h2v18.685h-2z" fill="#262e42" data-original="#000000" style="" class=""/><path xmlns="http://www.w3.org/2000/svg" d="m25.421 35.008a4.363 4.363 0 1 1 4.363-4.363 4.368 4.368 0 0 1 -4.363 4.363zm0-6.726a2.363 2.363 0 1 0 2.363 2.363 2.366 2.366 0 0 0 -2.363-2.363z" fill="#262e42" data-original="#000000" style="" class=""/><path xmlns="http://www.w3.org/2000/svg" d="m63.773 70h-34.548a5.006 5.006 0 0 1 -5-5v-6.447h2v6.447a3 3 0 0 0 3 3h34.548z" fill="#262e42" data-original="#000000" style="" class=""/></g></svg>
