<?xml version="1.0"?>
<svg xmlns="http://www.w3.org/2000/svg" xmlns:xlink="http://www.w3.org/1999/xlink" xmlns:svgjs="http://svgjs.com/svgjs" version="1.1" width="512" height="512" x="0" y="0" viewBox="0 0 64 64" style="enable-background:new 0 0 512 512" xml:space="preserve" class=""><g><g xmlns="http://www.w3.org/2000/svg"><path d="m63 39.777v-7.555l-2.802-.713c-.119-.319-.253-.639-.4-.957l1.479-2.489-5.342-5.342-2.489 1.48c-.317-.147-.638-.281-.956-.4l-.713-2.801h-2.777v-17c0-1.654-1.346-3-3-3h-31.172c-.801 0-1.555.312-2.121.879l-10.828 10.828c-.567.566-.879 1.32-.879 2.122v45.171c0 1.654 1.346 3 3 3h42c1.654 0 3-1.346 3-3v-9h2.777l.713-2.802c.318-.119.639-.252.956-.4l2.489 1.48 5.342-5.342-1.479-2.489c.147-.317.281-.637.4-.956zm-50-35.363v8.586h-8.586zm34 55.586c0 .551-.448 1-1 1h-42c-.552 0-1-.449-1-1v-45h12v-12h31c.552 0 1 .449 1 1v17h-2.777l-.713 2.802c-.318.119-.639.252-.956.4l-2.489-1.48-5.342 5.342 1.479 2.489c-.147.318-.281.637-.4.957l-2.802.713v7.555l2.802.713c.119.319.253.639.4.956l-1.479 2.489 5.342 5.342 2.489-1.48c.317.147.638.281.956.4l.713 2.802h2.777zm11.764-16.379-3.143 3.143-2.095-1.246-.492.254c-.56.289-1.126.525-1.686.704l-.528.169-.597 2.355h-4.445l-.598-2.354-.528-.169c-.56-.179-1.126-.415-1.686-.704l-.492-.254-2.095 1.246-3.143-3.143 1.246-2.096-.256-.493c-.288-.558-.525-1.124-.704-1.683l-.168-.528-2.354-.599v-4.445l2.354-.599.168-.528c.179-.558.416-1.125.705-1.683l.255-.493-1.246-2.095 3.143-3.143 2.095 1.246.492-.254c.56-.289 1.126-.525 1.686-.704l.528-.169.597-2.356h4.445l.598 2.354.528.169c.56.179 1.126.415 1.686.704l.492.254 2.095-1.246 3.143 3.143-1.246 2.095.255.493c.289.559.526 1.125.705 1.683l.168.528 2.354.6v4.445l-2.354.599-.168.528c-.179.559-.416 1.125-.704 1.683l-.256.493z" fill="#262e42" data-original="#000000" style="" class=""/><path d="m48 27c-4.963 0-9 4.038-9 9s4.037 9 9 9 9-4.038 9-9-4.037-9-9-9zm0 16c-3.859 0-7-3.14-7-7s3.141-7 7-7 7 3.14 7 7-3.141 7-7 7z" fill="#262e42" data-original="#000000" style="" class=""/><path d="m48 31c-2.757 0-5 2.243-5 5s2.243 5 5 5 5-2.243 5-5-2.243-5-5-5zm0 8c-1.654 0-3-1.346-3-3s1.346-3 3-3 3 1.346 3 3-1.346 3-3 3z" fill="#262e42" data-original="#000000" style="" class=""/><path d="m43 18h2v-9h-9v2h5.586l-11.586 11.586-4-4-21.707 21.707 1.414 1.414 20.293-20.293 4 4 13-13z" fill="#262e42" data-original="#000000" style="" class=""/><path d="m5 59h6v-16h-6zm2-14h2v12h-2z" fill="#262e42" data-original="#000000" style="" class=""/><path d="m13 59h6v-20h-6zm2-18h2v16h-2z" fill="#262e42" data-original="#000000" style="" class=""/><path d="m21 59h6v-24h-6zm2-22h2v20h-2z" fill="#262e42" data-original="#000000" style="" class=""/><path d="m33 5h-16v10h16zm-2 8h-12v-6h12z" fill="#262e42" data-original="#000000" style="" class=""/><path d="m5 17h2v2h-2z" fill="#262e42" data-original="#000000" style="" class=""/><path d="m9 17h10v2h-10z" fill="#262e42" data-original="#000000" style="" class=""/><path d="m5 21h14v2h-14z" fill="#262e42" data-original="#000000" style="" class=""/><path d="m31 53h2v2h-2z" fill="#262e42" data-original="#000000" style="" class=""/><path d="m35 53h10v2h-10z" fill="#262e42" data-original="#000000" style="" class=""/><path d="m31 57h14v2h-14z" fill="#262e42" data-original="#000000" style="" class=""/><path d="m39 5h2v2h-2z" fill="#262e42" data-original="#000000" style="" class=""/><path d="m35 5h2v2h-2z" fill="#262e42" data-original="#000000" style="" class=""/><path d="m43 5h2v2h-2z" fill="#262e42" data-original="#000000" style="" class=""/></g></g></svg>
